<svg version="1.1" id="Layer_1" xmlns="http://www.w3.org/2000/svg" xmlns:xlink="http://www.w3.org/1999/xlink" x="0px" y="0px"
	 width="100%" viewBox="0 0 201 222" enable-background="new 0 0 201 222" xml:space="preserve">
<path fill="#000000" opacity="1.000000" stroke="none" 
	d="
M1.000000,82.000000 
	C1.000000,54.666668 1.000000,27.833336 1.000000,1.000004 
	C67.999992,1.000002 134.999985,1.000002 202.000000,1.000001 
	C202.000000,74.999992 202.000000,148.999985 202.000000,222.999969 
	C135.000015,222.999985 68.000031,222.999985 1.000021,223.000000 
	C1.000000,176.166672 1.000000,129.333328 1.000000,82.000000 
M55.058685,59.555737 
	C55.368069,59.745544 55.677448,59.935356 55.970779,60.048660 
	C55.970779,60.048660 55.895920,60.071175 56.172554,60.697517 
	C58.528172,62.493782 60.883793,64.290047 63.239410,66.086319 
	C63.644531,65.668419 64.049652,65.250526 64.454773,64.832634 
	C62.665634,62.533123 60.876492,60.233616 58.976494,57.105957 
	C58.658169,53.435524 58.339844,49.765095 58.701057,45.779560 
	C60.487904,42.526707 62.274746,39.273857 64.645927,35.778194 
	C65.770210,34.548714 66.894493,33.319229 68.547768,31.933538 
	C68.736862,31.628712 68.925964,31.323883 69.046501,31.022562 
	C69.046501,31.022562 69.072060,31.086285 69.798447,30.986315 
	C76.895386,26.461611 84.545395,23.509197 93.530518,22.909460 
	C93.732254,22.618906 93.933983,22.328352 94.739685,22.005690 
	C95.134743,21.934471 95.529808,21.863253 96.858940,21.960043 
	C105.564987,23.022821 114.271042,24.085600 122.983955,25.074261 
	C122.983955,25.074261 122.909523,25.074797 123.245049,25.752319 
	C128.472702,27.881824 133.700348,30.011330 138.949921,32.049675 
	C138.949921,32.049675 138.857208,32.035748 139.033966,32.586311 
	C139.368179,32.683681 139.702408,32.781055 140.720764,33.009651 
	C141.774338,33.353798 142.827927,33.697945 144.256165,34.730858 
	C148.616043,35.740295 152.975922,36.749733 157.051361,37.693314 
	C156.377121,37.889210 155.173050,38.239040 153.179535,38.818230 
	C155.905594,40.547989 157.887634,41.805656 159.978409,43.827686 
	C160.357880,45.057354 160.440201,46.510342 161.167786,47.478378 
	C164.474945,51.878555 163.131516,55.972019 160.378906,60.592800 
	C168.534042,61.985390 169.363785,54.601101 173.139709,51.111115 
	C173.048157,50.588966 172.956589,50.066814 172.865036,49.544666 
	C170.934830,49.688438 169.004639,49.832214 166.975845,49.196945 
	C165.812805,46.011951 164.649750,42.826962 163.450119,39.541798 
	C164.108154,38.912537 165.093796,37.970005 166.759659,36.670845 
	C167.222992,35.257236 167.686325,33.843632 168.149658,32.430050 
	C161.648987,31.978540 155.820877,31.573744 149.262329,31.021072 
	C148.521530,31.072300 147.780731,31.123528 146.429291,30.924854 
	C145.246658,30.510414 144.064026,30.095974 142.470200,29.030123 
	C137.598236,26.694530 132.726273,24.358936 127.750359,21.272018 
	C126.499001,21.135567 125.247650,20.999115 124.015907,20.939409 
	C124.015907,20.939409 124.091560,20.915949 123.713562,20.225403 
	C123.205360,19.834368 122.718704,19.135059 122.185776,19.097818 
	C111.557922,18.355160 100.891891,16.858927 90.303284,17.277651 
	C82.260216,17.595713 74.294815,20.320877 67.242905,26.214621 
	C64.453499,28.793627 61.664101,31.372633 58.241859,34.225147 
	C56.549114,37.490780 54.856369,40.756413 53.023350,44.445400 
	C53.023350,44.445400 52.970142,44.888206 52.269779,45.002781 
	C50.813118,46.654221 49.356457,48.305660 47.970287,49.975010 
	C47.970287,49.975010 47.952950,49.904381 47.316856,50.188770 
	C46.508881,51.786037 45.700905,53.383305 44.204960,55.353657 
	C40.028118,67.955963 42.264469,80.087822 47.010979,92.830078 
	C47.906342,94.218895 48.804893,95.605667 49.695679,96.997421 
	C50.116611,97.655083 50.522644,98.322281 50.089470,99.011475 
	C48.402340,99.061119 46.715214,99.110764 44.319382,99.191193 
	C39.815865,104.434280 42.249527,110.271599 42.325588,116.221527 
	C43.043266,123.312378 45.848797,129.270172 52.116161,133.514053 
	C52.252800,131.854416 51.906128,130.335297 51.338516,128.903793 
	C49.888813,125.247650 48.340618,121.630569 46.965252,117.374084 
	C46.660454,116.886536 46.355656,116.398979 46.021599,115.983864 
	C46.021599,115.983864 46.091434,115.948853 45.988705,115.044678 
	C46.370918,111.042252 46.753128,107.039818 47.922840,103.003609 
	C49.414211,103.340240 50.905582,103.676865 52.718014,104.085960 
	C52.832264,102.567528 52.926212,101.318886 53.792797,100.364067 
	C54.152565,103.256668 54.512333,106.149277 54.972202,109.961243 
	C54.719868,117.304810 54.467533,124.648376 54.051056,132.706970 
	C54.027390,133.440125 54.003727,134.173279 53.233059,135.372055 
	C53.228374,144.000061 51.676575,152.733490 54.995720,161.833084 
	C55.651577,162.924179 56.307434,164.015289 57.015102,165.566132 
	C57.015102,165.566132 57.157631,166.006302 57.206608,166.682632 
	C58.232658,168.046158 59.258709,169.409683 60.708282,171.336029 
	C60.916229,169.626404 61.012192,168.837448 61.716305,167.808060 
	C61.839996,167.697601 61.948215,167.554535 62.091949,167.486328 
	C62.221893,167.424667 62.512115,167.400269 62.524918,167.435196 
	C63.331043,169.635086 64.115967,171.842743 64.999504,174.782440 
	C65.980995,176.880600 66.962494,178.978745 67.985077,181.012070 
	C67.985077,181.012070 67.912964,181.038361 68.082932,181.522049 
	C68.379051,181.624191 68.675163,181.726349 69.606613,182.176697 
	C71.149231,185.891647 73.446945,188.558334 77.811920,189.087448 
	C79.582497,189.302063 81.245323,190.405533 83.221970,191.718414 
	C87.663498,196.406052 92.210922,200.933487 99.327011,202.734818 
	C105.304527,205.569382 108.608681,204.828934 111.796417,200.026672 
	C113.878448,199.054871 115.960480,198.083069 118.739082,196.997452 
	C119.864059,196.350815 120.989037,195.704178 122.714195,194.785599 
	C125.429451,192.206802 127.593163,188.766235 132.678665,188.984756 
	C133.132660,188.937088 133.586655,188.889420 134.558121,188.869980 
	C134.739853,188.587158 134.921570,188.304337 135.006226,188.011185 
	C135.006226,188.011185 135.018082,188.108093 135.529510,187.916824 
	C135.715286,187.614899 135.901062,187.312958 136.005035,187.005844 
	C136.005035,187.005844 136.013718,187.087326 136.536636,186.923126 
	C136.720459,186.619461 136.904282,186.315811 137.005524,186.005661 
	C137.005524,186.005661 137.013397,186.088104 137.534988,185.921783 
	C137.718704,185.618484 137.902420,185.315186 138.006180,185.007950 
	C138.006180,185.007950 138.022064,185.086426 138.533401,184.910950 
	C138.639084,184.595825 138.744781,184.280701 138.998413,183.563293 
	C138.998413,183.563293 139.043320,183.137039 139.522247,182.926178 
	C139.702042,182.639465 139.881836,182.352753 140.702225,181.765839 
	C143.381378,177.196213 146.911987,172.922791 145.971848,166.581314 
	C145.971848,166.581314 146.032791,166.100647 146.674835,166.256577 
	C147.547867,167.427460 148.420883,168.598343 149.294922,169.770569 
	C150.715225,167.566772 151.842896,165.817078 153.620209,163.629196 
	C154.017181,161.086288 154.414154,158.543365 154.968491,155.558655 
	C154.968491,155.558655 155.026611,155.093292 155.749344,154.601105 
	C155.506653,148.343079 155.263962,142.085052 154.990219,135.417206 
	C154.990219,135.417206 154.842148,135.033798 154.966125,134.269653 
	C154.898834,133.503830 154.831558,132.738022 154.911499,131.196045 
	C154.631302,129.750366 154.351120,128.304688 154.074722,126.456161 
	C154.074722,126.456161 154.146072,126.059662 154.815521,125.622543 
	C154.870667,119.525345 155.059937,113.425591 154.944260,107.331635 
	C154.821686,100.874733 154.409256,94.423325 153.995621,87.169960 
	C153.562027,82.792496 152.285065,78.858719 148.002365,75.014969 
	C148.864563,80.907921 149.529785,85.454651 150.054718,90.847427 
	C150.382019,92.735764 151.017197,94.629326 150.985291,96.511574 
	C150.813019,106.676933 150.475403,116.839493 150.045547,127.709137 
	C149.077271,130.471542 148.109009,133.233932 147.010056,136.430771 
	C147.010056,136.430771 146.972397,136.882858 146.489532,137.073090 
	C146.384918,137.372192 146.280289,137.671280 146.014709,138.418701 
	C146.014709,138.418701 145.942184,138.889496 145.332626,139.161835 
	C144.860458,141.432114 144.388290,143.702408 143.984207,145.984787 
	C143.984207,145.984787 143.982101,145.915665 143.467957,146.090134 
	C143.368515,146.406235 143.269073,146.722336 143.019852,147.421005 
	C143.019852,147.421005 142.976105,147.829514 142.470490,148.062057 
	C142.285233,148.371933 142.099976,148.681793 141.982666,148.985504 
	C141.982666,148.985504 141.952118,148.924500 141.390549,149.125793 
	C140.897415,149.733841 140.404266,150.341888 139.982300,150.962952 
	C139.982300,150.962952 139.961365,150.893707 139.224136,150.997208 
	C133.644791,152.016571 134.622421,157.897812 131.229202,161.232483 
	C129.224991,162.069138 126.205910,159.627960 124.485550,163.089676 
	C124.293495,163.387024 124.101433,163.684372 123.978973,163.980637 
	C123.978973,163.980637 123.955147,163.915237 123.379097,164.165680 
	C122.549812,165.091187 121.720520,166.016708 120.964493,166.956131 
	C120.964493,166.956131 120.948685,166.883255 120.188141,167.003006 
	C113.465958,170.205994 113.332718,170.071625 108.135063,164.554703 
	C105.816925,162.094177 103.127441,161.501907 100.272942,165.249542 
	C97.418167,169.907883 93.302078,169.207001 89.033997,167.967819 
	C89.033997,167.967819 89.109299,167.969971 88.918198,167.484863 
	C88.616959,167.386200 88.315727,167.287552 87.367485,167.034882 
	C86.927299,166.985291 86.487122,166.935699 85.783821,166.280960 
	C84.154602,164.439056 82.525383,162.597153 81.026222,160.902283 
	C79.590851,161.893753 78.690651,162.515549 77.834167,163.107147 
	C76.713326,161.562485 75.775635,160.270233 74.897888,158.454758 
	C74.616478,158.260544 74.335068,158.066330 74.038963,157.934158 
	C74.038963,157.934158 74.095596,157.904968 74.001213,157.159027 
	C73.351570,155.775299 73.022438,153.546204 71.995758,153.156952 
	C67.954735,151.624847 66.034203,148.360596 63.997353,144.179291 
	C66.777969,139.013794 61.957760,136.487106 60.024918,132.074402 
	C59.283947,122.059982 58.542976,112.045570 57.956299,101.123260 
	C58.330811,94.798195 58.705318,88.473129 59.160240,80.789940 
	C52.553757,85.331261 55.463867,92.147652 52.609341,96.314468 
	C51.780670,93.608284 50.907253,90.755959 49.975788,87.264496 
	C49.919231,86.841667 49.862675,86.418846 49.974056,85.371826 
	C49.658752,84.890205 49.343449,84.408592 48.967041,83.196091 
	C48.915337,82.466675 48.863632,81.737259 48.982132,80.303818 
	C48.662052,79.499619 48.341972,78.695427 47.963207,77.433182 
	C47.963207,77.433182 47.811237,76.997101 47.966633,76.078171 
	C47.917393,71.703636 47.868153,67.329109 47.962536,62.552246 
	C47.962536,62.552246 48.029869,62.130383 48.696533,61.827557 
	C48.738991,60.878017 48.781448,59.928478 48.949856,58.546528 
	C48.949856,58.546528 49.014969,58.100880 49.552010,57.929409 
	C49.642452,57.603138 49.732899,57.276867 49.970257,56.533615 
	C49.970257,56.533615 50.034294,56.096176 50.540855,55.920444 
	C50.635338,55.612656 50.729820,55.304867 51.113609,54.369564 
	C51.542900,53.973022 51.972187,53.576477 52.425793,53.157471 
	C53.069057,54.977318 53.610100,56.507969 54.097958,58.565418 
	C54.386681,58.754082 54.675404,58.942745 54.967743,59.030075 
	C54.967743,59.030075 54.866360,59.031635 55.058685,59.555737 
M133.007294,144.001450 
	C133.007294,144.001450 133.121307,143.988068 132.930466,143.486145 
	C132.621506,143.377869 132.312546,143.269577 131.607925,143.000778 
	C131.607925,143.000778 131.181702,142.975204 130.957611,142.453293 
	C130.638794,142.273056 130.319992,142.092804 130.004532,141.998245 
	C130.004532,141.998245 130.090179,141.994370 129.946198,141.449844 
	C129.632156,141.267853 129.318130,141.085876 129.038956,140.977737 
	C129.038956,140.977737 129.111008,140.939346 128.847260,140.325424 
	C127.586136,139.508728 126.325012,138.692032 125.042809,137.948837 
	C125.042809,137.948837 125.118332,137.936707 124.819870,137.297241 
	C122.562897,136.264557 120.305916,135.231873 117.242821,134.015350 
	C114.827682,133.733093 112.412537,133.450851 109.236023,133.037933 
	C107.437775,133.653183 104.636513,135.313492 104.007858,134.710129 
	C100.534950,131.376923 96.640160,133.565964 92.238907,133.045731 
	C89.097305,135.023056 85.955704,137.000381 82.411018,138.983383 
	C82.411018,138.983383 82.037704,139.135529 81.378700,139.150818 
	C80.194328,140.425354 79.009964,141.699890 77.406219,142.995651 
	C77.406219,142.995651 77.014915,143.148010 76.481888,143.078064 
	C76.291214,143.365799 76.100540,143.653534 75.184525,144.286926 
	C72.830086,144.660156 70.475655,145.033401 67.781326,145.460510 
	C68.203285,146.231415 68.365402,147.062607 68.812515,147.265366 
	C77.588341,151.245285 86.273849,152.759521 95.282310,147.460129 
	C98.810555,145.384583 103.050987,144.519699 107.252419,143.746826 
	C110.825432,145.530792 114.398453,147.314758 118.235016,149.625320 
	C122.858696,149.746063 127.520882,150.272491 132.091904,149.838577 
	C134.928024,149.569336 137.625854,147.843445 140.385773,146.771378 
	C140.192612,146.234009 139.999466,145.696625 139.806320,145.159256 
	C138.524384,145.159256 137.242447,145.159256 135.311569,145.023224 
	C134.872665,144.970627 134.433777,144.918015 133.991913,144.997116 
	C133.991913,144.997116 134.123611,145.000519 133.924179,144.473740 
	C133.614212,144.278290 133.304260,144.082840 133.007294,144.001450 
M82.822037,34.979836 
	C84.216057,34.278809 85.610077,33.577778 87.692253,32.530693 
	C82.470695,30.620255 79.818359,33.732197 76.161263,35.983402 
	C67.223228,42.621769 63.531288,55.356060 69.850090,58.767982 
	C69.253006,50.185116 72.397995,43.350498 79.603851,37.915241 
	C80.085884,37.314880 80.567924,36.714520 81.559563,35.933342 
	C81.741898,35.633484 81.924232,35.333626 82.822037,34.979836 
M130.756241,51.963284 
	C132.690125,51.963284 134.623993,51.963284 137.626419,51.963284 
	C131.285736,47.820446 125.609749,48.414188 119.424469,50.005348 
	C119.424469,50.005348 119.038185,50.163639 118.257629,50.026329 
	C109.835014,54.601204 101.412392,59.176079 92.989777,63.750954 
	C99.215553,66.281288 103.676575,61.380291 116.911011,55.007530 
	C121.270096,53.939610 125.629181,52.871689 130.756241,51.963284 
M155.978104,60.097874 
	C150.594116,59.402302 145.225555,58.519188 139.820953,58.073982 
	C135.911102,57.751915 131.953384,58.011154 128.017014,58.011154 
	C128.014526,58.603035 128.012024,59.194916 128.009537,59.786797 
	C130.331223,60.131714 132.652924,60.476631 135.772552,60.969292 
	C141.673096,62.313354 147.524826,63.987881 153.493668,64.869553 
	C156.739807,65.349045 156.972977,64.520752 155.978104,60.097874 
M159.860580,92.995895 
	C160.911453,92.064903 162.534744,91.320175 162.909302,90.169106 
	C164.198059,86.208618 165.050186,82.106041 166.786148,77.658752 
	C166.400192,72.471191 169.320541,67.072937 166.390152,61.920738 
	C159.831375,64.593391 162.492737,69.741470 162.007492,74.681442 
	C160.678467,80.184624 159.349426,85.687805 157.335464,91.269081 
	C157.256134,92.366570 157.176804,93.464050 157.016907,95.676254 
	C158.193100,94.192352 158.639175,93.629570 159.860580,92.995895 
M165.304657,119.247551 
	C165.859726,118.576714 166.903488,117.896690 166.891083,117.236511 
	C166.806473,112.736618 166.700348,108.217934 166.189148,103.752480 
	C165.883591,101.083336 160.237381,97.825737 158.086899,99.216118 
	C156.715363,100.102882 156.371887,102.579727 156.060776,103.261932 
	C159.119873,104.013412 161.143295,104.510468 163.010971,105.894493 
	C163.075333,108.587837 163.139679,111.281181 163.080078,114.609894 
	C163.040161,115.039467 163.000244,115.469032 162.356110,116.140617 
	C162.299866,116.756378 162.243622,117.372147 162.053253,118.641685 
	C162.000900,119.082779 161.948547,119.523865 161.254242,120.270424 
	C160.367691,124.859116 154.648270,128.001724 157.005066,134.280869 
	C161.755234,130.164185 164.760284,125.833130 165.304657,119.247551 
M101.079559,37.010975 
	C95.388504,36.931431 90.885216,39.215424 87.225052,43.177128 
	C87.428604,43.654819 87.632164,44.132511 87.835724,44.610203 
	C93.130173,42.563557 98.424629,40.516907 103.934555,38.386971 
	C103.176453,37.879570 102.536140,37.451012 101.079559,37.010975 
z"/>
<path fill="#C4993A" opacity="1.000000" stroke="none" 
	d="
M139.043320,183.137039 
	C139.043320,183.137039 138.998413,183.563293 138.743042,183.916855 
	C138.273514,184.508789 138.118301,184.780792 138.022064,185.086426 
	C138.022064,185.086426 138.006180,185.007950 137.821716,185.139862 
	C137.429291,185.543884 137.221344,185.815994 137.013397,186.088104 
	C137.013397,186.088104 137.005524,186.005661 136.822052,186.138580 
	C136.430283,186.543442 136.222000,186.815384 136.013718,187.087326 
	C136.013718,187.087326 136.005035,187.005844 135.821182,187.141693 
	C135.430923,187.554398 135.224503,187.831253 135.018082,188.108093 
	C135.018082,188.108093 135.006226,188.011185 134.849121,188.114716 
	C134.423584,188.372513 134.206467,188.580338 134.040649,188.841766 
	C133.586655,188.889420 133.132660,188.937088 132.339981,188.594513 
	C131.839127,187.413132 131.953430,186.300720 131.469116,185.883896 
	C128.700226,183.500916 125.788933,181.283371 122.044601,178.309616 
	C120.381889,180.147598 118.179695,182.613174 115.936577,185.040924 
	C115.326866,185.700821 114.533211,186.816727 113.927025,186.752380 
	C109.969429,186.332306 106.055420,185.482513 102.095467,185.111328 
	C99.995064,184.914444 97.349312,184.679291 95.795906,185.722000 
	C92.559013,187.894730 89.511139,188.375565 85.816620,186.788422 
	C85.968666,185.923676 86.143929,184.994125 86.684250,184.666321 
	C92.088013,181.387894 97.551872,178.208527 103.064949,175.356522 
	C104.748413,176.293274 106.617859,177.692383 107.930954,177.287415 
	C110.736755,176.422150 113.517265,174.826569 113.337143,170.973358 
	C114.097572,170.973831 114.531952,170.974014 115.301353,171.064026 
	C117.786797,174.546082 119.749046,176.019241 123.459465,172.332260 
	C126.784561,169.028137 131.114044,166.734787 135.177826,164.291962 
	C139.769775,169.402252 142.033813,165.420746 145.029648,160.928192 
	C145.527618,163.495880 145.780197,164.798264 146.032776,166.100647 
	C146.032791,166.100647 145.971848,166.581314 145.688080,167.018982 
	C144.611816,168.308929 143.819336,169.161224 142.607300,170.008453 
	C140.792999,170.001144 139.398239,169.998901 138.001740,169.998337 
	C138.000000,170.000000 138.001938,169.997955 137.873169,169.795746 
	C137.540237,169.340210 137.291901,169.142273 136.624603,168.999893 
	C135.500244,168.999603 134.750687,168.999191 133.955811,168.903458 
	C133.910522,168.808136 133.659225,168.792801 133.659225,168.792801 
	C133.659225,168.792801 133.998779,169.001129 133.999084,169.418243 
	C132.994446,173.996811 131.989532,178.158264 130.984619,182.319717 
	C131.533707,182.562546 132.082779,182.805374 132.631866,183.048203 
	C133.421188,182.033966 134.210526,181.019730 135.318649,180.049194 
	C136.744431,180.716766 137.851395,181.340622 138.978180,182.257736 
	C139.013092,182.746338 139.028198,182.941681 139.043320,183.137039 
z"/>
<path fill="#BF9537" opacity="1.000000" stroke="none" 
	d="
M86.009277,187.002869 
	C89.511139,188.375565 92.559013,187.894730 95.795906,185.722000 
	C97.349312,184.679291 99.995064,184.914444 102.095467,185.111328 
	C106.055420,185.482513 109.969429,186.332306 113.927025,186.752380 
	C114.533211,186.816727 115.326866,185.700821 115.936577,185.040924 
	C118.179695,182.613174 120.381889,180.147598 122.044601,178.309616 
	C125.788933,181.283371 128.700226,183.500916 131.469116,185.883896 
	C131.953430,186.300720 131.839127,187.413132 132.003387,188.521683 
	C127.593163,188.766235 125.429451,192.206802 122.088348,194.776123 
	C118.944046,193.537476 117.961151,194.548187 118.042511,197.111267 
	C115.960480,198.083069 113.878448,199.054871 111.461411,199.773163 
	C112.766319,198.146729 114.710350,196.991333 115.914993,195.307098 
	C116.497879,194.492142 116.013931,192.505814 115.395721,191.392654 
	C115.022652,190.720901 113.211281,190.185318 112.502426,190.529144 
	C111.600998,190.966385 111.136765,192.340881 110.533241,193.340973 
	C110.236092,193.833389 110.049591,194.392578 109.593193,195.413101 
	C108.011032,194.273285 106.795616,193.397690 105.405434,192.396194 
	C102.414734,196.375183 99.862160,195.662964 97.932518,191.352295 
	C95.105652,194.569122 95.105652,194.569122 99.494858,197.810150 
	C99.322670,199.208923 99.143196,200.666901 98.963722,202.124893 
	C92.210922,200.933487 87.663498,196.406052 83.250763,191.121521 
	C84.189453,189.350723 85.099365,188.176804 86.009277,187.002869 
z"/>
<path fill="#DDB95A" opacity="1.000000" stroke="none" 
	d="
M77.014915,143.148010 
	C77.014915,143.148010 77.406219,142.995651 77.993622,142.991425 
	C79.733246,141.703323 80.885475,140.419418 82.037704,139.135529 
	C82.037704,139.135529 82.411018,138.983383 82.982643,138.955078 
	C86.701553,137.012741 89.848839,135.098709 92.996124,133.184677 
	C96.640160,133.565964 100.534950,131.376923 104.007858,134.710129 
	C104.636513,135.313492 107.437775,133.653183 109.656052,133.398834 
	C109.039742,136.874298 108.003410,139.988876 106.967072,143.103439 
	C103.050987,144.519699 98.810555,145.384583 95.282310,147.460129 
	C86.273849,152.759521 77.588341,151.245285 68.812515,147.265366 
	C68.365402,147.062607 68.203285,146.231415 67.781326,145.460510 
	C70.475655,145.033401 72.830086,144.660156 75.757179,144.019928 
	C76.617264,143.618210 76.845619,143.416565 77.014915,143.148010 
z"/>
<path fill="#C79E3E" opacity="1.000000" stroke="none" 
	d="
M85.816628,186.788422 
	C85.099365,188.176804 84.189453,189.350723 83.118362,190.814606 
	C81.245323,190.405533 79.582497,189.302063 77.811920,189.087448 
	C73.446945,188.558334 71.149231,185.891647 69.144257,181.832077 
	C68.455299,181.286896 68.198990,181.137192 67.912964,181.038361 
	C67.912964,181.038361 67.985077,181.012070 67.979446,180.640182 
	C67.858223,178.332169 67.742645,176.396027 67.612495,174.215881 
	C69.376076,173.839462 70.875427,173.519440 72.540245,173.164093 
	C72.628128,175.038040 72.685303,176.257263 72.699509,176.560196 
	C77.197510,176.209854 81.321869,175.929382 85.436134,175.541870 
	C86.583397,175.433792 88.214241,175.387207 88.745094,174.666031 
	C91.350533,171.126404 94.142548,172.749329 97.287262,173.959869 
	C98.050400,173.615295 98.524895,173.308243 99.299805,172.933289 
	C99.734009,171.573593 99.867798,170.281769 100.310081,168.962143 
	C101.031471,168.925507 101.444366,168.916687 102.202316,169.011841 
	C102.698761,171.076797 102.850143,173.037781 103.000763,174.999390 
	C103.000000,175.000000 102.998779,175.001221 102.998779,175.001221 
	C97.551872,178.208527 92.088013,181.387894 86.684250,184.666321 
	C86.143929,184.994125 85.968666,185.923676 85.816628,186.788422 
z"/>
<path fill="#C69D3E" opacity="1.000000" stroke="none" 
	d="
M146.353806,166.178619 
	C145.780197,164.798264 145.527618,163.495880 145.029648,160.928192 
	C142.033813,165.420746 139.769775,169.402252 135.308044,163.994293 
	C135.172302,161.926987 135.083817,160.453827 135.140244,158.661865 
	C136.843887,155.859940 138.402634,153.376831 139.961365,150.893707 
	C139.961365,150.893707 139.982300,150.962952 140.292755,150.980499 
	C141.064178,150.995148 141.525146,150.992249 142.363495,151.005096 
	C144.511032,151.615234 146.281219,152.209641 148.051407,152.804031 
	C147.846344,152.282059 147.641296,151.760101 147.436249,151.238144 
	C149.609619,149.832275 151.782990,148.426422 153.968445,147.432587 
	C154.310593,149.886581 154.640671,151.928528 154.986328,154.251114 
	C155.010132,154.718918 155.018372,154.906113 155.026611,155.093292 
	C155.026611,155.093292 154.968491,155.558655 154.581329,155.875549 
	C151.400803,158.446762 150.886398,161.055176 152.970566,164.067368 
	C151.842896,165.817078 150.715225,167.566772 149.294922,169.770569 
	C148.420883,168.598343 147.547867,167.427460 146.353806,166.178619 
z"/>
<path fill="#CCA445" opacity="1.000000" stroke="none" 
	d="
M100.001587,168.989960 
	C99.867798,170.281769 99.734009,171.573593 99.111275,172.748718 
	C98.081100,173.087158 97.539864,173.542267 96.998627,173.997391 
	C94.142548,172.749329 91.350533,171.126404 88.745094,174.666031 
	C88.214241,175.387207 86.583397,175.433792 85.436134,175.541870 
	C81.321869,175.929382 77.197510,176.209854 72.699509,176.560196 
	C72.685303,176.257263 72.628128,175.038040 72.540245,173.164093 
	C70.875427,173.519440 69.376076,173.839462 67.612495,174.215881 
	C67.742645,176.396027 67.858223,178.332169 67.958893,180.672607 
	C66.962494,178.978745 65.980995,176.880600 65.234673,174.168564 
	C65.990288,171.847900 66.195129,169.939102 67.121368,168.492050 
	C68.018944,167.089783 69.723808,165.135590 70.959412,165.214722 
	C74.985619,165.472580 78.949135,166.612045 82.960648,167.265839 
	C83.942696,167.425888 85.015732,167.027664 86.046936,166.886108 
	C86.487122,166.935699 86.927299,166.985291 87.842636,167.281525 
	C88.554672,167.723755 88.818504,167.871017 89.109299,167.969971 
	C89.109299,167.969971 89.033997,167.967819 89.141312,168.307739 
	C92.832947,168.761765 96.417267,168.875870 100.001587,168.989960 
z"/>
<path fill="#D6AF50" opacity="1.000000" stroke="none" 
	d="
M56.963295,165.106384 
	C56.307434,164.015289 55.651577,162.924179 55.145432,161.117767 
	C55.166672,158.069763 54.991966,155.738419 54.924637,153.403992 
	C54.872604,151.599884 54.955124,149.791885 55.303894,147.911591 
	C57.421291,145.892014 59.212620,143.946457 61.238480,142.228058 
	C62.351997,143.292023 63.230988,144.128815 64.109978,144.965622 
	C66.034203,148.360596 67.954735,151.624847 71.995758,153.156952 
	C73.022438,153.546204 73.351570,155.775299 73.644554,157.541626 
	C71.184273,157.448486 69.062965,157.038696 66.981400,156.480682 
	C64.218452,155.739990 62.669113,156.248291 63.341717,159.553253 
	C63.525764,160.457596 63.498394,161.404968 63.538471,161.938721 
	C61.629803,164.376511 57.013390,159.531921 56.963295,165.106384 
z"/>
<path fill="#D0AA4B" opacity="1.000000" stroke="none" 
	d="
M56.989197,165.336258 
	C57.013390,159.531921 61.629803,164.376511 63.538471,161.938721 
	C63.498394,161.404968 63.525764,160.457596 63.341717,159.553253 
	C62.669113,156.248291 64.218452,155.739990 66.981400,156.480682 
	C69.062965,157.038696 71.184273,157.448486 73.691742,157.914612 
	C74.095596,157.904968 74.038963,157.934158 74.134933,158.115784 
	C74.375854,158.575455 74.578201,158.802322 74.837944,158.977982 
	C75.775635,160.270233 76.713326,161.562485 77.834167,163.107147 
	C78.690651,162.515549 79.590851,161.893753 81.026222,160.902283 
	C82.525383,162.597153 84.154602,164.439056 85.915375,166.583527 
	C85.015732,167.027664 83.942696,167.425888 82.960648,167.265839 
	C78.949135,166.612045 74.985619,165.472580 70.959412,165.214722 
	C69.723808,165.135590 68.018944,167.089783 67.121368,168.492050 
	C66.195129,169.939102 65.990288,171.847900 65.186325,173.802185 
	C64.115967,171.842743 63.331043,169.635086 62.524918,167.435196 
	C62.512115,167.400269 62.221893,167.424667 62.091949,167.486328 
	C61.948215,167.554535 61.839996,167.697601 61.147896,167.727600 
	C59.438869,167.100204 58.298248,166.553253 57.157631,166.006302 
	C57.157631,166.006302 57.015102,165.566132 56.989197,165.336258 
M66.753906,159.680267 
	C67.511711,160.033752 68.269516,160.387253 69.027313,160.740753 
	C69.123032,160.321335 69.218742,159.901917 69.314461,159.482498 
	C68.598785,159.418655 67.883118,159.354813 66.753906,159.680267 
M63.508118,165.460480 
	C63.508118,165.460480 63.531712,165.514633 63.508118,165.460480 
z"/>
<path fill="#D6B051" opacity="1.000000" stroke="none" 
	d="
M107.109741,143.425140 
	C108.003410,139.988876 109.039742,136.874298 110.036736,133.464172 
	C112.412537,133.450851 114.827682,133.733093 117.743004,134.425323 
	C120.534904,135.869095 122.826614,136.902908 125.118332,137.936707 
	C125.118332,137.936707 125.042809,137.948837 125.023209,138.268829 
	C125.001015,139.066162 124.998436,139.543518 124.778015,140.270905 
	C122.363945,143.380203 120.167702,146.239456 117.971466,149.098724 
	C114.398453,147.314758 110.825432,145.530792 107.109741,143.425140 
z"/>
<path fill="#ECD179" opacity="1.000000" stroke="none" 
	d="
M48.029869,62.130383 
	C48.029869,62.130383 47.962536,62.552246 47.537037,62.903957 
	C47.344772,67.836143 47.578007,72.416626 47.811237,76.997101 
	C47.811237,76.997101 47.963207,77.433182 47.987030,77.995644 
	C48.277882,79.374687 48.544907,80.191261 48.811928,81.007843 
	C48.863632,81.737259 48.915337,82.466675 49.012291,83.847061 
	C49.307064,84.997353 49.556591,85.496689 49.806118,85.996017 
	C49.862675,86.418846 49.919231,86.841667 49.992966,87.878075 
	C48.972240,89.675751 47.934345,90.859848 46.896446,92.043945 
	C42.264469,80.087822 40.028118,67.955963 44.872375,55.137016 
	C46.338524,54.606419 47.137249,54.292465 48.231995,54.020191 
	C49.018608,54.373398 49.509197,54.684921 50.002991,55.271545 
	C50.015560,55.729824 50.024925,55.912998 50.034294,56.096176 
	C50.034294,56.096176 49.970257,56.533615 49.717690,56.900726 
	C49.246540,57.508492 49.096493,57.786171 49.014969,58.100880 
	C49.014969,58.100880 48.949856,58.546528 48.631287,58.836418 
	C48.218433,60.127670 48.124153,61.129025 48.029869,62.130383 
z"/>
<path fill="#BD9333" opacity="1.000000" stroke="none" 
	d="
M99.145370,202.429855 
	C99.143196,200.666901 99.322670,199.208923 99.494858,197.810150 
	C95.105652,194.569122 95.105652,194.569122 97.932518,191.352295 
	C99.862160,195.662964 102.414734,196.375183 105.405434,192.396194 
	C106.795616,193.397690 108.011032,194.273285 109.593193,195.413101 
	C110.049591,194.392578 110.236092,193.833389 110.533241,193.340973 
	C111.136765,192.340881 111.600998,190.966385 112.502426,190.529144 
	C113.211281,190.185318 115.022652,190.720901 115.395721,191.392654 
	C116.013931,192.505814 116.497879,194.492142 115.914993,195.307098 
	C114.710350,196.991333 112.766319,198.146729 111.082275,199.815033 
	C108.608681,204.828934 105.304527,205.569382 99.145370,202.429855 
z"/>
<path fill="#F2E095" opacity="1.000000" stroke="none" 
	d="
M67.883827,25.954601 
	C74.294815,20.320877 82.260216,17.595713 90.303284,17.277651 
	C100.891891,16.858927 111.557922,18.355160 122.185776,19.097818 
	C122.718704,19.135059 123.205360,19.834368 123.482849,20.589386 
	C114.536942,19.969296 105.822563,18.977903 97.106102,18.005226 
	C94.158714,17.676323 92.662148,18.893330 93.004089,22.193977 
	C92.999474,22.404943 92.993973,22.826942 92.993973,22.826942 
	C84.545395,23.509197 76.895386,26.461611 69.458466,30.698332 
	C68.706924,28.925100 68.295372,27.439852 67.883827,25.954601 
M80.775230,23.002935 
	C84.273659,22.194433 87.772087,21.385929 91.270515,20.577427 
	C91.110580,20.024975 90.950645,19.472523 90.790710,18.920071 
	C87.167343,20.197536 82.670242,18.637142 79.797707,23.086447 
	C79.797707,23.086447 79.783333,23.351158 79.783333,23.351158 
	C79.783333,23.351158 80.003067,23.004087 80.775230,23.002935 
M73.394981,25.836506 
	C74.765297,25.357307 76.135612,24.878111 77.505928,24.398912 
	C77.237045,23.889454 76.968155,23.379995 76.699265,22.870539 
	C75.445747,23.725761 74.192223,24.580986 73.394981,25.836506 
z"/>
<path fill="#D8BB69" opacity="1.000000" stroke="none" 
	d="
M154.123413,87.969528 
	C154.409256,94.423325 154.821686,100.874733 154.944260,107.331635 
	C155.059937,113.425591 154.870667,119.525345 154.141022,125.865189 
	C152.375946,126.406227 151.285370,126.704620 150.194794,127.003014 
	C150.475403,116.839493 150.813019,106.676933 150.985291,96.511574 
	C151.017197,94.629326 150.382019,92.735764 150.393066,90.244171 
	C151.862076,89.083778 152.992752,88.526649 154.123413,87.969528 
z"/>
<path fill="#CFA94A" opacity="1.000000" stroke="none" 
	d="
M118.103241,149.362030 
	C120.167702,146.239456 122.363945,143.380203 125.108002,140.405701 
	C126.807549,140.506744 127.959282,140.723038 129.111008,140.939331 
	C129.111008,140.939346 129.038956,140.977737 129.146729,141.173004 
	C129.533066,141.576965 129.811630,141.785660 130.090179,141.994370 
	C130.090179,141.994370 130.004532,141.998245 130.141968,142.189529 
	C130.580170,142.578949 130.880936,142.777069 131.181702,142.975204 
	C131.181702,142.975204 131.607925,143.000778 131.956863,143.261536 
	C132.555817,143.715775 132.827652,143.871017 133.121307,143.988068 
	C133.121307,143.988068 133.007294,144.001450 133.148132,144.168518 
	C133.567184,144.557236 133.845398,144.778885 134.123611,145.000519 
	C134.123611,145.000519 133.991913,144.997116 134.139069,145.135071 
	C134.844330,145.235107 135.402420,145.197174 135.960510,145.159241 
	C137.242447,145.159256 138.524384,145.159256 139.806320,145.159256 
	C139.999466,145.696625 140.192612,146.234009 140.385773,146.771378 
	C137.625854,147.843445 134.928024,149.569336 132.091904,149.838577 
	C127.520882,150.272491 122.858696,149.746063 118.103241,149.362030 
z"/>
<path fill="#E1CB7C" opacity="1.000000" stroke="none" 
	d="
M46.953712,92.437012 
	C47.934345,90.859848 48.972240,89.675751 50.021988,88.197647 
	C50.907253,90.755959 51.780670,93.608284 52.609341,96.314468 
	C55.463867,92.147652 52.553757,85.331261 59.160240,80.789940 
	C58.705318,88.473129 58.330811,94.798195 57.673485,101.891342 
	C56.551144,104.786911 55.711620,106.914391 54.872101,109.041878 
	C54.512333,106.149277 54.152565,103.256668 53.209480,99.984360 
	C52.062584,99.398163 51.499004,99.191666 50.935425,98.985168 
	C50.522644,98.322281 50.116611,97.655083 49.695679,96.997421 
	C48.804893,95.605667 47.906342,94.218895 46.953712,92.437012 
M56.633068,96.272545 
	C56.306347,97.574593 55.979626,98.876633 55.652905,100.178680 
	C55.968494,100.237709 56.284084,100.296738 56.599670,100.355759 
	C56.703667,99.143494 56.807659,97.931229 56.633068,96.272545 
M50.446697,94.549271 
	C49.875095,94.321030 49.303493,94.092781 48.731892,93.864540 
	C48.655739,94.125481 48.579586,94.386414 48.503437,94.647346 
	C49.169418,94.763634 49.835396,94.879913 50.446697,94.549271 
z"/>
<path fill="#CCA445" opacity="1.000000" stroke="none" 
	d="
M153.956360,147.020554 
	C151.782990,148.426422 149.609619,149.832275 147.436249,151.238144 
	C147.641296,151.760101 147.846344,152.282059 148.051407,152.804031 
	C146.281219,152.209641 144.511032,151.615234 142.368484,150.661240 
	C141.981445,149.842590 141.966782,149.383545 141.952118,148.924500 
	C141.952118,148.924500 141.982666,148.985504 142.178482,148.847672 
	C142.574905,148.416397 142.775497,148.122955 142.976105,147.829514 
	C142.976105,147.829514 143.019852,147.421005 143.271225,147.074295 
	C143.731506,146.488495 143.884674,146.217865 143.982101,145.915665 
	C143.982101,145.915665 143.984207,145.984787 144.323608,145.874756 
	C145.089417,143.472977 145.515808,141.181229 145.942184,138.889496 
	C145.942184,138.889496 146.014709,138.418701 146.265930,138.043701 
	C146.712341,137.431931 146.864105,137.169983 146.972397,136.882858 
	C146.972397,136.882858 147.010056,136.430771 147.393890,136.166016 
	C150.132523,135.612106 152.487335,135.322952 154.842148,135.033798 
	C154.842148,135.033798 154.990219,135.417206 154.976974,135.907288 
	C154.951462,136.587799 154.939209,136.778198 154.689423,137.296082 
	C154.286682,140.755890 154.121521,143.888229 153.956360,147.020554 
z"/>
<path fill="#F0D479" opacity="1.000000" stroke="none" 
	d="
M93.008698,21.983009 
	C92.662148,18.893330 94.158714,17.676323 97.106102,18.005226 
	C105.822563,18.977903 114.536942,19.969296 123.671844,20.934658 
	C124.091560,20.915949 124.015907,20.939409 124.237076,21.165257 
	C125.590271,21.601849 126.722290,21.812595 127.854309,22.023342 
	C132.726273,24.358936 137.598236,26.694530 142.342361,29.361626 
	C141.130875,29.797800 140.047211,29.902472 138.607147,29.951771 
	C133.137009,28.289198 128.023270,26.681997 122.909523,25.074797 
	C122.909523,25.074797 122.983955,25.074261 122.806709,24.785088 
	C117.083908,23.003397 111.538353,21.510880 105.548264,20.009007 
	C102.071533,20.329279 99.039330,20.658911 95.988800,21.189642 
	C95.970467,21.390743 95.924866,21.792032 95.924866,21.792034 
	C95.529808,21.863253 95.134743,21.934471 94.155884,22.002445 
	C93.384285,21.993805 93.196495,21.988407 93.008698,21.983009 
z"/>
<path fill="#EBD480" opacity="1.000000" stroke="none" 
	d="
M159.869690,43.063324 
	C157.887634,41.805656 155.905594,40.547989 153.179535,38.818230 
	C155.173050,38.239040 156.377121,37.889210 157.051361,37.693314 
	C152.975922,36.749733 148.616043,35.740295 144.478271,34.374634 
	C146.478333,33.676235 148.256271,33.334061 150.425980,32.994560 
	C155.649750,35.307144 161.837341,32.483711 166.079437,37.027473 
	C165.093796,37.970005 164.108154,38.912537 163.450119,39.541798 
	C164.649750,42.826962 165.812805,46.011951 166.681442,49.492672 
	C163.884689,47.866417 165.056992,42.383282 159.869690,43.063324 
z"/>
<path fill="#E0C365" opacity="1.000000" stroke="none" 
	d="
M159.924042,43.445507 
	C165.056992,42.383282 163.884689,47.866417 166.730743,49.882195 
	C169.004639,49.832214 170.934830,49.688438 172.865036,49.544666 
	C172.956589,50.066814 173.048157,50.588966 173.139709,51.111115 
	C169.363785,54.601101 168.534042,61.985390 160.378906,60.592800 
	C163.131516,55.972019 164.474945,51.878555 161.167786,47.478378 
	C160.440201,46.510342 160.357880,45.057354 159.924042,43.445507 
z"/>
<path fill="#EAD078" opacity="1.000000" stroke="none" 
	d="
M49.999786,54.996445 
	C49.509197,54.684921 49.018608,54.373398 48.245651,53.613556 
	C47.959839,52.078289 47.956394,50.991333 47.952950,49.904381 
	C47.952950,49.904381 47.970287,49.975010 48.283970,49.925545 
	C50.055149,48.213455 51.512642,46.550831 52.970139,44.888206 
	C52.970142,44.888206 53.023350,44.445400 53.421619,44.163338 
	C54.968498,42.800293 56.117107,41.719315 57.368664,40.541447 
	C57.618565,42.667103 57.820042,44.380882 58.021519,46.094662 
	C58.339844,49.765095 58.658169,53.435524 58.777054,57.727589 
	C57.683712,58.923206 56.789814,59.497189 55.895920,60.071175 
	C55.895920,60.071175 55.970779,60.048660 55.837067,59.861427 
	C55.424355,59.460007 55.145359,59.245823 54.866360,59.031635 
	C54.866360,59.031635 54.967743,59.030075 54.864929,58.872616 
	C54.621788,58.432442 54.418129,58.206928 54.151142,58.038616 
	C53.610100,56.507969 53.069057,54.977318 52.425793,53.157471 
	C51.972187,53.576477 51.542900,53.973022 50.762901,54.684166 
	C50.412197,54.998772 49.999786,54.996449 49.999786,54.996445 
z"/>
<path fill="#CAA040" opacity="1.000000" stroke="none" 
	d="
M134.995331,158.980652 
	C135.083817,160.453827 135.172302,161.926987 135.130600,163.697830 
	C131.114044,166.734787 126.784561,169.028137 123.459465,172.332260 
	C119.749046,176.019241 117.786797,174.546082 115.576767,170.827972 
	C117.327660,169.295822 119.138168,168.089539 120.948685,166.883255 
	C120.948685,166.883255 120.964493,166.956131 121.300789,166.952698 
	C122.409775,165.937927 123.182465,164.926590 123.955147,163.915237 
	C123.955147,163.915237 123.978973,163.980637 124.161591,163.886139 
	C124.628113,163.636292 124.857841,163.422684 125.033394,163.150818 
	C126.205910,159.627960 129.224991,162.069138 131.849213,161.071365 
	C133.311249,160.267044 134.153290,159.623840 134.995331,158.980652 
z"/>
<path fill="#EAD78E" opacity="1.000000" stroke="none" 
	d="
M116.114388,55.026146 
	C103.676575,61.380291 99.215553,66.281288 92.989777,63.750954 
	C101.412392,59.176079 109.835014,54.601204 118.530724,50.417522 
	C117.037315,51.738113 115.270805,52.667511 112.622986,54.060589 
	C114.427040,54.559505 115.270714,54.792828 116.114388,55.026146 
z"/>
<path fill="#D9BA62" opacity="1.000000" stroke="none" 
	d="
M162.960327,115.898605 
	C163.000244,115.469032 163.040161,115.039467 163.347427,113.967682 
	C163.465424,110.552826 163.316071,107.780182 163.166718,105.007530 
	C161.143295,104.510468 159.119873,104.013412 156.060776,103.261932 
	C156.371887,102.579727 156.715363,100.102882 158.086899,99.216118 
	C160.237381,97.825737 165.883591,101.083336 166.189148,103.752480 
	C166.700348,108.217934 166.806473,112.736618 166.891083,117.236511 
	C166.903488,117.896690 165.859726,118.576714 164.805054,119.616226 
	C163.502380,119.978256 162.699280,119.971603 161.896194,119.964958 
	C161.948547,119.523865 162.000900,119.082779 162.308426,118.097397 
	C162.695847,117.001610 162.828094,116.450104 162.960327,115.898605 
z"/>
<path fill="#EADC96" opacity="1.000000" stroke="none" 
	d="
M79.059395,38.140018 
	C72.397995,43.350498 69.253006,50.185116 69.850090,58.767982 
	C63.531288,55.356060 67.223228,42.621769 76.841278,36.044533 
	C78.033997,36.783783 78.546700,37.461903 79.059395,38.140018 
z"/>
<path fill="#DEBD64" opacity="1.000000" stroke="none" 
	d="
M64.053665,144.572449 
	C63.230988,144.128815 62.351997,143.292023 61.012951,141.967712 
	C58.377201,139.992722 56.201504,138.505264 54.018364,136.665970 
	C54.000637,135.844910 53.990349,135.375671 53.980061,134.906433 
	C54.003727,134.173279 54.027390,133.440125 54.326286,132.081604 
	C55.250683,129.899887 55.899849,128.343521 56.765213,126.268822 
	C58.097363,128.936783 59.095356,130.935516 60.093353,132.934250 
	C61.957760,136.487106 66.777969,139.013794 64.053665,144.572449 
z"/>
<path fill="#E2CE85" opacity="1.000000" stroke="none" 
	d="
M60.059135,132.504333 
	C59.095356,130.935516 58.097363,128.936783 56.765213,126.268822 
	C55.899849,128.343521 55.250683,129.899887 54.408360,131.724091 
	C54.467533,124.648376 54.719868,117.304810 54.922150,109.501556 
	C55.711620,106.914391 56.551144,104.786911 57.596336,102.345291 
	C58.542976,112.045570 59.283947,122.059982 60.059135,132.504333 
z"/>
<path fill="#DCBC61" opacity="1.000000" stroke="none" 
	d="
M158.020386,91.190987 
	C159.349426,85.687805 160.678467,80.184624 162.367203,74.262177 
	C163.374725,73.304237 164.022522,72.765572 164.508820,72.361206 
	C165.059647,74.372787 165.564148,76.215195 166.068665,78.057602 
	C165.050186,82.106041 164.198059,86.208618 162.909302,90.169106 
	C162.534744,91.320175 160.911453,92.064903 159.250763,92.859009 
	C158.434082,92.211746 158.227234,91.701370 158.020386,91.190987 
z"/>
<path fill="#E4C367" opacity="1.000000" stroke="none" 
	d="
M156.106705,60.951523 
	C156.972977,64.520752 156.739807,65.349045 153.493668,64.869553 
	C147.524826,63.987881 141.673096,62.313354 135.506577,60.548660 
	C136.576477,59.780853 137.944366,59.046272 139.242691,59.153538 
	C144.875107,59.618874 150.487213,60.329849 156.106705,60.951523 
z"/>
<path fill="#E0C26C" opacity="1.000000" stroke="none" 
	d="
M46.831829,117.997864 
	C48.340618,121.630569 49.888813,125.247650 51.338516,128.903793 
	C51.906128,130.335297 52.252800,131.854416 52.116161,133.514053 
	C45.848797,129.270172 43.043266,123.312378 43.005325,116.099884 
	C44.487183,115.968445 45.289310,115.958649 46.091434,115.948853 
	C46.091434,115.948853 46.021599,115.983864 46.044739,116.236748 
	C46.322525,116.992378 46.577179,117.495117 46.831829,117.997864 
z"/>
<path fill="#E2C878" opacity="1.000000" stroke="none" 
	d="
M166.427399,77.858177 
	C165.564148,76.215195 165.059647,74.372787 164.508820,72.361206 
	C164.022522,72.765572 163.374725,73.304237 162.440857,73.907089 
	C162.492737,69.741470 159.831375,64.593391 166.390152,61.920738 
	C169.320541,67.072937 166.400192,72.471191 166.427399,77.858177 
z"/>
<path fill="#CAAE63" opacity="1.000000" stroke="none" 
	d="
M161.575226,120.117691 
	C162.699280,119.971603 163.502380,119.978256 164.707214,119.979889 
	C164.760284,125.833130 161.755234,130.164185 157.005066,134.280869 
	C154.648270,128.001724 160.367691,124.859116 161.575226,120.117691 
z"/>
<path fill="#EBD480" opacity="1.000000" stroke="none" 
	d="
M67.563370,26.084610 
	C68.295372,27.439852 68.706924,28.925100 69.095268,30.748318 
	C69.072060,31.086285 69.046501,31.022562 68.859100,31.157269 
	C68.454063,31.557898 68.236420,31.823820 68.018776,32.089745 
	C66.894493,33.319229 65.770210,34.548714 64.079498,35.796883 
	C61.966949,35.194263 60.420826,34.572952 58.874702,33.951637 
	C61.664101,31.372633 64.453499,28.793627 67.563370,26.084610 
z"/>
<path fill="#E9CE80" opacity="1.000000" stroke="none" 
	d="
M46.040070,115.496765 
	C45.289310,115.958649 44.487183,115.968445 43.284237,115.966507 
	C42.249527,110.271599 39.815865,104.434280 44.670822,99.540527 
	C45.726620,100.939041 46.430981,101.988213 47.135338,103.037392 
	C46.753128,107.039818 46.370918,111.042252 46.040070,115.496765 
z"/>
<path fill="#ECD889" opacity="1.000000" stroke="none" 
	d="
M58.558281,34.088394 
	C60.420826,34.572952 61.966949,35.194263 63.787331,35.918289 
	C62.274746,39.273857 60.487904,42.526707 58.361290,45.937111 
	C57.820042,44.380882 57.618565,42.667103 57.368664,40.541447 
	C56.117107,41.719315 54.968498,42.800293 53.491756,43.951660 
	C54.856369,40.756413 56.549114,37.490780 58.558281,34.088394 
z"/>
<path fill="#EEE097" opacity="1.000000" stroke="none" 
	d="
M101.487694,37.016712 
	C102.536140,37.451012 103.176453,37.879570 103.934555,38.386971 
	C98.424629,40.516907 93.130173,42.563557 87.835724,44.610203 
	C87.632164,44.132511 87.428604,43.654819 87.225052,43.177128 
	C90.885216,39.215424 95.388504,36.931431 101.487694,37.016712 
z"/>
<path fill="#F0D479" opacity="1.000000" stroke="none" 
	d="
M116.512695,55.016838 
	C115.270714,54.792828 114.427040,54.559505 112.622986,54.060589 
	C115.270805,52.667511 117.037315,51.738113 118.921005,50.486176 
	C119.038185,50.163639 119.424469,50.005348 120.097122,49.999748 
	C123.758659,49.999184 126.748138,49.986206 129.733917,50.084805 
	C129.837524,50.088223 129.904312,51.205601 129.988266,51.803772 
	C125.629181,52.871689 121.270096,53.939610 116.512695,55.016838 
z"/>
<path fill="#EAD078" opacity="1.000000" stroke="none" 
	d="
M156.042404,60.524696 
	C150.487213,60.329849 144.875107,59.618874 139.242691,59.153538 
	C137.944366,59.046272 136.576477,59.780853 135.107605,60.474792 
	C132.652924,60.476631 130.331223,60.131714 128.009537,59.786797 
	C128.012024,59.194916 128.014526,58.603035 128.017014,58.011154 
	C131.953384,58.011154 135.911102,57.751915 139.820953,58.073982 
	C145.225555,58.519188 150.594116,59.402302 156.042404,60.524696 
z"/>
<path fill="#EAD78E" opacity="1.000000" stroke="none" 
	d="
M166.419556,36.849159 
	C161.837341,32.483711 155.649750,35.307144 150.413208,32.994610 
	C150.008652,32.991985 150.008774,32.973927 150.006958,32.673222 
	C150.001022,31.971327 149.996887,31.570139 149.992767,31.168949 
	C155.820877,31.573744 161.648987,31.978540 168.149658,32.430050 
	C167.686325,33.843632 167.222992,35.257236 166.419556,36.849159 
z"/>
<path fill="#DECC81" opacity="1.000000" stroke="none" 
	d="
M154.059509,87.569748 
	C152.992752,88.526649 151.862076,89.083778 150.463211,89.821152 
	C149.529785,85.454651 148.864563,80.907921 148.002365,75.014969 
	C152.285065,78.858719 153.562027,82.792496 154.059509,87.569748 
z"/>
<path fill="#C6AC5B" opacity="1.000000" stroke="none" 
	d="
M120.568413,166.943130 
	C119.138168,168.089539 117.327660,169.295822 115.241737,170.738159 
	C114.531952,170.974014 114.097572,170.973831 113.102554,170.746429 
	C111.698769,170.344315 110.855621,170.169373 109.843109,169.698669 
	C107.138504,167.943802 104.603279,166.484695 101.777313,165.009933 
	C101.292824,164.982376 101.099083,164.970474 100.905334,164.958588 
	C103.127441,161.501907 105.816925,162.094177 108.135063,164.554703 
	C113.332718,170.071625 113.465958,170.205994 120.568413,166.943130 
z"/>
<path fill="#D0B058" opacity="1.000000" stroke="none" 
	d="
M154.904144,134.651733 
	C152.487335,135.322952 150.132523,135.612106 147.459229,135.948792 
	C148.109009,133.233932 149.077271,130.471542 150.120178,127.356079 
	C151.285370,126.704620 152.375946,126.406227 153.806305,126.083748 
	C154.146072,126.059662 154.074722,126.456161 153.920624,126.976837 
	C154.099106,128.989075 154.431686,130.480637 154.764267,131.972198 
	C154.831558,132.738022 154.898834,133.503830 154.904144,134.651733 
z"/>
<path fill="#EDD897" opacity="1.000000" stroke="none" 
	d="
M96.391907,21.876038 
	C95.924866,21.792032 95.970467,21.390743 96.433174,21.192072 
	C99.928185,20.668388 102.960495,20.343376 105.992798,20.018364 
	C111.538353,21.510880 117.083908,23.003397 122.803276,24.822144 
	C114.271042,24.085600 105.564987,23.022821 96.391907,21.876038 
z"/>
<path fill="#D9BE74" opacity="1.000000" stroke="none" 
	d="
M53.606560,135.139252 
	C53.990349,135.375671 54.000637,135.844910 54.012764,137.094482 
	C54.335674,141.245087 54.656746,144.615356 54.977821,147.985626 
	C54.955124,149.791885 54.872604,151.599884 54.924637,153.403992 
	C54.991966,155.738419 55.166672,158.069763 55.141998,160.768936 
	C51.676575,152.733490 53.228374,144.000061 53.606560,135.139252 
z"/>
<path fill="#E1CC6F" opacity="1.000000" stroke="none" 
	d="
M47.529091,103.020500 
	C46.430981,101.988213 45.726620,100.939041 45.025173,99.525131 
	C46.715214,99.110764 48.402340,99.061119 50.512447,98.998322 
	C51.499004,99.191666 52.062584,99.398163 52.823166,99.837448 
	C52.926212,101.318886 52.832264,102.567528 52.718014,104.085960 
	C50.905582,103.676865 49.414211,103.340240 47.529091,103.020500 
z"/>
<path fill="#EACF6F" opacity="1.000000" stroke="none" 
	d="
M150.021423,32.991936 
	C148.256271,33.334061 146.478333,33.676235 144.290955,34.030251 
	C142.827927,33.697945 141.774338,33.353798 140.231018,32.743896 
	C139.477432,32.269051 139.182739,32.121586 138.857208,32.035748 
	C138.857208,32.035748 138.949921,32.049675 138.960419,31.739899 
	C138.968475,30.955795 138.966019,30.481468 138.963562,30.007141 
	C140.047211,29.902472 141.130875,29.797800 142.547958,29.687332 
	C144.064026,30.095974 145.246658,30.510414 146.939255,31.255684 
	C148.302399,32.048985 149.155594,32.511456 150.008774,32.973927 
	C150.008774,32.973927 150.008652,32.991985 150.021423,32.991936 
z"/>
<path fill="#BFA252" opacity="1.000000" stroke="none" 
	d="
M143.026840,170.013504 
	C143.819336,169.161224 144.611816,168.308929 145.614075,167.249649 
	C146.911987,172.922791 143.381378,177.196213 140.353210,181.885391 
	C140.004181,182.004944 139.946823,181.945465 139.969406,181.567810 
	C141.003601,177.464600 142.015213,173.739044 143.026840,170.013504 
z"/>
<path fill="#F2E095" opacity="1.000000" stroke="none" 
	d="
M138.607147,29.951771 
	C138.966019,30.481468 138.968475,30.955795 138.949463,31.785477 
	C133.700348,30.011330 128.472702,27.881824 123.077286,25.413559 
	C128.023270,26.681997 133.137009,28.289198 138.607147,29.951771 
z"/>
<path fill="#EADC96" opacity="1.000000" stroke="none" 
	d="
M56.034237,60.384346 
	C56.789814,59.497189 57.683712,58.923206 58.832481,58.141663 
	C60.876492,60.233616 62.665634,62.533123 64.454773,64.832634 
	C64.049652,65.250526 63.644531,65.668419 63.239410,66.086319 
	C60.883793,64.290047 58.528172,62.493782 56.034237,60.384346 
z"/>
<path fill="#CAAE63" opacity="1.000000" stroke="none" 
	d="
M100.589142,165.104065 
	C101.099083,164.970474 101.292824,164.982376 101.749657,165.398682 
	C101.960915,166.838028 101.909088,167.872940 101.857262,168.907867 
	C101.444366,168.916687 101.031471,168.925507 100.310081,168.962158 
	C96.417267,168.875870 92.832947,168.761765 89.145142,168.270264 
	C93.302078,169.207001 97.418167,169.907883 100.589142,165.104065 
z"/>
<path fill="#EDE5A2" opacity="1.000000" stroke="none" 
	d="
M79.331619,38.027630 
	C78.546700,37.461903 78.033997,36.783783 77.190643,36.025661 
	C79.818359,33.732197 82.470695,30.620255 87.692253,32.530693 
	C85.610077,33.577778 84.216057,34.278809 82.239532,35.134964 
	C81.454666,35.564777 81.252312,35.839466 81.049957,36.114159 
	C80.567924,36.714520 80.085884,37.314880 79.331619,38.027630 
z"/>
<path fill="#EAD78E" opacity="1.000000" stroke="none" 
	d="
M130.372253,51.883530 
	C129.904312,51.205601 129.837524,50.088223 129.733917,50.084805 
	C126.748138,49.986206 123.758659,49.999184 120.304878,49.979603 
	C125.609749,48.414188 131.285736,47.820446 137.626419,51.963284 
	C134.623993,51.963284 132.690125,51.963284 130.372253,51.883530 
z"/>
<path fill="#DECB8E" opacity="1.000000" stroke="none" 
	d="
M47.888935,76.537636 
	C47.578007,72.416626 47.344772,67.836143 47.465225,63.105122 
	C47.868153,67.329109 47.917393,71.703636 47.888935,76.537636 
z"/>
<path fill="#C6AB5F" opacity="1.000000" stroke="none" 
	d="
M135.140244,158.661865 
	C134.153290,159.623840 133.311249,160.267044 132.146179,160.944397 
	C134.622421,157.897812 133.644791,152.016571 139.592743,150.945465 
	C138.402634,153.376831 136.843887,155.859940 135.140244,158.661865 
z"/>
<path fill="#DECC81" opacity="1.000000" stroke="none" 
	d="
M92.617516,133.115204 
	C89.848839,135.098709 86.701553,137.012741 83.184189,138.952240 
	C85.955704,137.000381 89.097305,135.023056 92.617516,133.115204 
z"/>
<path fill="#C2A75E" opacity="1.000000" stroke="none" 
	d="
M154.926971,136.968597 
	C154.939209,136.778198 154.951462,136.587799 154.992493,136.112213 
	C155.263962,142.085052 155.506653,148.343079 155.387970,154.847198 
	C155.018372,154.906113 155.010132,154.718918 154.992294,153.787109 
	C154.964127,147.684525 154.945541,142.326569 154.926971,136.968597 
z"/>
<path fill="#C2A75E" opacity="1.000000" stroke="none" 
	d="
M153.295380,163.848282 
	C150.886398,161.055176 151.400803,158.446762 154.502655,156.096466 
	C154.414154,158.543365 154.017181,161.086288 153.295380,163.848282 
z"/>
<path fill="#D9BE74" opacity="1.000000" stroke="none" 
	d="
M124.969101,137.616974 
	C122.826614,136.902908 120.534904,135.869095 118.146057,134.517242 
	C120.305916,135.231873 122.562897,136.264557 124.969101,137.616974 
z"/>
<path fill="#EBDA94" opacity="1.000000" stroke="none" 
	d="
M52.619957,44.945496 
	C51.512642,46.550831 50.055149,48.213455 48.248726,49.916588 
	C49.356457,48.305660 50.813118,46.654221 52.619957,44.945496 
z"/>
<path fill="#D6AF50" opacity="1.000000" stroke="none" 
	d="
M57.182121,166.344467 
	C58.298248,166.553253 59.438869,167.100204 60.843822,167.847824 
	C61.012192,168.837448 60.916229,169.626404 60.708282,171.336029 
	C59.258709,169.409683 58.232658,168.046158 57.182121,166.344467 
z"/>
<path fill="#C6AB5F" opacity="1.000000" stroke="none" 
	d="
M145.637405,139.025665 
	C145.515808,141.181229 145.089417,143.472977 144.289566,145.868698 
	C144.388290,143.702408 144.860458,141.432114 145.637405,139.025665 
z"/>
<path fill="#EBDA94" opacity="1.000000" stroke="none" 
	d="
M47.634903,50.046577 
	C47.956394,50.991333 47.959839,52.078289 47.949631,53.571877 
	C47.137249,54.292465 46.338524,54.606419 45.216362,54.950470 
	C45.700905,53.383305 46.508881,51.786037 47.634903,50.046577 
z"/>
<path fill="#BD9333" opacity="1.000000" stroke="none" 
	d="
M118.390793,197.054352 
	C117.961151,194.548187 118.944046,193.537476 121.788261,194.912094 
	C120.989037,195.704178 119.864059,196.350815 118.390793,197.054352 
z"/>
<path fill="#DECC81" opacity="1.000000" stroke="none" 
	d="
M81.708206,139.143173 
	C80.885475,140.419418 79.733246,141.703323 78.203308,142.980820 
	C79.009964,141.699890 80.194328,140.425354 81.708206,139.143173 
z"/>
<path fill="#CAAE63" opacity="1.000000" stroke="none" 
	d="
M163.088837,105.451012 
	C163.316071,107.780182 163.465424,110.552826 163.409393,113.650002 
	C163.139679,111.281181 163.075333,108.587837 163.088837,105.451012 
z"/>
<path fill="#D8BB69" opacity="1.000000" stroke="none" 
	d="
M154.837891,131.584122 
	C154.431686,130.480637 154.099106,128.989075 153.918732,127.178253 
	C154.351120,128.304688 154.631302,129.750366 154.837891,131.584122 
z"/>
<path fill="#D9BE74" opacity="1.000000" stroke="none" 
	d="
M128.979126,140.632385 
	C127.959282,140.723038 126.807549,140.506744 125.325836,140.155655 
	C124.998436,139.543518 125.001015,139.066162 125.033745,138.232056 
	C126.325012,138.692032 127.586136,139.508728 128.979126,140.632385 
z"/>
<path fill="#C6AC5B" opacity="1.000000" stroke="none" 
	d="
M123.667122,164.040466 
	C123.182465,164.926590 122.409775,165.937927 121.264160,166.945740 
	C121.720520,166.016708 122.549812,165.091187 123.667122,164.040466 
z"/>
<path fill="#D9BE74" opacity="1.000000" stroke="none" 
	d="
M157.677917,91.230034 
	C158.227234,91.701370 158.434082,92.211746 158.863098,92.894455 
	C158.639175,93.629570 158.193100,94.192352 157.016907,95.676254 
	C157.176804,93.464050 157.256134,92.366570 157.677917,91.230034 
z"/>
<path fill="#EBD480" opacity="1.000000" stroke="none" 
	d="
M150.006958,32.673222 
	C149.155594,32.511456 148.302399,32.048985 147.244568,31.380634 
	C147.780731,31.123528 148.521530,31.072300 149.627548,31.095011 
	C149.996887,31.570139 150.001022,31.971327 150.006958,32.673222 
z"/>
<path fill="#F2E095" opacity="1.000000" stroke="none" 
	d="
M127.802338,21.647680 
	C126.722290,21.812595 125.590271,21.601849 124.227272,21.126884 
	C125.247650,20.999115 126.499001,21.135567 127.802338,21.647680 
z"/>
<path fill="#DECB8E" opacity="1.000000" stroke="none" 
	d="
M48.363201,61.978970 
	C48.124153,61.129025 48.218433,60.127670 48.568314,59.052628 
	C48.781448,59.928478 48.738991,60.878017 48.363201,61.978970 
z"/>
<path fill="#DECB8E" opacity="1.000000" stroke="none" 
	d="
M48.897034,80.655830 
	C48.544907,80.191261 48.277882,79.374687 48.016373,78.224670 
	C48.341972,78.695427 48.662052,79.499619 48.897034,80.655830 
z"/>
<path fill="#C6AB5F" opacity="1.000000" stroke="none" 
	d="
M141.671326,149.025146 
	C141.966782,149.383545 141.981445,149.842590 141.991119,150.645493 
	C141.525146,150.992249 141.064178,150.995148 140.257172,150.973999 
	C140.404266,150.341888 140.897415,149.733841 141.671326,149.025146 
z"/>
<path fill="#CAAE63" opacity="1.000000" stroke="none" 
	d="
M162.658218,116.019608 
	C162.828094,116.450104 162.695847,117.001610 162.375488,117.770508 
	C162.243622,117.372147 162.299866,116.756378 162.658218,116.019608 
z"/>
<path fill="#E9CE80" opacity="1.000000" stroke="none" 
	d="
M46.898540,117.685974 
	C46.577179,117.495117 46.322525,116.992378 46.059368,116.200531 
	C46.355656,116.398979 46.660454,116.886536 46.898540,117.685974 
z"/>
<path fill="#D9BE74" opacity="1.000000" stroke="none" 
	d="
M135.636047,145.091232 
	C135.402420,145.197174 134.844330,145.235107 134.140564,145.069214 
	C134.433777,144.918015 134.872665,144.970627 135.636047,145.091232 
z"/>
<path fill="#E1CB7C" opacity="1.000000" stroke="none" 
	d="
M49.890087,85.683922 
	C49.556591,85.496689 49.307064,84.997353 49.042843,84.212494 
	C49.343449,84.408592 49.658752,84.890205 49.890087,85.683922 
z"/>
<path fill="#DECC81" opacity="1.000000" stroke="none" 
	d="
M76.748398,143.113037 
	C76.845619,143.416565 76.617264,143.618210 76.119850,143.847107 
	C76.100540,143.653534 76.291214,143.365799 76.748398,143.113037 
z"/>
<path fill="#C6AB5F" opacity="1.000000" stroke="none" 
	d="
M142.723297,147.945786 
	C142.775497,148.122955 142.574905,148.416397 142.144501,148.850739 
	C142.099976,148.681793 142.285233,148.371933 142.723297,147.945786 
z"/>
<path fill="#D6AF50" opacity="1.000000" stroke="none" 
	d="
M74.867920,158.716370 
	C74.578201,158.802322 74.375854,158.575455 74.142281,158.084763 
	C74.335068,158.066330 74.616478,158.260544 74.867920,158.716370 
z"/>
<path fill="#F2E095" opacity="1.000000" stroke="none" 
	d="
M138.945587,32.311028 
	C139.182739,32.121586 139.477432,32.269051 139.888947,32.678284 
	C139.702408,32.781055 139.368179,32.683681 138.945587,32.311028 
z"/>
<path fill="#BFA252" opacity="1.000000" stroke="none" 
	d="
M134.299377,188.855865 
	C134.206467,188.580338 134.423584,188.372513 134.897644,188.119888 
	C134.921570,188.304337 134.739853,188.587158 134.299377,188.855865 
z"/>
<path fill="#BFA252" opacity="1.000000" stroke="none" 
	d="
M135.273804,188.012451 
	C135.224503,187.831253 135.430923,187.554398 135.862076,187.144287 
	C135.901062,187.312958 135.715286,187.614899 135.273804,188.012451 
z"/>
<path fill="#BFA252" opacity="1.000000" stroke="none" 
	d="
M136.275177,187.005219 
	C136.222000,186.815384 136.430283,186.543442 136.863327,186.141830 
	C136.904282,186.315811 136.720459,186.619461 136.275177,187.005219 
z"/>
<path fill="#BFA252" opacity="1.000000" stroke="none" 
	d="
M137.274200,186.004944 
	C137.221344,185.815994 137.429291,185.543884 137.861694,185.141815 
	C137.902420,185.315186 137.718704,185.618484 137.274200,186.004944 
z"/>
<path fill="#D0B058" opacity="1.000000" stroke="none" 
	d="
M146.730957,136.977966 
	C146.864105,137.169983 146.712341,137.431931 146.346405,137.819550 
	C146.280289,137.671280 146.384918,137.372192 146.730957,136.977966 
z"/>
<path fill="#BFA252" opacity="1.000000" stroke="none" 
	d="
M138.277740,184.998688 
	C138.118301,184.780792 138.273514,184.508789 138.669067,184.117996 
	C138.744781,184.280701 138.639084,184.595825 138.277740,184.998688 
z"/>
<path fill="#BFA252" opacity="1.000000" stroke="none" 
	d="
M139.282776,183.031616 
	C139.028198,182.941681 139.013092,182.746338 139.225479,182.251175 
	C139.452972,181.951370 139.946823,181.945465 139.946823,181.945465 
	C139.946823,181.945465 140.004181,182.004944 140.032898,182.035492 
	C139.881836,182.352753 139.702042,182.639465 139.282776,183.031616 
z"/>
<path fill="#CCA445" opacity="1.000000" stroke="none" 
	d="
M67.997948,181.280212 
	C68.198990,181.137192 68.455299,181.286896 68.826591,181.657990 
	C68.675163,181.726349 68.379051,181.624191 67.997948,181.280212 
z"/>
<path fill="#EADC96" opacity="1.000000" stroke="none" 
	d="
M81.304764,36.023750 
	C81.252312,35.839466 81.454666,35.564777 81.881790,35.161926 
	C81.924232,35.333626 81.741898,35.633484 81.304764,36.023750 
z"/>
<path fill="#D9BE74" opacity="1.000000" stroke="none" 
	d="
M130.018188,141.722107 
	C129.811630,141.785660 129.533066,141.576965 129.129303,141.136078 
	C129.318130,141.085876 129.632156,141.267853 130.018188,141.722107 
z"/>
<path fill="#D9BE74" opacity="1.000000" stroke="none" 
	d="
M131.069656,142.714249 
	C130.880936,142.777069 130.580170,142.578949 130.140289,142.146698 
	C130.319992,142.092804 130.638794,142.273056 131.069656,142.714249 
z"/>
<path fill="#C6AB5F" opacity="1.000000" stroke="none" 
	d="
M143.725037,146.002899 
	C143.884674,146.217865 143.731506,146.488495 143.346115,146.883011 
	C143.269073,146.722336 143.368515,146.406235 143.725037,146.002899 
z"/>
<path fill="#F2E095" opacity="1.000000" stroke="none" 
	d="
M68.283272,32.011642 
	C68.236420,31.823820 68.454063,31.557898 68.893387,31.155514 
	C68.925964,31.323883 68.736862,31.628712 68.283272,32.011642 
z"/>
<path fill="#D9BE74" opacity="1.000000" stroke="none" 
	d="
M133.025879,143.737106 
	C132.827652,143.871017 132.555817,143.715775 132.154694,143.341797 
	C132.312546,143.269577 132.621506,143.377869 133.025879,143.737106 
z"/>
<path fill="#EDD897" opacity="1.000000" stroke="none" 
	d="
M93.004089,22.193977 
	C93.196495,21.988407 93.384285,21.993805 93.853897,22.018501 
	C93.933983,22.328352 93.732254,22.618906 93.262245,22.868202 
	C92.993973,22.826942 92.999474,22.404943 93.004089,22.193977 
z"/>
<path fill="#DECB8E" opacity="1.000000" stroke="none" 
	d="
M50.002991,55.271549 
	C49.999786,54.996449 50.412197,54.998772 50.618248,54.997925 
	C50.729820,55.304867 50.635338,55.612656 50.287575,56.008308 
	C50.024925,55.912998 50.015560,55.729824 50.002991,55.271549 
z"/>
<path fill="#DECB8E" opacity="1.000000" stroke="none" 
	d="
M49.283489,58.015144 
	C49.096493,57.786171 49.246540,57.508492 49.644234,57.109219 
	C49.732899,57.276867 49.642452,57.603138 49.283489,58.015144 
z"/>
<path fill="#CAAE63" opacity="1.000000" stroke="none" 
	d="
M89.013748,167.727417 
	C88.818504,167.871017 88.554672,167.723755 88.166138,167.358551 
	C88.315727,167.287552 88.616959,167.386200 89.013748,167.727417 
z"/>
<path fill="#D9BE74" opacity="1.000000" stroke="none" 
	d="
M134.023895,144.737122 
	C133.845398,144.778885 133.567184,144.557236 133.141632,144.111481 
	C133.304260,144.082840 133.614212,144.278290 134.023895,144.737122 
z"/>
<path fill="#EADC96" opacity="1.000000" stroke="none" 
	d="
M54.124550,58.302017 
	C54.418129,58.206928 54.621788,58.432442 54.863121,58.923279 
	C54.675404,58.942745 54.386681,58.754082 54.124550,58.302017 
z"/>
<path fill="#EADC96" opacity="1.000000" stroke="none" 
	d="
M54.962524,59.293686 
	C55.145359,59.245823 55.424355,59.460007 55.845093,59.899681 
	C55.677448,59.935356 55.368069,59.745544 54.962524,59.293686 
z"/>
<path fill="#C6AC5B" opacity="1.000000" stroke="none" 
	d="
M124.759476,163.120239 
	C124.857841,163.422684 124.628113,163.636292 124.126785,163.886673 
	C124.101433,163.684372 124.293495,163.387024 124.759476,163.120239 
z"/>
<path fill="#BD9333" opacity="1.000000" stroke="none" 
	d="
M139.969406,181.567810 
	C139.946823,181.945465 139.452972,181.951370 139.205673,181.957932 
	C137.851395,181.340622 136.744431,180.716766 135.331879,179.674393 
	C136.018707,176.169479 137.011078,173.083069 138.003464,169.996674 
	C139.398239,169.998901 140.792999,170.001144 142.607300,170.008453 
	C142.015213,173.739044 141.003601,177.464600 139.969406,181.567810 
z"/>
<path fill="#BF9537" opacity="1.000000" stroke="none" 
	d="
M138.001740,169.998337 
	C137.011078,173.083069 136.018707,176.169479 135.013092,179.630676 
	C134.210526,181.019730 133.421188,182.033966 132.631866,183.048203 
	C132.082779,182.805374 131.533707,182.562546 130.984619,182.319717 
	C131.989532,178.158264 132.994446,173.996811 133.999695,169.417679 
	C134.000000,169.000000 134.001114,168.998779 134.001114,168.998779 
	C134.750687,168.999191 135.500244,168.999603 136.753510,169.201981 
	C137.461304,169.657272 137.709549,169.855286 138.001938,169.997955 
	C138.001938,169.997955 138.000000,170.000000 138.001740,169.998337 
z"/>
<path fill="#C79E3E" opacity="1.000000" stroke="none" 
	d="
M110.012474,169.994446 
	C110.855621,170.169373 111.698769,170.344315 112.776505,170.746155 
	C113.517265,174.826569 110.736755,176.422150 107.930954,177.287415 
	C106.617859,177.692383 104.748413,176.293274 103.064941,175.356506 
	C102.998779,175.001221 103.000000,175.000000 103.377106,174.986465 
	C106.525604,174.174911 109.832733,174.050339 110.012474,169.994446 
z"/>
<path fill="#BD9333" opacity="1.000000" stroke="none" 
	d="
M137.873169,169.795746 
	C137.709549,169.855286 137.461304,169.657272 137.128296,169.201859 
	C137.291901,169.142273 137.540237,169.340210 137.873169,169.795746 
z"/>
<path fill="#BF9537" opacity="1.000000" stroke="none" 
	d="
M133.999390,169.000565 
	C133.998779,169.001129 133.659225,168.792801 133.659225,168.792801 
	C133.659225,168.792801 133.910522,168.808136 133.955811,168.903458 
	C134.001114,168.998779 134.000000,169.000000 133.999390,169.000565 
z"/>
<path fill="#CAA040" opacity="1.000000" stroke="none" 
	d="
M109.843109,169.698669 
	C109.832733,174.050339 106.525604,174.174911 103.377869,174.985855 
	C102.850143,173.037781 102.698761,171.076797 102.202316,169.011826 
	C101.909088,167.872940 101.960915,166.838028 102.040390,165.414368 
	C104.603279,166.484695 107.138504,167.943802 109.843109,169.698669 
z"/>
<path fill="#CAA040" opacity="1.000000" stroke="none" 
	d="
M97.287262,173.959869 
	C97.539864,173.542267 98.081100,173.087158 98.810867,172.816620 
	C98.524895,173.308243 98.050400,173.615295 97.287262,173.959869 
z"/>
<path fill="#D0B058" opacity="1.000000" stroke="none" 
	d="
M154.689423,137.296082 
	C154.945541,142.326569 154.964127,147.684525 154.976730,153.506500 
	C154.640671,151.928528 154.310593,149.886581 153.968445,147.432587 
	C154.121521,143.888229 154.286682,140.755890 154.689423,137.296082 
z"/>
<path fill="#DCB658" opacity="1.000000" stroke="none" 
	d="
M55.303890,147.911591 
	C54.656746,144.615356 54.335674,141.245087 54.020203,137.446304 
	C56.201504,138.505264 58.377201,139.992722 60.778423,141.740540 
	C59.212620,143.946457 57.421291,145.892014 55.303890,147.911591 
z"/>
<path fill="#D6AF50" opacity="1.000000" stroke="none" 
	d="
M66.960678,159.485626 
	C67.883118,159.354813 68.598785,159.418655 69.314461,159.482498 
	C69.218742,159.901917 69.123032,160.321335 69.027313,160.740753 
	C68.269516,160.387253 67.511711,160.033752 66.960678,159.485626 
z"/>
<path fill="#D6AF50" opacity="1.000000" stroke="none" 
	d="
M63.519913,165.487549 
	C63.531712,165.514633 63.508118,165.460480 63.519913,165.487549 
z"/>
<path fill="#F1D67D" opacity="1.000000" stroke="none" 
	d="
M79.995865,22.996929 
	C82.670242,18.637142 87.167343,20.197536 90.790710,18.920071 
	C90.950645,19.472523 91.110580,20.024975 91.270515,20.577427 
	C87.772087,21.385929 84.273659,22.194433 80.387619,23.001469 
	C80.000000,23.000000 79.995865,22.996929 79.995865,22.996929 
z"/>
<path fill="#F1D67D" opacity="1.000000" stroke="none" 
	d="
M73.166840,25.636358 
	C74.192223,24.580986 75.445747,23.725761 76.699265,22.870539 
	C76.968155,23.379995 77.237045,23.889454 77.505928,24.398912 
	C76.135612,24.878111 74.765297,25.357307 73.166840,25.636358 
z"/>
<path fill="#F1D67D" opacity="1.000000" stroke="none" 
	d="
M80.001534,23.002045 
	C80.003067,23.004087 79.783333,23.351158 79.783333,23.351158 
	C79.783333,23.351158 79.797707,23.086447 79.896790,23.041687 
	C79.995865,22.996929 80.000000,23.000000 80.001534,23.002045 
z"/>
<path fill="#E2CE85" opacity="1.000000" stroke="none" 
	d="
M56.772362,96.495750 
	C56.807659,97.931229 56.703667,99.143494 56.599670,100.355759 
	C56.284084,100.296738 55.968494,100.237709 55.652905,100.178680 
	C55.979626,98.876633 56.306347,97.574593 56.772362,96.495750 
z"/>
<path fill="#ECD179" opacity="1.000000" stroke="none" 
	d="
M50.474037,94.772736 
	C49.835396,94.879913 49.169418,94.763634 48.503437,94.647346 
	C48.579586,94.386414 48.655739,94.125481 48.731892,93.864540 
	C49.303493,94.092781 49.875095,94.321030 50.474037,94.772736 
z"/>
<path fill="#F2E095" opacity="1.000000" stroke="none" 
	d="
M105.548264,20.009007 
	C102.960495,20.343376 99.928185,20.668388 96.451508,20.990971 
	C99.039330,20.658911 102.071533,20.329279 105.548264,20.009007 
z"/>
</svg>