<svg version="1.1" id="Layer_1" xmlns="http://www.w3.org/2000/svg" xmlns:xlink="http://www.w3.org/1999/xlink" x="0px" y="0px"
	 width="100%" viewBox="0 0 243 215" enable-background="new 0 0 243 215" xml:space="preserve">
<path fill="#000000" opacity="1.000000" stroke="none" 
	d="
M244.000000,77.000000 
	C244.000000,123.666664 244.000000,169.833328 244.000000,216.000000 
	C163.000000,216.000000 82.000000,216.000000 1.000000,216.000000 
	C1.000000,144.333328 1.000000,72.666664 1.000000,1.000000 
	C82.000000,1.000000 163.000000,1.000000 244.000000,1.000000 
	C244.000000,26.166666 244.000000,51.333332 244.000000,77.000000 
M125.002388,128.001450 
	C125.002388,128.001450 125.001541,127.904594 124.458672,128.062485 
	C124.265823,128.374741 124.072983,128.686996 123.981041,128.973312 
	C123.981041,128.973312 123.951981,128.873260 123.260147,129.001740 
	C122.119347,129.660873 120.978554,130.320023 119.162666,131.297012 
	C117.755203,131.748459 116.347740,132.199921 114.940277,132.651382 
	C117.462914,134.660599 120.107521,135.483795 122.751266,136.309753 
	C128.764328,138.188370 142.358414,133.823914 146.745789,129.000092 
	C148.160950,129.276581 149.576111,129.553070 151.647339,130.138412 
	C156.086014,132.134674 160.524704,134.130951 165.386765,136.802994 
	C167.252792,136.805817 169.118805,136.808640 171.806808,136.958115 
	C176.674881,137.221512 180.360703,135.062073 184.001678,131.154556 
	C180.861679,131.154556 178.429352,131.154556 175.400101,131.024002 
	C174.993225,131.005463 174.586349,130.986908 173.941010,130.464676 
	C173.616302,130.358612 173.291580,130.252533 172.505646,129.947968 
	C172.114838,129.657089 171.724045,129.366196 171.225601,128.993240 
	C171.225601,128.993240 171.100067,129.043839 170.958405,128.570175 
	C170.438278,128.183014 169.918137,127.795845 169.544434,127.367676 
	C169.544434,127.367676 169.516800,127.218140 169.170853,126.760452 
	C168.464203,126.140137 167.757553,125.519829 167.020081,124.971809 
	C167.020081,124.971809 167.093552,124.999733 166.926666,124.468880 
	C166.617828,124.284088 166.309006,124.099304 166.018021,123.981682 
	C166.018021,123.981682 166.080704,123.951668 165.762711,123.313553 
	C163.173157,122.268913 160.583588,121.224266 157.130264,120.021393 
	C153.288742,120.350998 149.451263,120.860039 145.604263,120.946861 
	C143.057205,121.004349 140.496475,120.456474 137.179306,120.043304 
	C134.735794,121.346344 132.292267,122.649384 129.437088,123.985474 
	C129.437088,123.985474 129.050888,124.131844 128.406479,124.105659 
	C127.565269,125.049881 126.724068,125.994095 125.965752,126.974892 
	C125.965752,126.974892 125.998711,126.890495 125.456078,127.054398 
	C125.272568,127.370461 125.089050,127.686531 125.002388,128.001450 
M155.000565,151.002182 
	C155.000565,151.002182 155.092499,150.998123 154.912918,150.478104 
	C154.608765,150.291519 154.304626,150.104919 154.013245,149.988449 
	C154.013245,149.988449 154.082764,149.972839 153.964859,149.209930 
	C150.772232,144.893448 145.530533,144.646317 141.951950,148.489914 
	C140.424988,150.129959 138.569473,151.464111 136.291992,152.962891 
	C135.911011,152.952866 135.530029,152.942841 134.765305,152.274597 
	C132.858582,151.816055 130.951859,151.357529 128.761856,150.259781 
	C125.544189,148.827438 122.326515,147.395081 119.011612,145.192139 
	C117.356110,140.846573 114.871918,137.299423 110.008797,135.236313 
	C108.951988,133.158829 107.895180,131.081360 106.906021,128.457520 
	C106.617363,128.242691 106.328705,128.027847 106.021553,127.405296 
	C106.021553,127.405296 105.866325,127.027847 105.978668,126.250168 
	C104.819344,123.095055 103.660011,119.939934 102.333427,116.329636 
	C101.122917,117.480942 100.262291,117.915482 100.254807,118.364265 
	C100.144485,124.977432 99.871887,131.612289 100.344589,138.191223 
	C100.445267,139.592438 103.355713,140.791779 105.239769,142.707520 
	C106.481140,143.177948 107.722519,143.648361 109.230225,144.736328 
	C110.693443,146.747406 112.156662,148.758469 113.932838,151.348587 
	C114.676216,152.896576 115.419594,154.444580 116.011574,156.729996 
	C113.998184,165.090164 115.477135,171.172379 124.033287,174.802231 
	C127.331161,177.686050 130.735336,180.459015 133.893890,183.488113 
	C136.507523,185.994614 137.448685,184.692230 138.671860,182.203140 
	C139.401718,182.825211 140.131561,183.447281 140.985062,184.768051 
	C142.645767,186.670197 144.400101,188.499786 145.944290,190.492233 
	C148.038925,193.194870 150.257660,192.818878 152.510056,190.913818 
	C153.761505,189.855347 154.748489,188.490814 155.940247,187.353912 
	C159.586227,183.875702 163.273636,180.440918 167.012466,177.714493 
	C167.711472,178.247543 168.912476,179.337448 169.033005,179.228790 
	C170.471832,177.931747 171.750031,176.456528 173.005280,175.012573 
	C173.005280,175.012573 173.006180,175.079376 173.510818,174.883774 
	C173.708862,174.590332 173.906906,174.296890 174.540344,173.876190 
	C174.816925,173.702957 174.973572,173.454193 175.525528,172.929306 
	C175.712509,172.623077 175.899475,172.316833 176.010620,172.011444 
	C176.010620,172.011444 176.013123,172.087250 176.533569,171.918610 
	C176.719604,171.616348 176.905640,171.314087 177.011490,171.010941 
	C177.011490,171.010941 177.012299,171.091141 177.538452,170.925430 
	C177.724960,170.620255 177.911469,170.315079 178.013107,170.017700 
	C178.013107,170.017700 178.023193,170.102310 178.536575,169.923325 
	C178.641983,169.606842 178.747391,169.290359 178.993637,168.588303 
	C178.993637,168.588303 179.034698,168.179855 179.540863,167.949249 
	C179.734802,167.643600 179.928757,167.337952 180.725647,166.680450 
	C181.508575,164.800964 182.291504,162.921478 183.650345,160.785324 
	C185.093597,159.322754 182.924713,153.524506 188.468155,156.771454 
	C188.740463,156.930954 190.565689,155.350250 190.891281,154.331665 
	C191.760208,151.613312 192.205414,148.759521 193.102386,145.413803 
	C193.341095,144.611343 193.579788,143.808884 194.051407,142.476868 
	C194.284103,141.984940 194.516800,141.493027 195.107513,140.332947 
	C196.002792,132.292542 197.824799,124.220512 194.802856,114.785706 
	C191.023972,122.469421 187.956299,128.707031 184.355835,135.138306 
	C183.888184,135.714401 183.420517,136.290482 182.375397,137.133667 
	C181.577484,137.815216 180.779556,138.496765 179.307846,139.243622 
	C178.166199,141.145737 177.024551,143.047867 175.955231,144.964981 
	C175.955231,144.964981 175.942520,144.892227 175.343307,145.187653 
	C170.702820,147.520584 166.118118,149.977875 161.383865,152.101837 
	C160.151291,152.654800 158.452225,152.167923 156.565933,152.015091 
	C156.565933,152.015091 156.141449,151.975082 155.921906,151.466660 
	C155.613403,151.281189 155.304886,151.095718 155.000565,151.002182 
M67.553726,133.935699 
	C67.650879,133.621124 67.748039,133.306534 67.994568,132.560989 
	C67.994568,132.560989 68.042603,132.107407 68.790878,131.991302 
	C69.571938,131.397491 70.352997,130.803680 71.516609,129.919037 
	C69.922226,129.175262 68.909821,128.702972 66.591049,127.621284 
	C70.022392,127.835564 71.995827,127.958794 73.850075,128.670258 
	C74.545334,129.802490 75.240593,130.934723 76.081139,132.557892 
	C76.367424,132.724380 76.653709,132.890884 77.019905,133.769272 
	C78.330086,135.884109 79.640266,137.998932 81.004990,140.877121 
	C83.291504,144.486115 83.785721,147.952209 81.126099,151.786423 
	C79.902649,153.550186 79.512856,155.980301 79.060036,158.173294 
	C77.906609,163.759430 82.697044,171.979584 88.745972,173.977203 
	C92.898895,176.459488 97.260551,177.453339 102.609169,176.174225 
	C106.459877,182.632690 113.932899,186.808426 117.131889,184.920135 
	C114.075363,181.660934 110.937462,178.314972 107.929703,174.200851 
	C109.239365,170.912506 110.385849,167.546387 111.905228,164.357971 
	C113.383415,161.255981 113.576820,158.494095 111.005600,155.189667 
	C110.606789,154.120148 110.207985,153.050629 109.856407,151.448578 
	C109.574448,151.239456 109.292480,151.030334 109.000206,150.454651 
	C109.000206,150.454651 108.842461,150.123627 108.834480,149.422043 
	C104.629791,144.552734 99.454285,142.144989 92.580048,143.004211 
	C92.580048,143.004211 92.199348,142.976410 91.898254,142.360733 
	C90.282417,140.519638 88.666580,138.678543 87.006943,136.416367 
	C87.006943,136.416367 86.844566,136.025421 86.716393,135.296906 
	C85.808250,133.907349 84.816010,132.564697 84.009430,131.118500 
	C82.318558,128.086716 80.725388,125.000450 78.984673,121.471931 
	C78.984673,121.471931 78.808357,121.028831 78.948914,120.362488 
	C78.575417,119.576515 78.201927,118.790543 78.193291,117.314827 
	C79.394516,113.208328 80.595741,109.101830 82.178185,104.268661 
	C83.385979,99.507233 84.593781,94.745796 85.914886,89.505096 
	C85.914886,89.505096 85.784149,89.030281 85.961365,88.326431 
	C86.246902,87.217522 86.532440,86.108620 86.950455,84.234550 
	C86.967110,83.903397 86.925056,83.554245 87.019302,83.246887 
	C87.092453,83.008331 87.335770,82.821953 87.456978,82.670464 
	C90.539886,87.348038 83.994484,93.353699 90.585251,98.915459 
	C91.484406,92.286278 92.416702,86.716454 92.933899,81.108353 
	C93.241928,77.768410 92.897636,74.368301 92.984482,70.108833 
	C92.257423,65.067154 91.530373,60.025475 90.960075,54.139904 
	C90.238075,48.768269 89.516075,43.396633 88.952057,37.161041 
	C88.952057,33.777397 88.952057,30.393757 88.952057,27.010113 
	C88.450539,27.021551 87.949013,27.032990 87.447495,27.044428 
	C83.833054,35.091297 82.777481,43.422512 85.010956,52.751938 
	C85.070755,53.171043 85.130554,53.590145 85.018494,54.782379 
	C85.321831,56.200424 85.625160,57.618469 86.013290,59.760483 
	C85.972282,60.486126 85.931267,61.211769 85.205650,62.283081 
	C83.770096,67.180710 82.334541,72.078331 80.275009,77.242592 
	C79.906441,78.496155 79.537872,79.749710 78.835861,81.694183 
	C77.184761,86.777008 75.533653,91.859833 73.955727,96.970505 
	C73.955727,96.970505 73.934029,96.895271 73.262634,97.246170 
	C72.578392,99.828346 71.894142,102.410530 71.049927,105.458771 
	C71.049927,105.458771 70.925354,105.935516 70.517952,105.965332 
	C70.517952,105.965332 70.109505,105.959862 69.988327,105.309601 
	C69.342186,104.510468 68.696045,103.711327 68.031235,102.982071 
	C68.031235,102.982071 68.100433,102.961014 67.985413,102.309929 
	C67.339180,101.508034 66.692947,100.706139 66.030075,99.974152 
	C66.030075,99.974152 66.100418,99.959412 66.000160,99.262444 
	C65.016365,97.809013 64.032570,96.355591 63.035885,94.973030 
	C63.035885,94.973030 63.106750,94.960114 62.993950,94.306076 
	C62.351131,93.496078 61.708313,92.686089 61.056492,91.950363 
	C61.056492,91.950363 61.130775,91.941444 61.010311,91.248528 
	C60.026241,89.795494 59.042175,88.342461 58.036907,86.975525 
	C58.036907,86.975525 58.124023,86.992073 57.942226,86.469704 
	C57.640369,86.276802 57.338512,86.083900 56.859760,85.345947 
	C56.272877,84.882652 55.685993,84.419357 54.993050,83.228470 
	C51.940063,77.825996 48.887077,72.423523 45.921612,66.472839 
	C45.624329,66.268951 45.327045,66.065063 45.031212,65.949425 
	C45.031212,65.949425 45.119129,65.941681 44.825218,65.295303 
	C43.029087,63.268341 41.232956,61.241379 39.436821,59.214420 
	C39.681667,61.983223 39.911377,64.753616 40.201054,67.517715 
	C40.223423,67.731194 40.667511,67.900475 40.985069,68.833824 
	C44.043541,75.219780 47.102013,81.605728 50.239338,88.733368 
	C54.126972,97.170227 58.014603,105.607086 62.009441,114.777191 
	C63.666088,117.897186 65.322731,121.017174 67.010323,124.563431 
	C67.010323,124.563431 67.162193,124.963524 67.233063,125.788979 
	C67.274361,126.080811 67.351692,126.374695 67.335228,126.663231 
	C67.330223,126.750938 66.956276,126.914185 66.936935,126.890610 
	C65.917175,125.647095 64.917389,124.387222 63.604168,122.738068 
	C62.636417,124.938774 61.755684,126.941605 60.963894,128.998550 
	C60.963894,128.998550 60.918941,128.904648 60.263634,129.217041 
	C59.803635,130.794083 59.343639,132.371124 58.968346,133.982254 
	C58.968346,133.982254 58.941360,133.895020 58.298992,134.201004 
	C57.494194,136.117661 56.689396,138.034302 55.978561,139.977829 
	C55.978561,139.977829 55.986958,139.880463 55.458267,140.064850 
	C55.269848,140.375183 55.081429,140.685501 54.974697,140.985107 
	C54.974697,140.985107 54.946396,140.907745 54.394241,141.135178 
	C53.902351,141.742966 53.410461,142.350754 52.983059,142.945389 
	C52.983059,142.945389 52.933933,142.901581 52.121964,142.986542 
	C49.070045,143.712234 46.018127,144.437943 42.345036,145.027542 
	C41.861401,145.333817 41.377769,145.640091 40.976665,145.966431 
	C40.976665,145.966431 40.992416,145.882965 40.461781,146.066360 
	C40.267910,146.375656 40.074036,146.684937 39.971188,146.976303 
	C39.971188,146.976303 39.949360,146.886124 39.250385,146.991089 
	C38.456818,147.974197 37.663254,148.957306 36.968220,149.956726 
	C36.968220,149.956726 36.978775,149.857407 36.452991,150.057419 
	C36.267593,150.370605 36.082199,150.683777 35.969173,150.968704 
	C35.969173,150.968704 35.936920,150.898026 35.287540,151.228348 
	C34.582153,153.480209 33.876766,155.732056 33.025620,158.855347 
	C32.719292,163.484360 32.966660,167.935501 37.097023,171.598373 
	C37.266277,171.868454 37.510120,172.010315 38.048145,172.543976 
	C38.363693,172.727600 38.679245,172.911209 38.959251,173.028458 
	C38.959251,173.028458 38.894924,173.067581 39.177677,173.703491 
	C40.791298,174.418732 42.404915,175.133972 44.740856,176.237854 
	C49.438450,178.548340 53.253689,175.856995 57.169487,173.966217 
	C58.211346,173.463135 59.293873,172.670517 59.855053,171.715485 
	C60.106709,171.287216 59.221058,169.523132 58.674484,169.432480 
	C57.539894,169.244278 56.025700,169.407913 55.125675,170.059616 
	C49.676540,174.005249 43.364422,173.066422 39.901733,167.459671 
	C39.612381,167.262085 39.323029,167.064514 39.038250,166.935867 
	C39.038250,166.935867 39.099014,166.902924 39.001629,166.077866 
	C36.534985,157.103317 38.514614,152.211075 46.523975,148.946854 
	C46.719078,148.643494 46.914181,148.340149 47.036537,148.041702 
	C47.036537,148.041702 47.063194,148.109573 47.882240,148.012253 
	C50.905773,148.712173 53.929310,149.412079 56.981449,150.029861 
	C56.981449,150.029861 56.898289,150.004318 57.074917,150.532349 
	C57.382278,150.722534 57.689636,150.912704 57.995094,150.993073 
	C57.995094,150.993073 57.885277,150.994781 57.987305,151.648071 
	C58.317207,152.161072 58.647114,152.674088 58.992241,153.583374 
	C58.992241,153.583374 59.139839,153.951447 59.068977,154.510803 
	C59.369450,154.716797 59.669918,154.922791 59.960541,155.041763 
	C59.960541,155.041763 59.874420,155.057678 60.006409,155.702911 
	C60.062557,156.137100 60.118706,156.571304 60.017464,157.816788 
	C60.539566,160.548294 61.061672,163.279816 61.741417,166.836044 
	C64.777870,162.980194 67.378639,160.044250 64.014687,155.155640 
	C63.358620,153.405518 62.702553,151.655380 62.030357,149.975449 
	C62.030357,149.975449 62.100266,149.958099 61.994034,149.102249 
	C62.700226,145.419327 63.406418,141.736404 64.027115,138.017258 
	C64.027115,138.017258 64.059540,138.104263 64.670502,137.852570 
	C65.154015,136.922318 65.637527,135.992065 66.030876,135.032379 
	C66.030876,135.032379 66.028336,135.127182 66.556091,134.948013 
	C66.745766,134.639893 66.935440,134.331757 67.023079,134.023483 
	C67.023079,134.023483 67.043015,134.123550 67.553726,133.935699 
M112.543221,20.941021 
	C112.735283,20.633921 112.927338,20.326820 113.563705,19.966434 
	C113.563705,19.966434 113.982216,19.808054 114.518234,19.909557 
	C114.717285,19.618185 114.916336,19.326813 115.815239,18.727303 
	C119.655891,17.819372 123.503868,16.940996 127.334312,15.991888 
	C129.465820,15.463742 131.598602,14.230966 133.677704,14.338861 
	C139.126984,14.621649 144.547134,15.466195 150.363068,16.787622 
	C156.902695,18.137035 163.442307,19.486448 170.437042,20.989199 
	C170.437042,20.989199 170.913361,21.050596 171.351974,21.809015 
	C178.468475,21.650864 186.024185,23.906797 192.805328,17.660875 
	C193.721893,14.643094 191.685623,14.824786 189.828232,15.000709 
	C183.562317,15.594177 177.302307,16.249794 170.685074,16.221865 
	C168.783127,15.871887 166.881180,15.521910 164.341248,15.015550 
	C163.905975,14.972689 163.470718,14.929828 163.022186,14.951488 
	C163.022186,14.951488 163.084351,14.929745 162.981659,14.102022 
	C162.708344,13.758742 162.471664,13.154021 162.156448,13.109872 
	C149.609421,11.352514 137.259430,8.927007 124.294487,10.716109 
	C114.951012,12.005466 107.840630,16.382481 101.468323,22.256664 
	C94.717026,28.480213 90.820358,36.311947 93.036835,46.795952 
	C93.940315,49.486862 94.843796,52.177773 95.747276,54.868683 
	C96.100082,54.724739 96.452881,54.580791 96.805687,54.436844 
	C96.805687,50.632095 96.805687,46.827351 96.956207,42.401821 
	C96.985886,41.977020 97.015564,41.552216 97.559044,40.937733 
	C97.396606,40.589390 97.234169,40.241047 97.048553,39.968178 
	C97.048553,39.968178 97.123116,39.942234 97.019302,39.468712 
	C97.019302,39.468712 96.861740,39.010265 97.006378,38.271774 
	C99.347069,34.548958 101.687752,30.826138 104.535431,26.910637 
	C104.724831,26.611486 104.914223,26.312336 105.031204,26.019625 
	C105.031204,26.019625 105.041618,26.091572 105.728668,26.001837 
	C107.197769,24.679932 108.666870,23.358028 110.562111,21.998796 
	C110.562111,21.998796 110.961426,21.845377 111.516220,21.937490 
	C111.714622,21.634338 111.913025,21.331186 112.019249,21.016010 
	C112.019249,21.016010 112.009842,21.108498 112.543221,20.941021 
M198.962418,29.965229 
	C198.962418,29.965229 198.944412,29.868549 198.189926,29.973280 
	C195.780518,30.955366 193.371109,31.937450 190.033661,33.014526 
	C182.435654,32.259254 174.908920,33.447601 167.110657,31.416874 
	C159.782547,29.508579 151.551056,30.670193 143.757736,31.146595 
	C140.694275,31.333864 137.741226,33.327297 134.737885,34.498219 
	C134.849670,34.994072 134.961456,35.489929 135.073227,35.985786 
	C136.660767,35.985786 138.250412,36.039265 139.835464,35.976448 
	C146.380020,35.717079 152.927963,35.138313 159.465027,35.248638 
	C163.312866,35.313576 167.142609,36.451828 171.110336,37.601120 
	C171.407150,37.680206 171.703979,37.759293 172.860840,37.991589 
	C177.509506,38.327515 182.221909,39.280933 186.787292,38.809845 
	C190.647766,38.411503 194.337997,36.363144 198.760773,35.005550 
	C199.510010,34.612080 200.259247,34.218609 201.645752,33.971134 
	C202.078506,34.016586 202.511246,34.062042 202.966400,34.048424 
	C202.966400,34.048424 202.907700,34.072067 202.999557,34.849850 
	C201.484390,44.050655 195.634750,49.249931 186.747772,52.705429 
	C185.163666,52.858582 183.579559,53.011734 181.148788,53.019737 
	C176.423813,52.734592 171.698837,52.449451 166.102478,52.006622 
	C157.875885,51.474667 151.157578,54.990448 144.296204,59.989834 
	C143.858734,60.049339 143.421280,60.108845 142.167099,60.031105 
	C136.798721,60.655457 131.430359,61.279808 125.734627,61.242256 
	C122.102501,58.832142 118.470383,56.422028 114.754379,53.249130 
	C114.208092,49.552376 113.661804,45.855618 113.012276,41.460209 
	C110.221596,46.211128 110.388847,50.567429 111.987709,55.787537 
	C113.436470,60.384861 116.427536,63.498901 121.169693,65.681732 
	C121.736961,65.804901 122.304222,65.928070 123.294197,66.752914 
	C124.546562,67.016350 125.789543,67.341881 127.052864,67.532883 
	C133.924286,68.571815 140.257187,67.325630 146.179794,62.313034 
	C148.459183,61.568096 150.738571,60.823158 153.798645,59.979652 
	C159.076416,58.985123 164.353149,57.985100 169.632507,56.999065 
	C171.444504,56.660633 173.263062,56.357185 175.797058,56.305912 
	C179.212891,56.236805 182.628723,56.167694 186.865555,56.008526 
	C191.169998,55.733604 195.381119,55.255352 198.175827,50.321682 
	C207.924011,46.311939 209.163773,38.056252 208.964844,28.230827 
	C207.776245,27.157297 206.164383,24.968645 205.481628,25.227798 
	C203.719284,25.896729 202.367508,27.647249 200.423508,28.998001 
	C200.423508,28.998001 200.022781,29.152411 199.471008,29.080553 
	C199.268967,29.379644 199.066925,29.678736 198.962418,29.965229 
M197.011734,65.852875 
	C196.119843,70.627884 195.207748,75.399254 194.344391,80.179413 
	C193.897858,82.651756 192.815735,87.153427 193.250244,87.309219 
	C197.608871,88.872009 196.427292,84.365753 197.826080,82.525024 
	C203.384506,75.210388 203.299942,66.787888 202.774429,57.627110 
	C201.235687,58.131229 200.098923,58.503658 198.192917,58.966850 
	C194.820480,59.366104 191.448029,59.765358 188.075592,60.164612 
	C188.144547,60.878162 188.213516,61.591709 188.282486,62.305260 
	C191.155670,62.305260 194.028870,62.305260 196.849655,62.305260 
	C196.973099,63.359806 197.068909,64.178436 197.011734,65.852875 
z"/>
<path fill="#C59C3E" opacity="1.000000" stroke="none" 
	d="
M194.749512,141.001099 
	C194.516800,141.493027 194.284103,141.984940 193.652542,142.816589 
	C193.108795,144.090729 192.963913,145.025146 192.819031,145.959564 
	C192.205414,148.759521 191.760208,151.613312 190.891281,154.331665 
	C190.565689,155.350250 188.740463,156.930954 188.468155,156.771454 
	C182.924713,153.524506 185.093597,159.322754 183.058075,160.744659 
	C179.484528,158.487106 176.503250,156.270187 173.325195,153.906952 
	C173.291443,153.973480 172.242004,155.089203 172.246109,156.201019 
	C172.262665,160.671249 170.391296,161.391266 166.267288,160.495346 
	C164.440308,160.098434 162.112213,161.863953 160.047745,162.733673 
	C155.248871,164.755386 150.598129,168.108078 145.657883,168.595474 
	C137.324463,169.417648 135.994934,169.723312 134.657074,178.304871 
	C135.565765,178.430222 136.472397,178.555283 137.475296,178.693619 
	C136.912292,179.920242 136.440262,180.948669 135.878189,182.029602 
	C135.788162,182.082123 135.785400,182.347412 135.785400,182.347412 
	C135.785400,182.347412 136.022400,182.030869 136.370636,182.026978 
	C137.183105,182.030869 137.647354,182.038651 138.111603,182.046448 
	C137.448685,184.692230 136.507523,185.994614 133.893890,183.488113 
	C130.735336,180.459015 127.331161,177.686050 124.151352,174.161880 
	C125.047127,172.320374 126.476555,171.127960 126.492790,169.916611 
	C126.574852,163.790207 131.564423,162.042877 135.798630,158.567993 
	C137.802444,163.734619 140.246811,161.907486 143.116821,159.662247 
	C145.770676,157.586090 148.442307,155.296310 152.548386,156.684723 
	C153.609558,157.043549 155.497787,154.956543 157.427032,153.995483 
	C159.621582,153.807983 161.487305,153.902603 163.148346,153.364883 
	C166.020264,152.435196 168.675110,150.687759 171.587784,150.071167 
	C174.716461,149.408890 176.341507,148.187576 175.942520,144.892227 
	C175.942520,144.892227 175.955231,144.964981 176.244370,144.920074 
	C177.681000,143.908295 178.828491,142.941406 180.272675,142.104828 
	C186.437775,142.698318 181.953842,138.565292 182.952866,136.866577 
	C183.420517,136.290482 183.888184,135.714401 184.942139,135.242172 
	C186.743423,140.261841 189.966934,141.902588 194.749512,141.001099 
z"/>
<path fill="#C19738" opacity="1.000000" stroke="none" 
	d="
M135.968216,181.977097 
	C136.440262,180.948669 136.912292,179.920242 137.475296,178.693619 
	C136.472397,178.555283 135.565765,178.430222 134.657074,178.304871 
	C135.994934,169.723312 137.324463,169.417648 145.657883,168.595474 
	C150.598129,168.108078 155.248871,164.755386 160.047745,162.733673 
	C162.112213,161.863953 164.440308,160.098434 166.267288,160.495346 
	C170.391296,161.391266 172.262665,160.671249 172.246109,156.201019 
	C172.242004,155.089203 173.291443,153.973480 173.325195,153.906952 
	C176.503250,156.270187 179.484528,158.487106 182.770111,160.873001 
	C182.291504,162.921478 181.508575,164.800964 180.193573,166.996368 
	C179.452576,167.601486 179.243637,167.890671 179.034698,168.179855 
	C179.034698,168.179855 178.993637,168.588303 178.742599,168.935654 
	C178.277954,169.523254 178.121826,169.796356 178.023193,170.102310 
	C178.023193,170.102310 178.013107,170.017700 177.831085,170.147034 
	C177.436798,170.547958 177.224548,170.819550 177.012299,171.091141 
	C177.012299,171.091141 177.011490,171.010941 176.826447,171.141174 
	C176.431976,171.543350 176.222549,171.815308 176.013123,172.087250 
	C176.013123,172.087250 176.010620,172.011444 175.821136,172.147171 
	C175.424545,172.565247 175.217422,172.847580 175.010284,173.129913 
	C174.973572,173.454193 174.816925,173.702957 174.098434,174.073883 
	C173.439743,174.540848 173.222961,174.810104 173.006180,175.079376 
	C173.006180,175.079376 173.005280,175.012573 172.748810,175.036606 
	C171.334366,174.717682 170.176422,174.374741 168.874908,173.723557 
	C167.369766,171.310013 166.867889,167.166534 163.000916,170.999268 
	C163.000000,171.000000 162.998550,171.001831 162.619934,171.016998 
	C158.307663,172.071381 154.167145,172.650253 150.505859,174.295563 
	C147.579239,175.610703 142.982254,175.833023 143.369263,181.135101 
	C143.435852,182.047318 141.742035,183.088013 140.861404,184.069366 
	C140.131561,183.447281 139.401718,182.825211 138.391724,182.124786 
	C137.647354,182.038651 137.183105,182.030869 136.358521,182.012100 
	C135.998184,182.001114 135.968216,181.977097 135.968216,181.977097 
z"/>
<path fill="#CCA244" opacity="1.000000" stroke="none" 
	d="
M157.006104,153.993027 
	C155.497787,154.956543 153.609558,157.043549 152.548386,156.684723 
	C148.442307,155.296310 145.770676,157.586090 143.116821,159.662247 
	C140.246811,161.907486 137.802444,163.734619 135.798630,158.567993 
	C131.564423,162.042877 126.574852,163.790207 126.492790,169.916611 
	C126.476555,171.127960 125.047127,172.320374 124.119827,173.793396 
	C115.477135,171.172379 113.998184,165.090164 116.445099,156.296844 
	C120.778610,154.764999 124.638832,152.333282 128.647293,155.882324 
	C128.958633,156.157974 130.850586,154.648376 132.353302,153.967255 
	C133.515503,153.621597 134.332275,153.277206 135.149048,152.932816 
	C135.530029,152.942841 135.911011,152.952866 136.818069,153.160202 
	C138.794876,152.812958 140.817535,152.696045 141.598907,151.651016 
	C145.304565,146.694931 149.492340,147.291122 154.082764,149.972839 
	C154.082764,149.972839 154.013245,149.988449 154.144623,150.174744 
	C154.548187,150.573395 154.820343,150.785751 155.092499,150.998123 
	C155.092499,150.998123 155.000565,151.002182 155.148682,151.174744 
	C155.578354,151.556564 155.859894,151.765823 156.141449,151.975082 
	C156.141449,151.975082 156.565933,152.015091 156.774551,152.392609 
	C156.990814,153.177765 156.998459,153.585388 157.006104,153.993027 
z"/>
<path fill="#F1DB85" opacity="1.000000" stroke="none" 
	d="
M104.028435,27.103317 
	C101.687752,30.826138 99.347069,34.548958 96.835342,38.765457 
	C96.598000,39.609760 96.750938,39.837460 97.123116,39.942234 
	C97.123116,39.942234 97.048553,39.968178 97.038300,40.239063 
	C97.033791,40.715775 97.039520,40.921597 97.045242,41.127415 
	C97.015564,41.552216 96.985886,41.977020 96.683548,43.006466 
	C96.070862,45.216267 95.730835,46.821426 95.232445,49.174160 
	C94.215546,47.600937 93.702263,46.806843 93.188980,46.012745 
	C90.820358,36.311947 94.717026,28.480213 101.468323,22.256664 
	C107.840630,16.382481 114.951012,12.005466 124.294487,10.716109 
	C137.259430,8.927007 149.609421,11.352514 162.156448,13.109872 
	C162.471664,13.154021 162.708344,13.758742 162.621063,14.514708 
	C157.148407,13.947026 152.036362,12.966660 145.925369,11.794724 
	C147.887680,13.872561 148.933273,14.979717 149.978882,16.086868 
	C144.547134,15.466195 139.126984,14.621649 133.677704,14.338861 
	C131.598602,14.230966 129.465820,15.463742 127.334312,15.991888 
	C123.503868,16.940996 119.655891,17.819372 115.255257,18.977589 
	C114.414658,19.368504 114.176971,19.561897 113.982216,19.808054 
	C113.982216,19.808054 113.563705,19.966434 113.117401,20.131168 
	C112.450684,20.566767 112.230263,20.837633 112.009842,21.108498 
	C112.009842,21.108498 112.019249,21.016010 111.846436,21.118437 
	C111.382874,21.368198 111.145477,21.576370 110.961426,21.845377 
	C110.961426,21.845377 110.562111,21.998796 109.984039,22.024382 
	C107.951180,23.397169 106.496399,24.744371 105.041618,26.091572 
	C105.041618,26.091572 105.031204,26.019625 104.852615,26.161650 
	C104.458824,26.570223 104.243629,26.836771 104.028435,27.103317 
z"/>
<path fill="#BB9134" opacity="1.000000" stroke="none" 
	d="
M140.923233,184.418701 
	C141.742035,183.088013 143.435852,182.047318 143.369263,181.135101 
	C142.982254,175.833023 147.579239,175.610703 150.505859,174.295563 
	C154.167145,172.650253 158.307663,172.071381 162.664185,171.109863 
	C163.087067,171.187561 163.331268,171.203278 163.331268,171.203278 
	C163.331268,171.203278 163.001846,170.998535 163.001846,170.998535 
	C166.867889,167.166534 167.369766,171.310013 168.825241,174.037628 
	C168.261047,175.436356 167.602982,176.212799 166.944916,176.989227 
	C163.273636,180.440918 159.586227,183.875702 155.940247,187.353912 
	C154.748489,188.490814 153.761505,189.855347 152.510056,190.913818 
	C150.257660,192.818878 148.038925,193.194870 145.944290,190.492233 
	C144.400101,188.499786 142.645767,186.670197 140.923233,184.418701 
z"/>
<path fill="#DCB859" opacity="1.000000" stroke="none" 
	d="
M146.005463,128.842789 
	C142.358414,133.823914 128.764328,138.188370 122.751266,136.309753 
	C120.107521,135.483795 117.462914,134.660599 114.940277,132.651382 
	C116.347740,132.199921 117.755203,131.748459 119.793793,131.240707 
	C121.600609,130.414017 122.776299,129.643646 123.951981,128.873260 
	C123.951981,128.873260 123.981041,128.973312 124.159882,128.850418 
	C124.559669,128.453217 124.780602,128.178909 125.001541,127.904594 
	C125.001541,127.904594 125.002388,128.001450 125.177856,127.860840 
	C125.568459,127.443649 125.783585,127.167068 125.998703,126.890488 
	C125.998711,126.890495 125.965752,126.974892 126.286255,126.973679 
	C127.421471,126.025597 128.236176,125.078720 129.050888,124.131844 
	C129.050888,124.131844 129.437088,123.985474 130.022491,123.975716 
	C132.720810,123.298401 134.833740,122.630836 137.293549,122.026161 
	C140.428787,124.340294 143.217133,126.591537 146.005463,128.842789 
z"/>
<path fill="#E7CA71" opacity="1.000000" stroke="none" 
	d="
M92.846603,70.995247 
	C92.897636,74.368301 93.241928,77.768410 92.933899,81.108353 
	C92.416702,86.716454 91.484406,92.286278 90.585251,98.915459 
	C83.994484,93.353699 90.539886,87.348038 87.456978,82.670464 
	C87.335770,82.821953 87.092453,83.008331 87.019302,83.246887 
	C86.925056,83.554245 86.967110,83.903397 86.527420,84.634468 
	C84.465790,86.189850 82.886147,87.449188 81.150818,88.434273 
	C80.662392,88.711533 79.717216,88.184158 79.039368,87.670349 
	C79.121231,85.210983 79.145271,83.107132 79.169304,81.003273 
	C79.537872,79.749710 79.906441,78.496155 80.935471,77.021301 
	C83.393127,73.188187 85.190323,69.576378 87.156036,66.252777 
	C89.165230,68.025742 91.005913,69.510498 92.846603,70.995247 
z"/>
<path fill="#E8C96C" opacity="1.000000" stroke="none" 
	d="
M61.902233,114.043945 
	C58.014603,105.607086 54.126972,97.170227 50.522430,88.302124 
	C52.236717,86.565948 53.667915,85.261002 55.099113,83.956055 
	C55.685993,84.419357 56.272877,84.882652 57.086361,85.840858 
	C57.583317,86.554535 57.853672,86.773308 58.124023,86.992073 
	C58.124023,86.992073 58.036907,86.975525 58.038433,87.306847 
	C59.070232,89.072594 60.100502,90.507019 61.130775,91.941444 
	C61.130775,91.941444 61.056492,91.950363 61.056091,92.271027 
	C61.739376,93.381172 62.423061,94.170639 63.106750,94.960114 
	C63.106750,94.960114 63.035885,94.973030 63.025330,95.324471 
	C64.043320,97.103745 65.071869,98.531578 66.100418,99.959412 
	C66.100418,99.959412 66.030075,99.974152 66.040154,100.294235 
	C66.733627,101.396553 67.417030,102.178787 68.100433,102.961014 
	C68.100433,102.961014 68.031235,102.982071 68.017036,103.335434 
	C68.003448,104.467766 68.004066,105.246735 67.774475,106.276741 
	C64.413887,108.033646 62.551216,110.308777 62.735527,114.007393 
	C62.272606,114.028114 62.087418,114.036034 61.902233,114.043945 
z"/>
<path fill="#E3C469" opacity="1.000000" stroke="none" 
	d="
M78.981537,88.025848 
	C79.717216,88.184158 80.662392,88.711533 81.150818,88.434273 
	C82.886147,87.449188 84.465790,86.189850 86.461182,85.017044 
	C86.532440,86.108620 86.246902,87.217522 85.773125,88.783493 
	C85.457558,89.533020 85.529793,89.780960 85.801575,89.984367 
	C84.593781,94.745796 83.385979,99.507233 81.664780,104.757629 
	C80.335861,107.427261 79.520340,109.607925 78.698067,111.787109 
	C77.465279,111.184845 76.239258,110.584053 75.000946,109.653755 
	C74.653137,108.551384 74.317604,107.778519 73.768097,106.809525 
	C73.363220,106.074234 73.172318,105.535080 73.152191,104.631920 
	C73.526657,101.810371 73.730347,99.352821 73.934036,96.895271 
	C73.934029,96.895271 73.955727,96.970505 74.269028,96.887802 
	C76.048737,93.878677 77.515137,90.952263 78.981537,88.025848 
z"/>
<path fill="#CBA54A" opacity="1.000000" stroke="none" 
	d="
M194.928513,140.667023 
	C189.966934,141.902588 186.743423,140.261841 185.208542,135.145340 
	C187.956299,128.707031 191.023972,122.469421 194.802856,114.785706 
	C197.824799,124.220512 196.002792,132.292542 194.928513,140.667023 
z"/>
<path fill="#EEDA89" opacity="1.000000" stroke="none" 
	d="
M170.980484,37.107342 
	C167.142609,36.451828 163.312866,35.313576 159.465027,35.248638 
	C152.927963,35.138313 146.380020,35.717079 139.835464,35.976448 
	C138.250412,36.039265 136.660767,35.985786 135.073227,35.985786 
	C134.961456,35.489929 134.849670,34.994072 134.737885,34.498219 
	C137.741226,33.327297 140.694275,31.333864 143.757736,31.146595 
	C151.551056,30.670193 159.782547,29.508579 167.110657,31.416874 
	C174.908920,33.447601 182.435654,32.259254 190.500458,33.217793 
	C190.970032,33.588322 190.972809,33.755589 190.771164,34.087582 
	C188.715668,34.178391 186.864563,34.104473 184.590363,34.021706 
	C179.099121,34.012852 174.030991,34.012852 168.028992,34.012852 
	C169.633011,35.694584 170.306747,36.400963 170.980484,37.107342 
z"/>
<path fill="#D8B453" opacity="1.000000" stroke="none" 
	d="
M164.963379,136.127228 
	C160.524704,134.130951 156.086014,132.134674 151.258209,129.640045 
	C151.169556,127.523499 150.939102,125.145111 151.900726,124.473465 
	C153.194626,123.569733 155.415405,124.041168 157.223984,123.809891 
	C158.497925,123.646988 159.747955,123.296967 161.352356,123.171921 
	C163.157623,123.526115 164.619156,123.738892 166.080704,123.951668 
	C166.080704,123.951668 166.018021,123.981682 166.147186,124.170120 
	C166.548767,124.572289 166.821152,124.786011 167.093552,124.999733 
	C167.093552,124.999733 167.020081,124.971809 167.036407,125.312836 
	C167.874084,126.175293 168.695450,126.696716 169.516800,127.218140 
	C169.516800,127.218140 169.544434,127.367676 169.620575,127.782402 
	C170.164505,128.479370 170.632278,128.761612 171.100067,129.043839 
	C171.100067,129.043839 171.225601,128.993240 170.916245,129.318085 
	C168.725723,131.804382 166.844559,133.965805 164.963379,136.127228 
z"/>
<path fill="#DBBB66" opacity="1.000000" stroke="none" 
	d="
M198.962143,58.876083 
	C200.098923,58.503658 201.235687,58.131229 202.774429,57.627110 
	C203.299942,66.787888 203.384506,75.210388 197.826080,82.525024 
	C196.427292,84.365753 197.608871,88.872009 193.250244,87.309219 
	C192.815735,87.153427 193.897858,82.651756 194.344391,80.179413 
	C195.207748,75.399254 196.119843,70.627884 197.403961,65.338966 
	C198.184845,62.842068 198.573502,60.859074 198.962143,58.876083 
M198.066208,69.802368 
	C198.132217,70.100266 198.198212,70.398170 198.264221,70.696068 
	C198.467148,70.598183 198.670059,70.500298 198.872971,70.402420 
	C198.635010,70.064674 198.397049,69.726936 198.066208,69.802368 
z"/>
<path fill="#EDD27B" opacity="1.000000" stroke="none" 
	d="
M55.046082,83.592270 
	C53.667915,85.261002 52.236717,86.565948 50.483002,87.931290 
	C47.102013,81.605728 44.043541,75.219780 41.218571,68.235657 
	C42.674427,67.072220 43.896778,66.506950 45.119129,65.941681 
	C45.119129,65.941681 45.031212,65.949425 45.128563,66.123787 
	C45.359154,66.597588 45.561878,66.838554 45.834091,67.021057 
	C48.887077,72.423523 51.940063,77.825996 55.046082,83.592270 
z"/>
<path fill="#D8B453" opacity="1.000000" stroke="none" 
	d="
M92.199348,142.976410 
	C92.199348,142.976410 92.580048,143.004211 92.806633,143.373245 
	C92.046204,145.525024 91.059189,147.307785 90.054733,149.062897 
	C90.037277,149.035248 90.098068,149.011383 89.870895,149.141525 
	C89.432785,149.546051 89.221848,149.820419 89.009926,150.052414 
	C89.008949,150.010025 89.093742,150.009506 88.870422,150.142471 
	C88.435844,150.546707 88.224571,150.817993 88.010208,151.055527 
	C88.007126,151.021790 88.072426,151.039871 87.788147,151.029633 
	C87.314270,151.023834 87.124680,151.028259 86.576889,151.196411 
	C85.517029,155.585297 84.815376,159.810440 83.795868,163.890045 
	C78.528679,161.446365 81.021004,157.834717 81.760307,154.449188 
	C82.640167,150.419952 83.300095,146.343109 84.100784,142.295883 
	C84.320946,141.183060 84.703568,140.102356 85.334557,139.009476 
	C86.087425,139.026978 86.517372,139.041901 87.109833,139.366882 
	C88.914680,140.776749 90.557014,141.876587 92.199348,142.976410 
z"/>
<path fill="#E5CE7A" opacity="1.000000" stroke="none" 
	d="
M208.812637,29.006664 
	C209.163773,38.056252 207.924011,46.311939 197.616791,50.654015 
	C193.755463,51.329994 190.453140,51.673641 187.150833,52.017296 
	C195.634750,49.249931 201.484390,44.050655 203.256195,34.506603 
	C204.099472,35.753960 204.686127,37.344563 205.272781,38.935169 
	C205.572006,38.893154 205.871231,38.851139 206.170456,38.809124 
	C206.454987,35.535759 206.739517,32.262394 207.321838,28.991241 
	C208.017303,28.997854 208.414963,29.002258 208.812637,29.006664 
z"/>
<path fill="#D0A94A" opacity="1.000000" stroke="none" 
	d="
M132.007904,153.968536 
	C130.850586,154.648376 128.958633,156.157974 128.647293,155.882324 
	C124.638832,152.333282 120.778610,154.764999 116.520798,155.928131 
	C115.419594,154.444580 114.676216,152.896576 113.912643,150.655273 
	C115.631248,148.628876 117.370056,147.295807 119.108856,145.962738 
	C122.326515,147.395081 125.544189,148.827438 129.034897,150.860291 
	C130.207932,152.296722 131.107910,153.132629 132.007904,153.968536 
z"/>
<path fill="#E1C064" opacity="1.000000" stroke="none" 
	d="
M45.968769,148.859970 
	C38.514614,152.211075 36.534985,157.103317 38.721199,166.452362 
	C37.288620,166.221786 36.136471,165.616699 34.740761,164.709473 
	C34.329140,162.289413 34.161068,160.171524 34.148415,157.716797 
	C34.848198,155.219315 35.392563,153.058670 35.936920,150.898026 
	C35.936920,150.898026 35.969173,150.968704 36.155045,150.836090 
	C36.553532,150.421463 36.766151,150.139435 36.978775,149.857407 
	C36.978775,149.857407 36.968220,149.956726 37.268093,149.914276 
	C38.361763,148.876587 39.155563,147.881348 39.949364,146.886124 
	C39.949360,146.886124 39.971188,146.976303 40.148605,146.839783 
	C40.548149,146.429840 40.770279,146.156403 40.992413,145.882965 
	C40.992416,145.882965 40.976665,145.966431 41.223038,145.946564 
	C41.968342,145.672348 42.467274,145.417984 42.966209,145.163635 
	C46.018127,144.437943 49.070045,143.712234 52.477745,143.261627 
	C51.896652,144.349152 50.959782,145.161606 49.672646,146.000366 
	C48.569317,146.720978 47.816257,147.415283 47.063194,148.109573 
	C47.063194,148.109573 47.036537,148.041702 46.852928,148.132477 
	C46.381592,148.375839 46.148075,148.588089 45.968769,148.859970 
z"/>
<path fill="#DFBB61" opacity="1.000000" stroke="none" 
	d="
M161.008652,123.030495 
	C159.747955,123.296967 158.497925,123.646988 157.223984,123.809891 
	C155.415405,124.041168 153.194626,123.569733 151.900726,124.473465 
	C150.939102,125.145111 151.169556,127.523499 150.930176,129.485626 
	C149.576111,129.553070 148.160950,129.276581 146.375626,128.921448 
	C143.217133,126.591537 140.428787,124.340294 137.407852,121.797737 
	C137.430786,121.064156 137.686325,120.621880 137.941864,120.179604 
	C140.496475,120.456474 143.057205,121.004349 145.604263,120.946861 
	C149.451263,120.860039 153.288742,120.350998 157.647797,120.397964 
	C159.113098,121.526520 160.060883,122.278511 161.008652,123.030495 
z"/>
<path fill="#D3AF51" opacity="1.000000" stroke="none" 
	d="
M34.984318,165.011627 
	C36.136471,165.616699 37.288620,166.221786 38.769890,166.864899 
	C39.099014,166.902924 39.038250,166.935867 39.134666,167.115585 
	C39.369553,167.586349 39.573860,167.819763 39.844006,167.995529 
	C43.364422,173.066422 49.676540,174.005249 55.125675,170.059616 
	C56.025700,169.407913 57.539894,169.244278 58.674484,169.432480 
	C59.221058,169.523132 60.106709,171.287216 59.855053,171.715485 
	C59.293873,172.670517 58.211346,173.463135 57.169487,173.966217 
	C53.253689,175.856995 49.438450,178.548340 44.278267,175.715500 
	C42.175423,174.484619 40.535175,173.776093 38.894928,173.067581 
	C38.894924,173.067581 38.959251,173.028458 38.831829,172.834229 
	C38.412453,172.434662 38.120499,172.229324 37.828545,172.023987 
	C37.510120,172.010315 37.266277,171.868454 37.045452,171.014496 
	C36.324024,168.624283 35.654171,166.817947 34.984318,165.011627 
z"/>
<path fill="#E4CD81" opacity="1.000000" stroke="none" 
	d="
M61.955837,114.410568 
	C62.087418,114.036034 62.272606,114.028114 62.977432,114.214035 
	C64.329613,115.102150 65.162155,115.796432 65.994698,116.490715 
	C68.073753,112.825432 71.319923,115.471817 74.095947,115.144180 
	C74.471687,115.182945 74.743187,115.089478 75.263855,114.889603 
	C76.003128,115.192009 76.601753,115.524910 76.954788,116.029610 
	C77.359650,116.608429 77.546738,117.339592 77.828430,118.004570 
	C78.201927,118.790543 78.575417,119.576515 78.509766,120.706863 
	C75.226669,121.325844 72.351318,121.435120 69.556007,121.965889 
	C68.594376,122.148483 67.832504,123.383125 66.979370,124.137161 
	C65.322731,121.017174 63.666088,117.897186 61.955837,114.410568 
z"/>
<path fill="#D9B457" opacity="1.000000" stroke="none" 
	d="
M106.838379,129.003876 
	C107.895180,131.081360 108.951988,133.158829 109.801926,135.841766 
	C109.384674,139.004410 109.174278,141.561600 108.963890,144.118774 
	C107.722519,143.648361 106.481140,143.177948 105.021820,142.037277 
	C99.596039,136.175781 102.881989,129.965118 102.277725,124.089058 
	C103.684059,125.240738 104.775192,126.134293 105.866325,127.027847 
	C105.866325,127.027847 106.021553,127.405296 106.124908,127.833038 
	C106.364708,128.563431 106.568077,128.811127 106.838379,129.003876 
z"/>
<path fill="#EED57E" opacity="1.000000" stroke="none" 
	d="
M150.170959,16.437248 
	C148.933273,14.979717 147.887680,13.872561 145.925369,11.794724 
	C152.036362,12.966660 157.148407,13.947026 162.672409,14.928568 
	C163.084351,14.929745 163.022186,14.951488 163.166229,15.121023 
	C163.866608,15.251017 164.422913,15.211474 164.979233,15.171932 
	C166.881180,15.521910 168.783127,15.871887 170.852203,16.834227 
	C171.013351,17.634926 171.007370,17.823261 170.874252,18.286058 
	C170.492050,19.318968 170.237000,20.077415 169.981934,20.835861 
	C163.442307,19.486448 156.902695,18.137035 150.170959,16.437248 
z"/>
<path fill="#E1C064" opacity="1.000000" stroke="none" 
	d="
M68.042603,132.107407 
	C68.042603,132.107407 67.994568,132.560989 67.743324,132.931854 
	C67.286850,133.545929 67.137161,133.819550 67.043015,134.123550 
	C67.043015,134.123550 67.023079,134.023483 66.847061,134.160248 
	C66.456810,134.573730 66.242577,134.850449 66.028336,135.127182 
	C66.028336,135.127182 66.030876,135.032379 65.731155,135.110718 
	C64.974136,136.160797 64.516838,137.132538 64.059540,138.104263 
	C64.059540,138.104263 64.027115,138.017258 63.722191,138.108459 
	C62.291435,141.120712 61.165607,144.041748 59.689514,146.918152 
	C57.891716,145.579361 56.444183,144.285217 54.998161,142.643921 
	C54.981915,141.833771 54.964153,141.370758 54.946396,140.907745 
	C54.946396,140.907745 54.974697,140.985107 55.154800,140.844986 
	C55.552254,140.430054 55.769604,140.155258 55.986954,139.880463 
	C55.986958,139.880463 55.978561,139.977829 56.292332,139.898346 
	C57.384521,137.844254 58.162941,135.869644 58.941360,133.895020 
	C58.941360,133.895020 58.968346,133.982254 59.274807,133.925186 
	C62.604168,132.908142 61.989403,130.967804 60.918941,128.904648 
	C60.918941,128.904648 60.963894,128.998550 61.269325,128.939117 
	C64.832916,127.746925 66.867851,129.065323 68.042603,132.107407 
z"/>
<path fill="#DABC6E" opacity="1.000000" stroke="none" 
	d="
M85.011642,139.006912 
	C84.703568,140.102356 84.320946,141.183060 84.100784,142.295883 
	C83.300095,146.343109 82.640167,150.419952 81.760307,154.449188 
	C81.021004,157.834717 78.528679,161.446365 83.744064,164.229126 
	C85.361725,166.433029 86.713333,168.152267 88.046265,170.265900 
	C88.027336,171.712738 88.027077,172.765198 88.026825,173.817642 
	C82.697044,171.979584 77.906609,163.759430 79.060036,158.173294 
	C79.512856,155.980301 79.902649,153.550186 81.126099,151.786423 
	C83.785721,147.952209 83.291504,144.486115 81.114563,140.272705 
	C81.488037,139.443329 81.751938,139.218353 82.260117,138.898743 
	C83.340149,138.871719 84.175896,138.939316 85.011642,139.006912 
z"/>
<path fill="#D3AF51" opacity="1.000000" stroke="none" 
	d="
M109.097061,144.427551 
	C109.174278,141.561600 109.384674,139.004410 109.850998,136.198471 
	C114.871918,137.299423 117.356110,140.846573 119.060234,145.577454 
	C117.370056,147.295807 115.631248,148.628876 113.756165,150.365738 
	C112.156662,148.758469 110.693443,146.747406 109.097061,144.427551 
z"/>
<path fill="#DCB859" opacity="1.000000" stroke="none" 
	d="
M54.996651,142.991074 
	C56.444183,144.285217 57.891716,145.579361 59.874992,147.106476 
	C60.973915,148.212341 61.537090,149.085220 62.100266,149.958099 
	C62.100266,149.958099 62.030357,149.975449 62.033020,150.314362 
	C62.707367,152.411804 63.379047,154.170349 64.050728,155.928894 
	C67.378639,160.044250 64.777870,162.980194 61.741417,166.836044 
	C61.061672,163.279816 60.539566,160.548294 60.355431,157.337906 
	C60.420406,156.258575 60.147415,155.658127 59.874420,155.057678 
	C59.874420,155.057678 59.960541,155.041763 59.870804,154.859528 
	C59.633472,154.376907 59.419727,154.134949 59.139839,153.951447 
	C59.139839,153.951447 58.992241,153.583374 58.963142,153.062622 
	C58.584457,152.026184 58.234867,151.510483 57.885277,150.994781 
	C57.885277,150.994781 57.995094,150.993073 57.853855,150.826691 
	C57.441174,150.441650 57.169731,150.222992 56.898289,150.004318 
	C56.898289,150.004318 56.981449,150.029861 56.910049,149.722534 
	C54.566738,148.268173 52.294827,147.121109 50.022911,145.974060 
	C50.959782,145.161606 51.896652,144.349152 52.883728,143.219147 
	C52.933933,142.901581 52.983059,142.945389 53.297337,142.969299 
	C54.073296,142.992477 54.534973,142.991776 54.996651,142.991074 
z"/>
<path fill="#E0BF5D" opacity="1.000000" stroke="none" 
	d="
M166.973862,52.164310 
	C171.698837,52.449451 176.423813,52.734592 181.675354,53.404835 
	C183.482803,54.559483 184.763687,55.329033 186.044556,56.098583 
	C182.628723,56.167694 179.212891,56.236805 174.979446,56.161629 
	C171.110794,55.992577 168.059738,55.967812 164.841095,55.762932 
	C164.111267,55.699665 163.549057,55.816521 162.658569,55.941917 
	C161.892792,55.958817 161.455292,55.967167 161.081345,55.625832 
	C163.087891,54.238869 165.030884,53.201588 166.973862,52.164310 
z"/>
<path fill="#E3C469" opacity="1.000000" stroke="none" 
	d="
M207.024048,28.989033 
	C206.739517,32.262394 206.454987,35.535759 206.170456,38.809124 
	C205.871231,38.851139 205.572006,38.893154 205.272781,38.935169 
	C204.686127,37.344563 204.099472,35.753960 203.210266,34.117714 
	C202.907700,34.072067 202.966400,34.048424 202.920715,33.806938 
	C202.606567,33.245872 202.338104,32.926292 202.069641,32.606720 
	C201.715927,33.012859 201.362198,33.418999 201.008484,33.825142 
	C200.259247,34.218609 199.510010,34.612080 198.024902,35.032677 
	C192.543976,35.694813 187.798920,36.329826 183.238556,36.726395 
	C183.953308,35.668819 184.483398,34.849686 185.013474,34.030556 
	C186.864563,34.104473 188.715668,34.178391 191.155060,34.091972 
	C194.143707,32.577271 196.544067,31.222908 198.944412,29.868549 
	C198.944412,29.868549 198.962418,29.965229 199.132233,29.869961 
	C199.600235,29.634388 199.840485,29.426960 200.022781,29.152411 
	C200.022781,29.152411 200.423508,28.998001 201.000305,28.984020 
	C202.720505,28.629799 203.863937,28.289558 205.038208,28.197502 
	C205.716156,28.621367 206.363251,28.797045 207.007919,28.980040 
	C207.005478,28.987356 207.024063,28.989033 207.024048,28.989033 
z"/>
<path fill="#EAD278" opacity="1.000000" stroke="none" 
	d="
M92.915543,70.552040 
	C91.005913,69.510498 89.165230,68.025742 87.156830,65.857376 
	C86.999268,64.116142 87.009399,63.058537 87.232300,61.793777 
	C87.286751,60.723877 87.128433,59.861130 86.974472,58.599262 
	C86.970703,57.135986 86.962585,56.071831 86.999641,54.719921 
	C88.950417,50.168446 89.486588,55.235256 90.803314,54.983795 
	C91.530373,60.025475 92.257423,65.067154 92.915543,70.552040 
z"/>
<path fill="#C19B39" opacity="1.000000" stroke="none" 
	d="
M107.799561,174.969009 
	C110.937462,178.314972 114.075363,181.660934 117.131889,184.920135 
	C113.932899,186.808426 106.459877,182.632690 102.252037,175.697556 
	C101.581078,174.456772 101.267258,173.692673 101.156372,172.725998 
	C101.894951,172.340607 102.430603,172.157776 103.244583,172.127731 
	C104.948463,173.176682 106.374016,174.072845 107.799561,174.969009 
z"/>
<path fill="#E6C76A" opacity="1.000000" stroke="none" 
	d="
M166.538177,52.085464 
	C165.030884,53.201588 163.087891,54.238869 160.702698,55.651184 
	C157.846313,57.376888 155.432144,58.727554 153.017960,60.078217 
	C150.738571,60.823158 148.459183,61.568096 145.704300,62.657005 
	C144.818558,62.998631 144.408295,62.996281 144.134308,62.694923 
	C144.498306,61.559654 144.726074,60.723396 144.953827,59.887138 
	C151.157578,54.990448 157.875885,51.474667 166.538177,52.085464 
z"/>
<path fill="#E2C068" opacity="1.000000" stroke="none" 
	d="
M73.991707,115.011948 
	C71.319923,115.471817 68.073753,112.825432 65.994698,116.490715 
	C65.162155,115.796432 64.329613,115.102150 63.255165,114.201233 
	C62.551216,110.308777 64.413887,108.033646 68.125275,106.266777 
	C69.174026,105.990471 69.641769,105.975166 70.109505,105.959869 
	C70.109505,105.959862 70.517952,105.965332 70.739304,106.319481 
	C71.965889,109.119629 72.971123,111.565628 73.985588,114.255539 
	C73.994820,114.499443 74.012238,114.987579 74.007095,114.992889 
	C74.001953,114.998199 73.991707,115.011948 73.991707,115.011948 
z"/>
<path fill="#DBC273" opacity="1.000000" stroke="none" 
	d="
M105.922501,126.639008 
	C104.775192,126.134293 103.684059,125.240738 102.277725,124.089058 
	C102.881989,129.965118 99.596039,136.175781 104.887772,141.725586 
	C103.355713,140.791779 100.445267,139.592438 100.344589,138.191223 
	C99.871887,131.612289 100.144485,124.977432 100.254807,118.364265 
	C100.262291,117.915482 101.122917,117.480942 102.333427,116.329636 
	C103.660011,119.939934 104.819344,123.095055 105.922501,126.639008 
z"/>
<path fill="#C69E42" opacity="1.000000" stroke="none" 
	d="
M107.864632,174.584930 
	C106.374016,174.072845 104.948463,173.176682 103.469467,171.870209 
	C103.922882,170.268555 104.429749,169.077209 104.955154,167.924911 
	C104.973701,167.963943 104.894005,167.997360 105.114815,167.851898 
	C105.554298,167.432083 105.772964,167.157715 105.980743,166.929810 
	C105.969849,166.976273 105.877861,166.950775 106.205078,166.894302 
	C107.361710,164.236710 108.191116,161.635590 109.352333,158.937424 
	C110.142090,157.858124 110.600044,156.875870 111.057999,155.893616 
	C113.576820,158.494095 113.383415,161.255981 111.905228,164.357971 
	C110.385849,167.546387 109.239365,170.912506 107.864632,174.584930 
z"/>
<path fill="#EEDA89" opacity="1.000000" stroke="none" 
	d="
M90.881699,54.561852 
	C89.486588,55.235256 88.950417,50.168446 86.770889,54.612789 
	C86.061424,54.532024 85.625885,54.270638 85.190353,54.009251 
	C85.130554,53.590145 85.070755,53.171043 85.022568,52.006355 
	C85.493523,46.574162 85.952850,41.887543 86.378220,37.547462 
	C87.131927,37.696445 87.963005,37.860722 88.794075,38.024998 
	C89.516075,43.396633 90.238075,48.768269 90.881699,54.561852 
z"/>
<path fill="#EFDD90" opacity="1.000000" stroke="none" 
	d="
M120.966827,65.123970 
	C116.427536,63.498901 113.436470,60.384861 112.217773,55.287468 
	C113.244637,54.528904 114.041451,54.270409 114.838257,54.011913 
	C118.470383,56.422028 122.102501,58.832142 125.629120,61.817753 
	C124.004677,63.303490 122.485756,64.213730 120.966827,65.123970 
z"/>
<path fill="#EEE49E" opacity="1.000000" stroke="none" 
	d="
M88.873062,37.593018 
	C87.963005,37.860722 87.131927,37.696445 86.378220,37.547462 
	C85.952850,41.887543 85.493523,46.574162 85.004868,51.688030 
	C82.777481,43.422512 83.833054,35.091297 87.447495,27.044428 
	C87.949013,27.032990 88.450539,27.021551 88.952057,27.010113 
	C88.952057,30.393757 88.952057,33.777397 88.873062,37.593018 
z"/>
<path fill="#DFC97F" opacity="1.000000" stroke="none" 
	d="
M73.976357,114.011627 
	C72.971123,111.565628 71.965889,109.119629 70.943008,106.304573 
	C70.925354,105.935516 71.049927,105.458771 71.425301,105.224922 
	C72.194252,104.992683 72.587837,104.994301 72.981415,104.995918 
	C73.172318,105.535080 73.363220,106.074234 73.775269,107.140930 
	C74.335350,108.440079 74.674286,109.211670 75.013229,109.983261 
	C76.239258,110.584053 77.465279,111.184845 78.698067,111.787109 
	C79.520340,109.607925 80.335861,107.427261 81.474167,105.120964 
	C80.595741,109.101830 79.394516,113.208328 78.010864,117.659698 
	C77.546738,117.339592 77.359650,116.608429 76.954788,116.029610 
	C76.601753,115.524910 76.003128,115.192009 75.256454,114.891113 
	C74.999893,114.999039 74.999771,114.987938 74.867233,114.788254 
	C74.526245,114.338013 74.273460,114.145699 73.976357,114.011627 
z"/>
<path fill="#D2AD4D" opacity="1.000000" stroke="none" 
	d="
M165.175079,136.465118 
	C166.844559,133.965805 168.725723,131.804382 170.970062,129.359131 
	C171.724045,129.366196 172.114838,129.657089 172.903915,130.231171 
	C173.562149,130.728455 173.854568,130.879791 174.179474,130.968369 
	C174.586349,130.986908 174.993225,131.005463 175.933746,131.292542 
	C177.146576,131.951981 177.825775,132.342880 178.838196,132.925522 
	C175.954666,134.352325 173.469757,135.581894 170.984833,136.811462 
	C169.118805,136.808640 167.252792,136.805817 165.175079,136.465118 
z"/>
<path fill="#D3BA6E" opacity="1.000000" stroke="none" 
	d="
M90.072189,149.090546 
	C91.059189,147.307785 92.046204,145.525024 92.982925,143.446381 
	C99.454285,142.144989 104.629791,144.552734 108.477158,149.731232 
	C106.530289,149.059738 104.903641,148.133606 103.360657,147.084442 
	C101.474426,145.801865 99.851929,145.273499 98.526718,148.041168 
	C95.429680,148.356216 92.750938,148.723389 90.072189,149.090546 
M96.841812,145.769455 
	C96.750175,145.563095 96.685463,145.335449 96.549828,145.163849 
	C96.511230,145.115021 96.266373,145.229233 96.116112,145.268692 
	C96.243332,145.461411 96.370560,145.654144 96.841812,145.769455 
z"/>
<path fill="#EAD17B" opacity="1.000000" stroke="none" 
	d="
M121.068260,65.402847 
	C122.485756,64.213730 124.004677,63.303490 125.792801,62.148705 
	C131.430359,61.279808 136.798721,60.655457 142.487915,60.404991 
	C141.517059,61.853683 140.225388,62.928486 138.628906,64.148071 
	C137.238403,64.528664 136.152740,64.764473 134.750046,64.757355 
	C131.621811,64.696808 128.810577,64.879173 125.744492,65.282043 
	C124.616905,65.685448 123.744202,65.868347 122.871490,66.051247 
	C122.304222,65.928070 121.736961,65.804901 121.068260,65.402847 
z"/>
<path fill="#CCA244" opacity="1.000000" stroke="none" 
	d="
M100.953438,172.928558 
	C101.267258,173.692673 101.581078,174.456772 101.941772,175.527618 
	C97.260551,177.453339 92.898895,176.459488 88.386398,173.897430 
	C88.027077,172.765198 88.027336,171.712738 88.370453,170.436432 
	C91.760368,170.798203 94.807434,171.383850 98.156479,172.098816 
	C99.290123,172.461609 100.121780,172.695084 100.953438,172.928558 
z"/>
<path fill="#E4CD81" opacity="1.000000" stroke="none" 
	d="
M68.416740,132.049347 
	C66.867851,129.065323 64.832916,127.746925 61.224854,128.912048 
	C61.755684,126.941605 62.636417,124.938774 63.604168,122.738068 
	C64.917389,124.387222 65.917175,125.647095 66.936935,126.890610 
	C66.956276,126.914185 67.330223,126.750938 67.335228,126.663231 
	C67.351692,126.374695 67.274361,126.080811 67.566330,125.402847 
	C69.929771,125.682289 71.959938,126.347855 73.983521,127.280548 
	C73.974380,127.725792 73.971817,127.903908 73.969261,128.082031 
	C71.995827,127.958794 70.022392,127.835564 66.591049,127.621284 
	C68.909821,128.702972 69.922226,129.175262 71.516609,129.919037 
	C70.352997,130.803680 69.571938,131.397491 68.416740,132.049347 
z"/>
<path fill="#ECD170" opacity="1.000000" stroke="none" 
	d="
M170.209488,20.912529 
	C170.237000,20.077415 170.492050,19.318968 171.341675,18.281502 
	C177.946213,17.989494 183.956177,17.976505 189.633148,18.124834 
	C183.171219,19.207634 177.042282,20.129116 170.913361,21.050598 
	C170.913361,21.050596 170.437042,20.989199 170.209488,20.912529 
z"/>
<path fill="#CDAE58" opacity="1.000000" stroke="none" 
	d="
M157.427032,153.995483 
	C156.998459,153.585388 156.990814,153.177765 156.975281,152.464386 
	C158.452225,152.167923 160.151291,152.654800 161.383865,152.101837 
	C166.118118,149.977875 170.702820,147.520584 175.642914,145.039948 
	C176.341507,148.187576 174.716461,149.408890 171.587784,150.071167 
	C168.675110,150.687759 166.020264,152.435196 163.148346,153.364883 
	C161.487305,153.902603 159.621582,153.807983 157.427032,153.995483 
z"/>
<path fill="#DCB859" opacity="1.000000" stroke="none" 
	d="
M186.455048,56.053555 
	C184.763687,55.329033 183.482803,54.559483 182.098694,53.477409 
	C183.579559,53.011734 185.163666,52.858582 186.949310,52.361359 
	C190.453140,51.673641 193.755463,51.329994 197.450989,50.977676 
	C195.381119,55.255352 191.169998,55.733604 186.455048,56.053555 
z"/>
<path fill="#E6D38A" opacity="1.000000" stroke="none" 
	d="
M183.053864,36.964836 
	C187.798920,36.329826 192.543976,35.694813 197.696289,35.052414 
	C194.337997,36.363144 190.647766,38.411503 186.787292,38.809845 
	C182.221909,39.280933 177.509506,38.327515 172.768738,37.689919 
	C176.135727,37.247108 179.594788,37.105972 183.053864,36.964836 
z"/>
<path fill="#E9CD72" opacity="1.000000" stroke="none" 
	d="
M198.577530,58.921467 
	C198.573502,60.859074 198.184845,62.842068 197.480469,64.911057 
	C197.068909,64.178436 196.973099,63.359806 196.849655,62.305260 
	C194.028870,62.305260 191.155670,62.305260 188.282486,62.305260 
	C188.213516,61.591709 188.144547,60.878162 188.075592,60.164612 
	C191.448029,59.765358 194.820480,59.366104 198.577530,58.921467 
z"/>
<path fill="#E9CD72" opacity="1.000000" stroke="none" 
	d="
M183.238556,36.726395 
	C179.594788,37.105972 176.135727,37.247108 172.338715,37.613312 
	C171.703979,37.759293 171.407150,37.680206 171.045410,37.354233 
	C170.306747,36.400963 169.633011,35.694584 168.028992,34.012852 
	C174.030991,34.012852 179.099121,34.012852 184.590363,34.021702 
	C184.483398,34.849686 183.953308,35.668819 183.238556,36.726395 
z"/>
<path fill="#D0A94A" opacity="1.000000" stroke="none" 
	d="
M98.945015,148.093262 
	C99.851929,145.273499 101.474426,145.801865 103.360657,147.084442 
	C104.903641,148.133606 106.530289,149.059738 108.481155,150.082031 
	C108.842461,150.123627 109.000206,150.454651 109.106064,150.853668 
	C109.351280,151.544464 109.550362,151.787277 109.809174,151.981110 
	C110.207985,153.050629 110.606789,154.120148 111.031799,155.541641 
	C110.600044,156.875870 110.142090,157.858124 109.336243,158.584442 
	C108.052940,157.211227 107.117546,156.093933 106.104591,154.771957 
	C106.027031,154.567261 105.994789,154.130630 106.073410,153.879120 
	C105.733269,153.098572 105.314507,152.569504 104.937843,152.028519 
	C104.979935,152.016586 105.001228,152.101471 104.850174,151.876480 
	C104.408958,151.440063 104.118790,151.228653 103.613968,150.962891 
	C103.123085,150.737671 102.982979,150.489838 102.898056,149.805664 
	C101.514671,148.977844 100.212227,148.509445 98.941513,148.038483 
	C98.973251,148.035919 98.945015,148.093262 98.945015,148.093262 
z"/>
<path fill="#E5CE7A" opacity="1.000000" stroke="none" 
	d="
M135.067062,65.000275 
	C136.152740,64.764473 137.238403,64.528664 139.003754,64.137917 
	C141.121643,63.653297 142.559845,63.323616 143.998047,62.993935 
	C144.408295,62.996281 144.818558,62.998631 145.536484,63.004204 
	C140.257187,67.325630 133.924286,68.571815 127.052864,67.532883 
	C125.789543,67.341881 124.546562,67.016350 123.082840,66.402084 
	C123.744202,65.868347 124.616905,65.685448 126.109314,65.426842 
	C129.508362,65.234184 132.287720,65.117233 135.067062,65.000275 
z"/>
<path fill="#E1C064" opacity="1.000000" stroke="none" 
	d="
M73.990105,127.013412 
	C71.959938,126.347855 69.929771,125.682289 67.530899,124.990128 
	C67.162193,124.963524 67.010323,124.563431 66.994843,124.350296 
	C67.832504,123.383125 68.594376,122.148483 69.556007,121.965889 
	C72.351318,121.435120 75.226669,121.325844 78.439484,121.040031 
	C78.808357,121.028831 78.984673,121.471931 78.788353,121.965157 
	C78.395584,123.639755 78.199142,124.821129 77.660149,126.050598 
	C76.208435,126.403603 75.099266,126.708511 73.990105,127.013412 
z"/>
<path fill="#CCB265" opacity="1.000000" stroke="none" 
	d="
M154.023804,149.591385 
	C149.492340,147.291122 145.304565,146.694931 141.598907,151.651016 
	C140.817535,152.696045 138.794876,152.812958 137.103699,153.147400 
	C138.569473,151.464111 140.424988,150.129959 141.951950,148.489914 
	C145.530533,144.646317 150.772232,144.893448 154.023804,149.591385 
z"/>
<path fill="#E0CA71" opacity="1.000000" stroke="none" 
	d="
M78.002693,126.002502 
	C78.199142,124.821129 78.395584,123.639755 78.842064,122.197464 
	C80.725388,125.000450 82.318558,128.086716 84.009430,131.118500 
	C84.816010,132.564697 85.808250,133.907349 86.452431,135.711151 
	C85.122581,136.406967 84.056686,136.688522 82.875076,136.723419 
	C82.507523,135.992554 82.255699,135.508347 82.232063,134.768280 
	C82.758339,130.737000 81.736977,127.653046 77.997971,125.996811 
	C77.999695,125.999451 78.002693,126.002502 78.002693,126.002502 
z"/>
<path fill="#EEDA89" opacity="1.000000" stroke="none" 
	d="
M189.966156,17.963516 
	C183.956177,17.976505 177.946213,17.989494 171.468811,18.007040 
	C171.007370,17.823261 171.013351,17.634926 171.029694,17.164116 
	C177.302307,16.249794 183.562317,15.594177 189.828232,15.000709 
	C191.685623,14.824786 193.721893,14.643094 192.097412,17.840328 
	C190.915054,18.001024 190.440613,17.982269 189.966156,17.963516 
z"/>
<path fill="#E4CD81" opacity="1.000000" stroke="none" 
	d="
M79.039368,87.670349 
	C77.515137,90.952263 76.048737,93.878677 74.232437,96.873871 
	C75.533653,91.859833 77.184761,86.777008 79.002579,81.348724 
	C79.145271,83.107132 79.121231,85.210983 79.039368,87.670349 
z"/>
<path fill="#E1DE9D" opacity="1.000000" stroke="none" 
	d="
M114.796318,53.630524 
	C114.041451,54.270409 113.244637,54.528904 112.159821,54.919842 
	C110.388847,50.567429 110.221596,46.211128 113.012276,41.460209 
	C113.661804,45.855618 114.208092,49.552376 114.796318,53.630524 
z"/>
<path fill="#CCB265" opacity="1.000000" stroke="none" 
	d="
M171.395813,136.884796 
	C173.469757,135.581894 175.954666,134.352325 178.838196,132.925522 
	C177.825775,132.342880 177.146576,131.951981 176.232208,131.357819 
	C178.429352,131.154556 180.861679,131.154556 184.001678,131.154556 
	C180.360703,135.062073 176.674881,137.221512 171.395813,136.884796 
z"/>
<path fill="#EEE49E" opacity="1.000000" stroke="none" 
	d="
M44.972176,65.618492 
	C43.896778,66.506950 42.674427,67.072220 41.183830,67.863892 
	C40.667511,67.900475 40.223423,67.731194 40.201054,67.517715 
	C39.911377,64.753616 39.681667,61.983223 39.436821,59.214420 
	C41.232956,61.241379 43.029087,63.268341 44.972176,65.618492 
z"/>
<path fill="#ECD991" opacity="1.000000" stroke="none" 
	d="
M87.019531,62.000927 
	C87.009399,63.058537 86.999268,64.116142 86.988327,65.569160 
	C85.190323,69.576378 83.393127,73.188187 81.247459,76.887985 
	C82.334541,72.078331 83.770096,67.180710 85.830048,62.128288 
	C86.642799,61.982635 86.831169,61.991779 87.019531,62.000927 
z"/>
<path fill="#E4CD81" opacity="1.000000" stroke="none" 
	d="
M153.408295,60.028934 
	C155.432144,58.727554 157.846313,57.376888 160.639130,56.000874 
	C161.455292,55.967167 161.892792,55.958817 162.995392,55.957848 
	C164.109879,55.957840 164.559280,55.950443 165.008698,55.943047 
	C168.059738,55.967812 171.110794,55.992577 174.620224,56.027550 
	C173.263062,56.357185 171.444504,56.660633 169.632507,56.999065 
	C164.353149,57.985100 159.076416,58.985123 153.408295,60.028934 
z"/>
<path fill="#EEE49E" opacity="1.000000" stroke="none" 
	d="
M189.633148,18.124834 
	C190.440613,17.982269 190.915054,18.001024 191.745239,18.026886 
	C186.024185,23.906797 178.468475,21.650864 171.132660,21.429808 
	C177.042282,20.129116 183.171219,19.207634 189.633148,18.124834 
z"/>
<path fill="#ECD991" opacity="1.000000" stroke="none" 
	d="
M93.112907,46.404350 
	C93.702263,46.806843 94.215546,47.600937 95.232445,49.174160 
	C95.730835,46.821426 96.070862,45.216267 96.608292,43.316856 
	C96.805687,46.827351 96.805687,50.632095 96.805687,54.436844 
	C96.452881,54.580791 96.100082,54.724739 95.747276,54.868683 
	C94.843796,52.177773 93.940315,49.486862 93.112907,46.404350 
z"/>
<path fill="#DFC477" opacity="1.000000" stroke="none" 
	d="
M62.047150,149.530182 
	C61.537090,149.085220 60.973915,148.212341 60.225258,147.151123 
	C61.165607,144.041748 62.291435,141.120712 63.764938,138.126587 
	C63.406418,141.736404 62.700226,145.419327 62.047150,149.530182 
z"/>
<path fill="#DFC477" opacity="1.000000" stroke="none" 
	d="
M49.672646,146.000366 
	C52.294827,147.121109 54.566738,148.268173 56.895752,149.763611 
	C53.929310,149.412079 50.905773,148.712173 47.472717,148.060913 
	C47.816257,147.415283 48.569317,146.720978 49.672646,146.000366 
z"/>
<path fill="#E6D38A" opacity="1.000000" stroke="none" 
	d="
M205.007355,27.949314 
	C203.863937,28.289558 202.720505,28.629799 201.214417,28.967899 
	C202.367508,27.647249 203.719284,25.896729 205.481628,25.227798 
	C206.164383,24.968645 207.776245,27.157297 208.888733,28.618744 
	C208.414963,29.002258 208.017303,28.997854 207.321838,28.991241 
	C207.024063,28.989033 207.005478,28.987356 207.004288,28.701508 
	C206.781815,27.900757 206.560532,27.385857 206.339264,26.870956 
	C205.895279,27.230410 205.451324,27.589861 205.007355,27.949314 
z"/>
<path fill="#D3BA6E" opacity="1.000000" stroke="none" 
	d="
M34.740761,164.709473 
	C35.654171,166.817947 36.324024,168.624283 36.988594,170.803223 
	C32.966660,167.935501 32.719292,163.484360 33.304310,158.432281 
	C33.583000,158.009232 33.992996,158.053635 33.992996,158.053635 
	C34.161068,160.171524 34.329140,162.289413 34.740761,164.709473 
z"/>
<path fill="#BB9F54" opacity="1.000000" stroke="none" 
	d="
M166.978699,177.351868 
	C167.602982,176.212799 168.261047,175.436356 168.968781,174.345856 
	C170.176422,174.374741 171.334366,174.717682 172.781311,175.044296 
	C171.750031,176.456528 170.471832,177.931747 169.033005,179.228790 
	C168.912476,179.337448 167.711472,178.247543 166.978699,177.351868 
z"/>
<path fill="#E4CD81" opacity="1.000000" stroke="none" 
	d="
M137.560577,120.111450 
	C137.686325,120.621880 137.430786,121.064156 137.060944,121.734856 
	C134.833740,122.630836 132.720810,123.298401 130.228333,123.959190 
	C132.292267,122.649384 134.735794,121.346344 137.560577,120.111450 
z"/>
<path fill="#E6D38A" opacity="1.000000" stroke="none" 
	d="
M198.567169,29.920914 
	C196.544067,31.222908 194.143707,32.577271 191.359467,33.927238 
	C190.972809,33.755589 190.970032,33.588322 190.964478,33.170296 
	C193.371109,31.937450 195.780518,30.955366 198.567169,29.920914 
z"/>
<path fill="#CBA54A" opacity="1.000000" stroke="none" 
	d="
M182.664124,137.000122 
	C181.953842,138.565292 186.437775,142.698318 180.278015,141.755829 
	C179.985001,140.577118 179.983322,139.877716 179.981644,139.178314 
	C180.779556,138.496765 181.577484,137.815216 182.664124,137.000122 
z"/>
<path fill="#DFC477" opacity="1.000000" stroke="none" 
	d="
M161.352356,123.171921 
	C160.060883,122.278511 159.113098,121.526520 158.079681,120.477081 
	C160.583588,121.224266 163.173157,122.268913 165.921707,123.632614 
	C164.619156,123.738892 163.157623,123.526115 161.352356,123.171921 
z"/>
<path fill="#E0CA71" opacity="1.000000" stroke="none" 
	d="
M73.983521,127.280548 
	C75.099266,126.708511 76.208435,126.403603 77.660149,126.050598 
	C78.002693,126.002502 77.999695,125.999451 77.941154,126.346451 
	C77.276115,128.450272 76.669617,130.207092 76.029182,131.987061 
	C75.995247,132.010208 75.935852,132.066956 75.935852,132.066956 
	C75.240593,130.934723 74.545334,129.802490 73.909668,128.376144 
	C73.971817,127.903908 73.974380,127.725792 73.983521,127.280548 
z"/>
<path fill="#E0CA71" opacity="1.000000" stroke="none" 
	d="
M82.015831,138.993362 
	C81.751938,139.218353 81.488037,139.443329 81.087296,139.891037 
	C79.640266,137.998932 78.330086,135.884109 77.004799,133.388672 
	C76.989693,133.008057 77.034172,132.953964 77.349869,133.037781 
	C78.780663,133.756073 79.895760,134.390549 81.048782,135.307007 
	C81.387413,136.053787 81.688126,136.518600 81.993324,137.318451 
	C82.003822,138.100113 82.009827,138.546738 82.015831,138.993362 
z"/>
<path fill="#E4CD81" opacity="1.000000" stroke="none" 
	d="
M73.152191,104.631920 
	C72.587837,104.994301 72.194252,104.992683 71.505280,104.991890 
	C71.894142,102.410530 72.578392,99.828346 73.598335,97.070724 
	C73.730347,99.352821 73.526657,101.810371 73.152191,104.631920 
z"/>
<path fill="#D3BA6E" opacity="1.000000" stroke="none" 
	d="
M92.048798,142.668579 
	C90.557014,141.876587 88.914680,140.776749 87.129646,138.996399 
	C87.008209,137.823059 87.029472,137.330246 87.050735,136.837448 
	C88.666580,138.678543 90.282417,140.519638 92.048798,142.668579 
z"/>
<path fill="#CDAE58" opacity="1.000000" stroke="none" 
	d="
M179.644745,139.210968 
	C179.983322,139.877716 179.985001,140.577118 179.981339,141.625519 
	C178.828491,142.941406 177.681000,143.908295 176.208221,144.912567 
	C177.024551,143.047867 178.166199,141.145737 179.644745,139.210968 
z"/>
<path fill="#E0BF5D" opacity="1.000000" stroke="none" 
	d="
M87.028839,136.626907 
	C87.029472,137.330246 87.008209,137.823059 86.967133,138.686340 
	C86.517372,139.041901 86.087425,139.026978 85.334557,139.009476 
	C84.175896,138.939316 83.340149,138.871719 82.260117,138.898743 
	C82.009827,138.546738 82.003822,138.100113 82.243904,137.317596 
	C82.656929,136.977829 82.823860,136.973953 82.990799,136.970093 
	C84.056686,136.688522 85.122581,136.406967 86.516518,136.075409 
	C86.844566,136.025421 87.006943,136.416367 87.028839,136.626907 
z"/>
<path fill="#E4C563" opacity="1.000000" stroke="none" 
	d="
M144.134308,62.694923 
	C142.559845,63.323616 141.121643,63.653297 139.308578,63.993134 
	C140.225388,62.928486 141.517059,61.853683 142.896271,60.473614 
	C143.421280,60.108845 143.858734,60.049339 144.625015,59.938484 
	C144.726074,60.723396 144.498306,61.559654 144.134308,62.694923 
z"/>
<path fill="#CCB265" opacity="1.000000" stroke="none" 
	d="
M132.353302,153.967255 
	C131.107910,153.132629 130.207932,152.296722 129.176544,151.179901 
	C130.951859,151.357529 132.858582,151.816055 134.957184,152.603699 
	C134.332275,153.277206 133.515503,153.621597 132.353302,153.967255 
z"/>
<path fill="#E4CD81" opacity="1.000000" stroke="none" 
	d="
M34.148415,157.716797 
	C33.992996,158.053635 33.583000,158.009232 33.377190,157.996582 
	C33.876766,155.732056 34.582153,153.480209 35.612232,151.063187 
	C35.392563,153.058670 34.848198,155.219315 34.148415,157.716797 
z"/>
<path fill="#E6D38A" opacity="1.000000" stroke="none" 
	d="
M66.050293,99.610931 
	C65.071869,98.531578 64.043320,97.103745 63.031773,95.289032 
	C64.032570,96.355591 65.016365,97.809013 66.050293,99.610931 
z"/>
<path fill="#E4CD81" opacity="1.000000" stroke="none" 
	d="
M58.620178,134.048004 
	C58.162941,135.869644 57.384521,137.844254 56.245350,139.884918 
	C56.689396,138.034302 57.494194,136.117661 58.620178,134.048004 
z"/>
<path fill="#E4CD81" opacity="1.000000" stroke="none" 
	d="
M60.591286,129.060852 
	C61.989403,130.967804 62.604168,132.908142 59.232452,133.908142 
	C59.343639,132.371124 59.803635,130.794083 60.591286,129.060852 
z"/>
<path fill="#EEE49E" opacity="1.000000" stroke="none" 
	d="
M105.385147,26.046705 
	C106.496399,24.744371 107.951180,23.397169 109.770966,22.043045 
	C108.666870,23.358028 107.197769,24.679932 105.385147,26.046705 
z"/>
<path fill="#ECD991" opacity="1.000000" stroke="none" 
	d="
M85.104424,54.395813 
	C85.625885,54.270638 86.061424,54.532024 86.725708,54.900543 
	C86.962585,56.071831 86.970703,57.135986 86.714203,58.607529 
	C86.275887,59.022114 86.102196,59.029316 85.928497,59.036514 
	C85.625160,57.618469 85.321831,56.200424 85.104424,54.395813 
z"/>
<path fill="#D3BA6E" opacity="1.000000" stroke="none" 
	d="
M39.036301,173.385529 
	C40.535175,173.776093 42.175423,174.484619 43.917103,175.521179 
	C42.404915,175.133972 40.791298,174.418732 39.036301,173.385529 
z"/>
<path fill="#E6D38A" opacity="1.000000" stroke="none" 
	d="
M61.070541,91.594986 
	C60.100502,90.507019 59.070232,89.072594 58.049034,87.263794 
	C59.042175,88.342461 60.026241,89.795494 61.070541,91.594986 
z"/>
<path fill="#DFC477" opacity="1.000000" stroke="none" 
	d="
M64.032707,155.542267 
	C63.379047,154.170349 62.707367,152.411804 62.041084,150.279266 
	C62.702553,151.655380 63.358620,153.405518 64.032707,155.542267 
z"/>
<path fill="#E4CD81" opacity="1.000000" stroke="none" 
	d="
M39.599876,146.938599 
	C39.155563,147.881348 38.361763,148.876587 37.218826,149.906128 
	C37.663254,148.957306 38.456818,147.974197 39.599876,146.938599 
z"/>
<path fill="#E4CD81" opacity="1.000000" stroke="none" 
	d="
M123.606064,128.937500 
	C122.776299,129.643646 121.600609,130.414017 120.131340,131.081787 
	C120.978554,130.320023 122.119347,129.660873 123.606064,128.937500 
z"/>
<path fill="#EEDA89" opacity="1.000000" stroke="none" 
	d="
M85.970894,59.398499 
	C86.102196,59.029316 86.275887,59.022114 86.709854,59.006649 
	C87.128433,59.861130 87.286751,60.723877 87.232300,61.793777 
	C86.831169,61.991779 86.642799,61.982635 86.172348,61.955452 
	C85.931267,61.211769 85.972282,60.486126 85.970894,59.398499 
z"/>
<path fill="#E4CD81" opacity="1.000000" stroke="none" 
	d="
M128.728683,124.118752 
	C128.236176,125.078720 127.421471,126.025597 126.244812,126.955399 
	C126.724068,125.994095 127.565269,125.049881 128.728683,124.118752 
z"/>
<path fill="#CBA54A" opacity="1.000000" stroke="none" 
	d="
M192.960709,145.686676 
	C192.963913,145.025146 193.108795,144.090729 193.536072,143.081360 
	C193.579788,143.808884 193.341095,144.611343 192.960709,145.686676 
z"/>
<path fill="#E6D38A" opacity="1.000000" stroke="none" 
	d="
M70.048920,105.634735 
	C69.641769,105.975166 69.174026,105.990471 68.355484,106.015739 
	C68.004066,105.246735 68.003448,104.467766 68.026375,103.300491 
	C68.696045,103.711327 69.342186,104.510468 70.048920,105.634735 
z"/>
<path fill="#DFC477" opacity="1.000000" stroke="none" 
	d="
M64.365021,137.978424 
	C64.516838,137.132538 64.974136,136.160797 65.776230,135.125443 
	C65.637527,135.992065 65.154015,136.922318 64.365021,137.978424 
z"/>
<path fill="#DFC477" opacity="1.000000" stroke="none" 
	d="
M169.343826,126.989296 
	C168.695450,126.696716 167.874084,126.175293 167.051819,125.276688 
	C167.757553,125.519829 168.464203,126.140137 169.343826,126.989296 
z"/>
<path fill="#E6D38A" opacity="1.000000" stroke="none" 
	d="
M63.050350,94.633095 
	C62.423061,94.170639 61.739376,93.381172 61.060593,92.233894 
	C61.708313,92.686089 62.351131,93.496078 63.050350,94.633095 
z"/>
<path fill="#E6D38A" opacity="1.000000" stroke="none" 
	d="
M68.042923,102.635468 
	C67.417030,102.178787 66.733627,101.396553 66.048477,100.259277 
	C66.692947,100.706139 67.339180,101.508034 68.042923,102.635468 
z"/>
<path fill="#E5CE7A" opacity="1.000000" stroke="none" 
	d="
M201.327118,33.898140 
	C201.362198,33.418999 201.715927,33.012859 202.069641,32.606720 
	C202.338104,32.926292 202.606567,33.245872 202.909515,33.836475 
	C202.511246,34.062042 202.078506,34.016586 201.327118,33.898140 
z"/>
<path fill="#DFC477" opacity="1.000000" stroke="none" 
	d="
M59.940414,155.380295 
	C60.147415,155.658127 60.420406,156.258575 60.434128,156.932251 
	C60.118706,156.571304 60.062557,156.137100 59.940414,155.380295 
z"/>
<path fill="#E4CD81" opacity="1.000000" stroke="none" 
	d="
M54.998165,142.643921 
	C54.534973,142.991776 54.073296,142.992477 53.265091,142.975861 
	C53.410461,142.350754 53.902351,141.742966 54.670319,141.021454 
	C54.964153,141.370758 54.981915,141.833771 54.998165,142.643921 
z"/>
<path fill="#DFC477" opacity="1.000000" stroke="none" 
	d="
M57.936291,151.321426 
	C58.234867,151.510483 58.584457,152.026184 58.955532,152.864487 
	C58.647114,152.674088 58.317207,152.161072 57.936291,151.321426 
z"/>
<path fill="#F1DB85" opacity="1.000000" stroke="none" 
	d="
M164.660248,15.093740 
	C164.422913,15.211474 163.866608,15.251017 163.172867,15.088763 
	C163.470718,14.929828 163.905975,14.972689 164.660248,15.093740 
z"/>
<path fill="#DFC477" opacity="1.000000" stroke="none" 
	d="
M171.029236,128.807007 
	C170.632278,128.761612 170.164505,128.479370 169.547363,127.802902 
	C169.918137,127.795845 170.438278,128.183014 171.029236,128.807007 
z"/>
<path fill="#E4CD81" opacity="1.000000" stroke="none" 
	d="
M42.655624,145.095581 
	C42.467274,145.417984 41.968342,145.672348 41.181770,145.936523 
	C41.377769,145.640091 41.861401,145.333817 42.655624,145.095581 
z"/>
<path fill="#BB9F54" opacity="1.000000" stroke="none" 
	d="
M176.273346,172.002930 
	C176.222549,171.815308 176.431976,171.543350 176.866547,171.141617 
	C176.905640,171.314087 176.719604,171.616348 176.273346,172.002930 
z"/>
<path fill="#E7CA71" opacity="1.000000" stroke="none" 
	d="
M85.858231,89.744736 
	C85.529793,89.780960 85.457558,89.533020 85.684517,89.135422 
	C85.784149,89.030281 85.914886,89.505096 85.858231,89.744736 
z"/>
<path fill="#E1C064" opacity="1.000000" stroke="none" 
	d="
M39.872871,167.727600 
	C39.573860,167.819763 39.369553,167.586349 39.132378,167.081116 
	C39.323029,167.064514 39.612381,167.262085 39.872871,167.727600 
z"/>
<path fill="#BB9F54" opacity="1.000000" stroke="none" 
	d="
M179.287781,168.064545 
	C179.243637,167.890671 179.452576,167.601486 179.892090,167.172302 
	C179.928757,167.337952 179.734802,167.643600 179.287781,168.064545 
z"/>
<path fill="#E6D38A" opacity="1.000000" stroke="none" 
	d="
M58.033127,86.730888 
	C57.853672,86.773308 57.583317,86.554535 57.174809,86.113388 
	C57.338512,86.083900 57.640369,86.276802 58.033127,86.730888 
z"/>
<path fill="#EEE49E" opacity="1.000000" stroke="none" 
	d="
M45.877850,66.746948 
	C45.561878,66.838554 45.359154,66.597588 45.127834,66.079666 
	C45.327045,66.065063 45.624329,66.268951 45.877850,66.746948 
z"/>
<path fill="#BB9F54" opacity="1.000000" stroke="none" 
	d="
M178.279877,170.012817 
	C178.121826,169.796356 178.277954,169.523254 178.672180,169.128448 
	C178.747391,169.290359 178.641983,169.606842 178.279877,170.012817 
z"/>
<path fill="#BB9F54" opacity="1.000000" stroke="none" 
	d="
M177.275375,171.008286 
	C177.224548,170.819550 177.436798,170.547958 177.873505,170.143127 
	C177.911469,170.315079 177.724960,170.620255 177.275375,171.008286 
z"/>
<path fill="#D3BA6E" opacity="1.000000" stroke="none" 
	d="
M37.938347,172.283981 
	C38.120499,172.229324 38.412453,172.434662 38.849602,172.867416 
	C38.679245,172.911209 38.363693,172.727600 37.938347,172.283981 
z"/>
<path fill="#ECD991" opacity="1.000000" stroke="none" 
	d="
M97.302139,41.032574 
	C97.039520,40.921597 97.033791,40.715775 97.049896,40.201324 
	C97.234169,40.241047 97.396606,40.589390 97.302139,41.032574 
z"/>
<path fill="#ECD991" opacity="1.000000" stroke="none" 
	d="
M97.071213,39.705475 
	C96.750938,39.837460 96.598000,39.609760 96.763023,39.134701 
	C96.861740,39.010265 97.019302,39.468712 97.071213,39.705475 
z"/>
<path fill="#BB9F54" opacity="1.000000" stroke="none" 
	d="
M175.267914,173.029602 
	C175.217422,172.847580 175.424545,172.565247 175.859070,172.146759 
	C175.899475,172.316833 175.712509,172.623077 175.267914,173.029602 
z"/>
<path fill="#E6D38A" opacity="1.000000" stroke="none" 
	d="
M199.746887,29.116482 
	C199.840485,29.426960 199.600235,29.634388 199.083466,29.876261 
	C199.066925,29.678736 199.268967,29.379644 199.746887,29.116482 
z"/>
<path fill="#BB9F54" opacity="1.000000" stroke="none" 
	d="
M173.258499,174.981567 
	C173.222961,174.810104 173.439743,174.540848 173.880737,174.137512 
	C173.906906,174.296890 173.708862,174.590332 173.258499,174.981567 
z"/>
<path fill="#EEE49E" opacity="1.000000" stroke="none" 
	d="
M104.281937,27.006977 
	C104.243629,26.836771 104.458824,26.570223 104.888817,26.158430 
	C104.914223,26.312336 104.724831,26.611486 104.281937,27.006977 
z"/>
<path fill="#EEE49E" opacity="1.000000" stroke="none" 
	d="
M111.238823,21.891434 
	C111.145477,21.576370 111.382874,21.368198 111.892517,21.124451 
	C111.913025,21.331186 111.714622,21.634338 111.238823,21.891434 
z"/>
<path fill="#EEE49E" opacity="1.000000" stroke="none" 
	d="
M112.276535,21.024761 
	C112.230263,20.837633 112.450684,20.566767 112.895248,20.157812 
	C112.927338,20.326820 112.735283,20.633921 112.276535,21.024761 
z"/>
<path fill="#CCB265" opacity="1.000000" stroke="none" 
	d="
M174.060242,130.716522 
	C173.854568,130.879791 173.562149,130.728455 173.134521,130.330429 
	C173.291580,130.252533 173.616302,130.358612 174.060242,130.716522 
z"/>
<path fill="#DFC477" opacity="1.000000" stroke="none" 
	d="
M46.246372,148.903412 
	C46.148075,148.588089 46.381592,148.375839 46.889301,148.130005 
	C46.914181,148.340149 46.719078,148.643494 46.246372,148.903412 
z"/>
<path fill="#E4CD81" opacity="1.000000" stroke="none" 
	d="
M55.722610,139.972656 
	C55.769604,140.155258 55.552254,140.430054 55.113960,140.850342 
	C55.081429,140.685501 55.269848,140.375183 55.722610,139.972656 
z"/>
<path fill="#DFC477" opacity="1.000000" stroke="none" 
	d="
M66.292213,135.037598 
	C66.242577,134.850449 66.456810,134.573730 66.898087,134.160309 
	C66.935440,134.331757 66.745766,134.639893 66.292213,135.037598 
z"/>
<path fill="#DFC477" opacity="1.000000" stroke="none" 
	d="
M67.298370,134.029633 
	C67.137161,133.819550 67.286850,133.545929 67.668640,133.147339 
	C67.748039,133.306534 67.650879,133.621124 67.298370,134.029633 
z"/>
<path fill="#E4CD81" opacity="1.000000" stroke="none" 
	d="
M36.715881,149.957413 
	C36.766151,150.139435 36.553532,150.421463 36.118858,150.850220 
	C36.082199,150.683777 36.267593,150.370605 36.715881,149.957413 
z"/>
<path fill="#DFC477" opacity="1.000000" stroke="none" 
	d="
M56.986603,150.268341 
	C57.169731,150.222992 57.441174,150.441650 57.854805,150.881592 
	C57.689636,150.912704 57.382278,150.722534 56.986603,150.268341 
z"/>
<path fill="#E0CA71" opacity="1.000000" stroke="none" 
	d="
M76.964844,133.032715 
	C76.653709,132.890884 76.367424,132.724380 76.008499,132.312424 
	C75.935852,132.066956 75.995247,132.010208 76.225540,132.115540 
	C76.701981,132.423126 76.894760,132.667480 77.034172,132.953964 
	C77.034172,132.953964 76.989693,133.008057 76.964844,133.032715 
z"/>
<path fill="#CCB265" opacity="1.000000" stroke="none" 
	d="
M155.002716,150.738113 
	C154.820343,150.785751 154.548187,150.573395 154.138245,150.139679 
	C154.304626,150.104919 154.608765,150.291519 155.002716,150.738113 
z"/>
<path fill="#E4CD81" opacity="1.000000" stroke="none" 
	d="
M40.727097,145.974670 
	C40.770279,146.156403 40.548149,146.429840 40.103088,146.848755 
	C40.074036,146.684937 40.267910,146.375656 40.727097,145.974670 
z"/>
<path fill="#EEE49E" opacity="1.000000" stroke="none" 
	d="
M114.250229,19.858807 
	C114.176971,19.561897 114.414658,19.368504 114.905334,19.131657 
	C114.916336,19.326813 114.717285,19.618185 114.250229,19.858807 
z"/>
<path fill="#D3BA6E" opacity="1.000000" stroke="none" 
	d="
M109.832794,151.714844 
	C109.550362,151.787277 109.351280,151.544464 109.111221,151.036942 
	C109.292480,151.030334 109.574448,151.239456 109.832794,151.714844 
z"/>
<path fill="#E4CD81" opacity="1.000000" stroke="none" 
	d="
M124.730103,127.983536 
	C124.780602,128.178909 124.559669,128.453217 124.109436,128.863403 
	C124.072983,128.686996 124.265823,128.374741 124.730103,127.983536 
z"/>
<path fill="#CCB265" opacity="1.000000" stroke="none" 
	d="
M156.031677,151.720871 
	C155.859894,151.765823 155.578354,151.556564 155.146591,151.128784 
	C155.304886,151.095718 155.613403,151.281189 156.031677,151.720871 
z"/>
<path fill="#DBC273" opacity="1.000000" stroke="none" 
	d="
M106.872200,128.730698 
	C106.568077,128.811127 106.364708,128.563431 106.134155,128.036896 
	C106.328705,128.027847 106.617363,128.242691 106.872200,128.730698 
z"/>
<path fill="#E4CD81" opacity="1.000000" stroke="none" 
	d="
M125.727386,126.972443 
	C125.783585,127.167068 125.568459,127.443649 125.129433,127.861412 
	C125.089050,127.686531 125.272568,127.370461 125.727386,126.972443 
z"/>
<path fill="#DFC477" opacity="1.000000" stroke="none" 
	d="
M59.104408,154.231125 
	C59.419727,154.134949 59.633472,154.376907 59.875725,154.903046 
	C59.669918,154.922791 59.369450,154.716797 59.104408,154.231125 
z"/>
<path fill="#DFC477" opacity="1.000000" stroke="none" 
	d="
M167.010101,124.734306 
	C166.821152,124.786011 166.548767,124.572289 166.138275,124.136543 
	C166.309006,124.099304 166.617828,124.284088 167.010101,124.734306 
z"/>
<path fill="#C19738" opacity="1.000000" stroke="none" 
	d="
M136.010284,182.015991 
	C136.022400,182.030869 135.785400,182.347412 135.785400,182.347412 
	C135.785400,182.347412 135.788162,182.082123 135.878189,182.029602 
	C135.968216,181.977097 135.998184,182.001114 136.010284,182.015991 
z"/>
<path fill="#C19738" opacity="1.000000" stroke="none" 
	d="
M163.000916,170.999268 
	C163.001846,170.998535 163.331268,171.203278 163.331268,171.203278 
	C163.331268,171.203278 163.087067,171.187561 163.042816,171.094696 
	C162.998550,171.001831 163.000000,171.000000 163.000916,170.999268 
z"/>
<path fill="#E2C068" opacity="1.000000" stroke="none" 
	d="
M75.000946,109.653748 
	C74.674286,109.211670 74.335350,108.440079 73.989243,107.337067 
	C74.317604,107.778519 74.653137,108.551384 75.000946,109.653748 
z"/>
<path fill="#E9CD72" opacity="1.000000" stroke="none" 
	d="
M198.112640,69.595779 
	C198.397049,69.726936 198.635010,70.064674 198.872986,70.402420 
	C198.670059,70.500298 198.467148,70.598183 198.264221,70.696068 
	C198.198212,70.398170 198.132217,70.100266 198.112640,69.595779 
z"/>
<path fill="#000000" opacity="1.000000" stroke="none" 
	d="
M105.994789,154.130630 
	C105.994789,154.130630 106.027031,154.567261 106.187561,155.174484 
	C106.191345,159.504730 106.034599,163.227753 105.877861,166.950775 
	C105.877861,166.950775 105.969849,166.976273 105.716537,167.023193 
	C105.273476,167.379181 105.083740,167.688263 104.893997,167.997360 
	C104.894005,167.997360 104.973701,167.963943 104.638184,168.075073 
	C102.153267,169.447296 100.003883,170.708405 97.854492,171.969513 
	C94.807434,171.383850 91.760368,170.798203 88.389122,170.042038 
	C86.713333,168.152267 85.361725,166.433029 84.061920,164.374695 
	C84.815376,159.810440 85.517029,155.585297 86.656693,151.443085 
	C87.420609,151.363983 87.746513,151.201935 88.072426,151.039871 
	C88.072426,151.039871 88.007126,151.021790 88.273582,150.973633 
	C88.724602,150.620163 88.909172,150.314835 89.093742,150.009506 
	C89.093742,150.009506 89.008949,150.010025 89.278206,149.975250 
	C89.730995,149.630798 89.914536,149.321091 90.098068,149.011383 
	C90.098068,149.011383 90.037277,149.035248 90.054733,149.062897 
	C92.750938,148.723389 95.429680,148.356216 98.526718,148.041168 
	C98.945015,148.093262 98.973251,148.035919 99.097122,148.346771 
	C100.473663,149.160095 101.726334,149.662567 102.979004,150.165039 
	C102.982979,150.489838 103.123085,150.737671 103.735519,151.215607 
	C104.381554,151.715607 104.691391,151.908539 105.001228,152.101471 
	C105.001228,152.101471 104.979935,152.016586 105.000809,152.344162 
	C105.346054,153.158035 105.670418,153.644333 105.994789,154.130630 
z"/>
<path fill="#D3BA6E" opacity="1.000000" stroke="none" 
	d="
M89.870903,149.141525 
	C89.914536,149.321091 89.730995,149.630798 89.279182,150.017639 
	C89.221848,149.820419 89.432785,149.546051 89.870903,149.141525 
z"/>
<path fill="#D3BA6E" opacity="1.000000" stroke="none" 
	d="
M88.870422,150.142471 
	C88.909172,150.314835 88.724602,150.620163 88.276672,151.007385 
	C88.224571,150.817993 88.435844,150.546707 88.870422,150.142471 
z"/>
<path fill="#D3BA6E" opacity="1.000000" stroke="none" 
	d="
M87.788147,151.029633 
	C87.746513,151.201935 87.420609,151.363983 87.014893,151.279373 
	C87.124680,151.028259 87.314270,151.023834 87.788147,151.029633 
z"/>
<path fill="#E2C068" opacity="1.000000" stroke="none" 
	d="
M75.007294,114.997528 
	C74.743187,115.089478 74.471687,115.182945 74.095947,115.144180 
	C73.991707,115.011948 74.001953,114.998199 74.253906,114.993828 
	C74.505859,114.989456 74.999771,114.987938 74.999771,114.987938 
	C74.999771,114.987938 74.999893,114.999039 75.007294,114.997528 
z"/>
<path fill="#E6C76A" opacity="1.000000" stroke="none" 
	d="
M164.841095,55.762932 
	C164.559280,55.950443 164.109879,55.957840 163.323639,55.949303 
	C163.549057,55.816521 164.111267,55.699665 164.841095,55.762932 
z"/>
<path fill="#E5CE7A" opacity="1.000000" stroke="none" 
	d="
M205.038208,28.197502 
	C205.451324,27.589861 205.895279,27.230410 206.339264,26.870956 
	C206.560532,27.385857 206.781815,27.900757 207.006729,28.694191 
	C206.363251,28.797045 205.716156,28.621367 205.038208,28.197502 
z"/>
<path fill="#CEAD61" opacity="1.000000" stroke="none" 
	d="
M98.156479,172.098816 
	C100.003883,170.708405 102.153267,169.447296 104.619637,168.036041 
	C104.429749,169.077209 103.922882,170.268555 103.191132,171.717422 
	C102.430603,172.157776 101.894951,172.340607 101.156372,172.725998 
	C100.121780,172.695084 99.290123,172.461609 98.156479,172.098816 
z"/>
<path fill="#E4CD81" opacity="1.000000" stroke="none" 
	d="
M74.867233,114.788254 
	C74.999771,114.987938 74.505859,114.989456 74.259048,114.988518 
	C74.012238,114.987579 73.994820,114.499443 73.985588,114.255539 
	C74.273460,114.145699 74.526245,114.338013 74.867233,114.788254 
z"/>
<path fill="#CEAD61" opacity="1.000000" stroke="none" 
	d="
M106.205078,166.894302 
	C106.034599,163.227753 106.191345,159.504730 106.265121,155.379181 
	C107.117546,156.093933 108.052940,157.211227 109.004425,158.681488 
	C108.191116,161.635590 107.361710,164.236710 106.205078,166.894302 
z"/>
<path fill="#CEAD61" opacity="1.000000" stroke="none" 
	d="
M105.114807,167.851898 
	C105.083740,167.688263 105.273476,167.379181 105.727432,166.976715 
	C105.772964,167.157715 105.554298,167.432083 105.114807,167.851898 
z"/>
<path fill="#D0A94A" opacity="1.000000" stroke="none" 
	d="
M96.669800,145.808167 
	C96.370560,145.654144 96.243332,145.461411 96.116112,145.268677 
	C96.266373,145.229233 96.511230,145.115021 96.549828,145.163849 
	C96.685463,145.335449 96.750175,145.563095 96.669800,145.808167 
z"/>
<path fill="#E4C563" opacity="1.000000" stroke="none" 
	d="
M134.750046,64.757362 
	C132.287720,65.117233 129.508362,65.234184 126.364189,65.206337 
	C128.810577,64.879173 131.621811,64.696808 134.750046,64.757362 
z"/>
<path fill="#D3BA6E" opacity="1.000000" stroke="none" 
	d="
M102.898064,149.805649 
	C101.726334,149.662567 100.473663,149.160095 99.065384,148.349319 
	C100.212227,148.509445 101.514671,148.977844 102.898064,149.805649 
z"/>
<path fill="#D3BA6E" opacity="1.000000" stroke="none" 
	d="
M106.073410,153.879120 
	C105.670418,153.644333 105.346054,153.158035 104.958717,152.356094 
	C105.314507,152.569504 105.733269,153.098572 106.073410,153.879120 
z"/>
<path fill="#D3BA6E" opacity="1.000000" stroke="none" 
	d="
M104.850174,151.876480 
	C104.691391,151.908539 104.381554,151.715607 103.950172,151.269958 
	C104.118790,151.228653 104.408958,151.440063 104.850174,151.876480 
z"/>
<path fill="#E0BF5D" opacity="1.000000" stroke="none" 
	d="
M77.349869,133.037781 
	C76.894760,132.667480 76.701981,132.423126 76.259476,132.092392 
	C76.669617,130.207092 77.276115,128.450272 77.939430,126.343811 
	C81.736977,127.653046 82.758339,130.737000 81.983765,134.765274 
	C81.507271,135.018127 81.010849,135.025024 81.010849,135.025024 
	C79.895760,134.390549 78.780663,133.756073 77.349869,133.037781 
z"/>
<path fill="#DABC6E" opacity="1.000000" stroke="none" 
	d="
M81.048782,135.307007 
	C81.010849,135.025024 81.507271,135.018127 81.755569,135.021133 
	C82.255699,135.508347 82.507523,135.992554 82.875076,136.723419 
	C82.823860,136.973953 82.656929,136.977829 82.239410,136.982559 
	C81.688126,136.518600 81.387413,136.053787 81.048782,135.307007 
z"/>
</svg>