<svg version="1.1" id="Layer_1" xmlns="http://www.w3.org/2000/svg" xmlns:xlink="http://www.w3.org/1999/xlink" x="0px" y="0px"
	 width="100%" viewBox="0 0 233 246" enable-background="new 0 0 233 246" xml:space="preserve">
<path fill="#010100" opacity="1.000000" stroke="none" 
	d="
M125.000000,247.000000 
	C83.333336,247.000000 42.166672,247.000000 1.000005,247.000000 
	C1.000004,165.000000 1.000004,83.000015 1.000002,1.000016 
	C78.666656,1.000011 156.333313,1.000011 233.999969,1.000005 
	C233.999985,82.999985 233.999985,164.999969 234.000000,246.999969 
	C197.833328,247.000000 161.666672,247.000000 125.000000,247.000000 
M106.557098,140.585220 
	C106.557098,140.585220 106.599838,140.562866 107.083412,140.300598 
	C107.443970,139.904419 107.804535,139.508240 108.081062,139.096756 
	C108.081062,139.096756 108.074516,139.181931 108.715454,139.004044 
	C110.150116,138.105789 111.584778,137.207535 112.406868,136.692810 
	C109.563431,133.691162 106.917404,130.897903 104.155838,127.982681 
	C102.746330,130.352982 101.152626,133.033035 99.653275,135.738846 
	C99.653275,135.738846 99.621841,135.646225 99.152786,135.983139 
	C98.817551,136.658707 98.482315,137.334259 97.755440,138.596970 
	C94.501694,143.450790 91.247948,148.304611 87.411621,153.148666 
	C86.836258,153.663177 86.260902,154.177689 84.871124,154.801208 
	C83.260681,154.648239 81.639053,154.569458 80.041840,154.328720 
	C74.707008,153.524612 69.571587,153.788162 64.210602,156.912491 
	C62.378323,158.574905 60.546043,160.237305 58.299213,162.005310 
	C58.046795,162.187332 57.922905,162.433914 57.329403,163.075180 
	C56.712364,164.287643 56.095322,165.500122 55.597633,166.746567 
	C55.597633,166.746567 55.600845,166.622513 55.136276,167.071472 
	C54.968903,167.693527 54.801529,168.315567 54.817654,168.890793 
	C54.817654,168.890793 54.756519,168.711563 54.275040,169.110336 
	C54.175137,169.718262 54.075230,170.326202 53.690258,171.172668 
	C53.522087,171.407669 53.527122,171.638855 53.287178,172.676346 
	C53.251518,174.782425 53.215862,176.888504 53.083576,179.766617 
	C53.998997,182.412872 54.914417,185.059143 55.900181,188.347778 
	C58.544285,190.934158 61.188393,193.520523 64.307373,196.663208 
	C72.700516,200.529999 80.705948,200.196777 88.847336,194.178192 
	C95.039497,188.850861 98.367096,182.361679 97.142563,173.233368 
	C96.014275,169.485672 94.885994,165.737961 93.969475,161.282761 
	C94.315498,159.857147 94.661522,158.431534 95.423927,156.600464 
	C95.614639,156.065796 95.805351,155.531128 96.471275,154.541794 
	C97.492920,152.859177 98.514557,151.176544 99.566292,149.199036 
	C99.566292,149.199036 99.503052,149.488068 99.952827,149.051849 
	C100.482979,148.163574 101.013130,147.275299 101.427925,146.363892 
	C101.427925,146.363892 101.444069,146.480423 101.895699,146.161392 
	C102.053520,145.832306 102.211342,145.503220 102.237030,145.177414 
	C102.237030,145.177414 102.261040,145.307388 102.797142,145.037888 
	C103.244415,144.386887 103.691696,143.735886 104.060120,143.060501 
	C104.060120,143.060501 104.091148,143.136993 104.602379,142.931229 
	C104.928436,142.492432 105.254486,142.053650 105.673424,141.572601 
	C105.673424,141.572601 105.692902,141.472427 106.060883,141.287918 
	C106.291351,141.119629 106.448158,140.898987 106.557098,140.585220 
M163.235779,42.942226 
	C163.111786,43.277790 162.987793,43.613354 162.937881,43.944130 
	C162.937881,43.944130 162.906219,43.876984 162.355865,44.209465 
	C161.570648,45.470036 160.785431,46.730606 159.997559,47.998123 
	C159.997559,47.998123 159.992554,48.003281 159.455505,48.311050 
	C158.789886,49.347214 158.124283,50.383381 157.343353,51.480946 
	C157.343353,51.480946 157.348526,51.611477 156.978943,51.900539 
	C156.762939,52.146763 156.650070,52.433575 156.761414,52.812317 
	C156.761414,52.812317 156.686539,52.704197 156.126266,53.069962 
	C152.140945,59.051792 148.155624,65.033623 143.870697,71.622284 
	C142.179565,73.892075 140.488434,76.161865 138.254974,78.774017 
	C137.867981,79.521584 137.480988,80.269142 137.011612,81.036613 
	C137.011612,81.036613 137.033478,81.118500 136.565521,81.403061 
	C136.192108,82.024902 135.818695,82.646744 135.184265,83.394951 
	C135.184265,83.394951 135.184998,83.684959 134.858734,83.845070 
	C134.656235,84.010422 134.556732,84.223816 134.564896,84.503525 
	C134.564896,84.503525 134.550308,84.502655 134.033707,84.941528 
	C129.352661,91.963768 124.671616,98.986008 119.464241,106.357880 
	C116.671204,110.695183 121.617844,109.124260 122.678108,110.376167 
	C122.678108,110.376167 122.515320,110.387642 122.938072,110.896454 
	C124.222717,112.353149 125.507362,113.809845 126.818962,115.154449 
	C126.818962,115.154449 126.704155,115.143951 126.787956,115.835106 
	C127.316002,117.284233 127.844048,118.733360 128.670288,121.000862 
	C130.486221,117.601288 131.931244,114.896080 133.260529,112.196045 
	C133.260529,112.196045 133.288406,112.308495 133.808472,111.874001 
	C135.662842,108.315063 137.517212,104.756126 139.262863,101.196724 
	C139.262863,101.196724 139.285324,101.303108 139.786804,100.948936 
	C140.001373,100.377724 140.215958,99.806511 140.288040,99.229095 
	C140.288040,99.229095 140.307648,99.370354 140.766296,99.065559 
	C140.860352,98.718872 140.954422,98.372177 140.993454,98.018539 
	C140.993454,98.018539 141.036987,98.053284 141.498062,97.675209 
	C141.702255,97.126335 141.906433,96.577454 142.040985,96.043251 
	C142.040985,96.043251 142.072144,96.107239 142.611008,95.690544 
	C145.899109,89.291061 149.187210,82.891579 152.518387,76.458649 
	C152.518387,76.458649 152.532181,76.405899 152.969986,75.936554 
	C153.579544,74.560593 154.189087,73.184639 155.214325,71.281212 
	C156.976547,67.643036 158.738770,64.004868 160.283661,60.158360 
	C160.283661,60.158360 160.461975,60.400948 160.867020,60.042175 
	C160.933548,59.694412 161.000076,59.346649 161.287720,58.897167 
	C161.287720,58.897167 161.226059,58.661724 161.769119,58.195934 
	C162.331741,56.892639 162.894363,55.589344 163.284348,54.190399 
	C163.284348,54.190399 163.417496,54.336086 163.857666,53.931862 
	C164.040344,53.365467 164.223038,52.799072 164.318420,52.227642 
	C164.318420,52.227642 164.346420,52.310482 164.814606,51.932350 
	C165.007462,51.365761 165.200317,50.799171 165.302917,50.223648 
	C165.302917,50.223648 165.336670,50.307812 165.846725,49.846828 
	C166.591873,47.894962 167.337021,45.943096 168.300674,43.906441 
	C168.300674,43.906441 168.249008,43.677830 168.755020,43.217575 
	C169.495972,40.832447 170.236938,38.447319 171.030396,35.893185 
	C166.711349,35.018353 166.533020,38.855747 164.994141,40.974735 
	C164.994141,40.974735 164.935547,40.908936 164.431000,41.213909 
	C164.165833,41.732307 163.900665,42.250706 163.734955,42.771915 
	C163.734955,42.771915 163.713242,42.674820 163.235779,42.942226 
M175.666275,190.693710 
	C175.666275,190.693710 175.714218,190.422195 176.133102,190.035599 
	C176.471466,189.373672 176.809845,188.711761 177.634995,187.600555 
	C178.407959,183.729065 179.180923,179.857590 180.103973,175.282120 
	C179.147827,172.170212 178.191681,169.058289 177.123779,165.350571 
	C174.668076,162.898544 172.212357,160.446518 169.550537,157.346909 
	C164.552765,154.217087 159.216354,153.466843 153.358200,154.226089 
	C150.700241,154.570587 147.842590,153.374298 145.048233,152.951813 
	C145.048233,152.951813 145.123672,152.926193 144.937073,152.349350 
	C144.279755,151.597321 143.622437,150.845276 142.901047,149.589569 
	C142.660080,149.370193 142.419113,149.150818 142.023346,148.317520 
	C141.384125,147.494965 140.744904,146.672394 140.066101,145.895645 
	C140.066101,145.895645 140.123520,145.875381 139.954514,145.204239 
	C135.854187,138.817978 131.753845,132.431717 127.984100,126.560333 
	C125.619057,129.894165 123.310036,133.149017 120.934120,136.498169 
	C128.647461,141.255676 133.475357,148.461975 137.312012,156.206161 
	C138.665085,158.937271 137.933243,162.701279 137.830673,166.584213 
	C137.590225,167.385757 137.349792,168.187302 136.823547,169.821991 
	C136.858536,170.641998 137.038040,171.485916 136.906906,172.278442 
	C134.799377,185.017365 139.106079,192.869675 151.525879,198.030106 
	C151.714142,198.016373 151.902405,198.002625 152.224335,198.181183 
	C152.224335,198.181183 152.632553,198.091827 153.401077,198.535797 
	C154.274612,198.653122 155.148163,198.770462 156.890594,199.077682 
	C159.316879,198.809326 161.750198,198.282684 164.167404,198.348343 
	C166.397385,198.408936 168.610062,199.105225 171.030243,199.863495 
	C171.030243,199.863495 171.402435,199.999130 171.645111,200.447708 
	C172.072128,200.694351 172.499161,200.940994 172.915329,201.107758 
	C172.915329,201.107758 172.837326,201.128021 173.234924,201.667206 
	C174.439865,202.240555 175.644821,202.813889 176.841461,203.263702 
	C176.841461,203.263702 176.721237,203.293289 177.237717,203.824036 
	C179.162750,204.262817 181.072540,204.867310 183.021454,205.046844 
	C183.668015,205.106369 184.415192,204.073410 185.116379,203.539932 
	C184.445923,202.977859 183.775482,202.415787 183.063675,201.947220 
	C183.063675,201.947220 183.149109,201.891006 182.757706,201.418823 
	C182.184219,201.228928 181.610733,201.039017 181.063675,200.927490 
	C181.063675,200.927490 181.139755,200.894989 180.851593,200.489243 
	C179.925766,200.250198 178.999924,200.011169 177.958252,199.343689 
	C177.785278,199.068970 177.536499,198.928604 177.128830,198.256882 
	C176.511093,197.372284 175.893356,196.487686 175.311508,195.684280 
	C175.311508,195.684280 175.369324,195.616928 175.266388,195.238052 
	C175.266388,195.238052 174.946167,195.010483 174.759995,194.389481 
	C174.621048,194.223969 174.482101,194.058472 174.393356,193.353088 
	C174.332565,192.999100 174.271790,192.645111 174.829742,191.756302 
	C174.951324,191.512314 175.072922,191.268326 175.391388,190.998291 
	C175.391388,190.998291 175.412277,190.800964 175.666275,190.693710 
M83.250702,62.149544 
	C82.877197,61.706081 82.503685,61.262619 82.090660,60.899628 
	C82.090660,60.899628 82.177307,60.876621 81.991310,60.209652 
	C76.152855,52.183804 70.314392,44.157955 64.475937,36.132103 
	C63.948067,36.385517 63.420197,36.638927 62.892326,36.892342 
	C63.172298,38.519825 63.107231,40.310329 63.786938,41.748951 
	C69.134117,53.066460 74.568130,64.344215 80.124649,75.560280 
	C81.040550,77.409050 82.685974,78.896423 84.325462,80.960846 
	C87.575783,87.887482 90.826096,94.814117 94.189308,102.458519 
	C96.179779,105.957672 98.170258,109.456818 100.263290,113.659019 
	C102.079521,116.307610 101.977058,120.957878 107.046967,119.853722 
	C107.729721,128.822021 111.326332,133.328934 117.275558,132.971420 
	C122.299591,132.669495 125.985336,129.102402 125.200592,124.145370 
	C124.671387,120.802490 123.258072,116.837547 120.849739,114.772781 
	C118.534279,112.787651 114.429520,112.889580 111.170326,112.089027 
	C112.134010,111.275421 113.606361,110.032364 115.247452,108.646843 
	C114.493256,107.685677 113.793167,106.793457 113.057587,105.954895 
	C113.057587,105.954895 113.121437,105.947182 113.031212,105.397926 
	C112.669090,104.987267 112.306969,104.576599 111.775070,103.481239 
	C109.520493,100.320030 107.265915,97.158813 104.841316,93.343437 
	C103.297379,91.204483 101.753441,89.065521 100.089012,86.357063 
	C99.604744,85.758797 99.120483,85.160530 98.632439,84.453896 
	C98.632439,84.453896 98.537636,84.401253 98.283356,83.841278 
	C97.526451,82.885651 96.769547,81.930023 95.995331,80.996788 
	C95.995331,80.996788 96.021706,80.990318 95.878502,80.303581 
	C94.057457,77.738571 92.236412,75.173553 90.359970,72.710236 
	C90.359970,72.710236 90.470009,72.674141 90.269951,72.116585 
	C89.877449,71.696159 89.484947,71.275726 89.055817,70.928078 
	C89.055817,70.928078 89.135941,70.913300 88.978073,70.259804 
	C87.652512,68.506935 86.326950,66.754066 85.000031,65.000000 
	C85.000031,65.000000 84.999489,64.998253 84.875595,64.417122 
	C84.373589,63.818329 83.871574,63.219532 83.347008,62.722126 
	C83.347008,62.722126 83.450516,62.713505 83.250702,62.149544 
z"/>
<path fill="#E8CC71" opacity="1.000000" stroke="none" 
	d="
M94.076416,101.740753 
	C90.826096,94.814117 87.575783,87.887482 84.117455,80.410156 
	C82.551697,76.578613 81.312912,73.241737 79.802025,70.032990 
	C78.353432,66.956551 76.622498,64.013054 75.092155,60.967667 
	C75.168663,60.924198 75.177116,60.712440 75.177116,60.712440 
	C75.177116,60.712440 74.988678,60.984306 74.752274,60.758820 
	C74.316330,58.626511 74.116791,56.719685 73.917244,54.812862 
	C74.477180,54.691093 75.037117,54.569321 75.597054,54.447552 
	C76.726646,56.294098 77.856239,58.140648 78.749481,60.043449 
	C78.230331,60.409924 77.947540,60.720142 77.664749,61.030357 
	C77.774857,61.130634 77.884964,61.230915 77.995071,61.331196 
	C78.334328,60.892178 78.673576,60.453159 79.316292,60.149635 
	C80.472267,60.482292 81.324791,60.679459 82.177307,60.876621 
	C82.177307,60.876621 82.090660,60.899628 82.149170,61.170483 
	C82.621964,61.865391 83.036240,62.289448 83.450516,62.713505 
	C83.450516,62.713505 83.347008,62.722126 83.335564,63.000854 
	C83.882576,63.852470 84.441032,64.425362 84.999489,64.998253 
	C84.999489,64.998253 85.000031,65.000000 85.001068,65.405334 
	C84.877968,68.728432 85.323929,71.184349 89.135941,70.913300 
	C89.135941,70.913300 89.055817,70.928078 89.125473,71.197449 
	C89.620087,71.869263 90.045044,72.271698 90.470009,72.674141 
	C90.470009,72.674141 90.359970,72.710236 90.291824,73.076340 
	C89.341690,78.120537 91.923004,80.138237 96.021706,80.990318 
	C96.021706,80.990318 95.995331,80.996788 96.019600,81.346878 
	C96.875122,82.598404 97.706383,83.499825 98.537636,84.401253 
	C98.537636,84.401253 98.632439,84.453896 98.561295,84.841309 
	C99.063263,85.794678 99.636383,86.360626 100.209503,86.926567 
	C101.753441,89.065521 103.297379,91.204483 104.526817,93.671616 
	C99.326508,94.606636 95.460777,96.549156 94.076416,101.740753 
M79.576439,65.130325 
	C79.833298,65.151588 80.090157,65.172859 80.347015,65.194130 
	C80.350624,65.048622 80.354233,64.903107 80.357849,64.757599 
	C80.100052,64.767509 79.842247,64.777420 79.576439,65.130325 
z"/>
<path fill="#E5C66D" opacity="1.000000" stroke="none" 
	d="
M119.990570,106.008247 
	C124.671616,98.986008 129.352661,91.963768 134.274399,85.085846 
	C133.984818,90.701561 139.277466,91.267303 141.963715,94.389824 
	C142.013901,95.191109 142.043030,95.649178 142.072144,96.107239 
	C142.072144,96.107239 142.040985,96.043251 141.848343,96.228081 
	C141.449463,96.959702 141.243225,97.506493 141.036987,98.053284 
	C141.036987,98.053284 140.993454,98.018539 140.834061,98.206665 
	C140.552322,98.719978 140.429977,99.045166 140.307648,99.370354 
	C140.307648,99.370354 140.288040,99.229095 140.074081,99.384750 
	C139.668518,100.127968 139.476913,100.715538 139.285324,101.303108 
	C139.285324,101.303108 139.262863,101.196724 138.978668,101.306885 
	C136.892456,105.047531 135.090439,108.678017 133.288406,112.308495 
	C133.288406,112.308495 133.260529,112.196045 132.989349,112.295166 
	C130.713501,113.310837 128.708817,114.227394 126.704155,115.143951 
	C126.704155,115.143951 126.818962,115.154449 126.804314,114.852234 
	C125.364883,113.162552 123.940102,111.775101 122.515320,110.387650 
	C122.515320,110.387642 122.678108,110.376167 122.574142,110.131546 
	C121.643639,108.594025 120.817108,107.301132 119.990570,106.008247 
z"/>
<path fill="#D7BD6C" opacity="1.000000" stroke="none" 
	d="
M113.093071,105.901237 
	C113.793167,106.793457 114.493256,107.685677 115.247452,108.646843 
	C113.606361,110.032364 112.134010,111.275421 111.170326,112.089027 
	C114.429520,112.889580 118.534279,112.787651 120.849739,114.772781 
	C123.258072,116.837547 124.671387,120.802490 125.200592,124.145370 
	C125.985336,129.102402 122.299591,132.669495 117.275558,132.971420 
	C111.326332,133.328934 107.729721,128.822021 107.046967,119.853722 
	C101.977058,120.957878 102.079521,116.307610 100.518730,113.421761 
	C101.594734,114.790909 102.415298,116.397324 103.235863,118.003738 
	C103.914841,117.605240 104.593819,117.206741 105.272797,116.808235 
	C107.879555,113.172569 110.486313,109.536903 113.093071,105.901237 
M120.778015,124.154617 
	C120.940208,121.397034 120.827393,118.393997 117.266548,118.447739 
	C115.557350,118.473541 113.149399,120.015152 112.416191,121.528412 
	C111.845612,122.706039 113.254341,126.311958 113.997475,126.376572 
	C116.082054,126.557823 118.277428,125.464928 120.778015,124.154617 
z"/>
<path fill="#E5C66D" opacity="1.000000" stroke="none" 
	d="
M113.075333,105.928070 
	C110.486313,109.536903 107.879555,113.172569 105.272797,116.808235 
	C104.593819,117.206741 103.914841,117.605240 103.235863,118.003738 
	C102.415298,116.397324 101.594734,114.790909 100.467453,113.070236 
	C98.170258,109.456818 96.179779,105.957672 94.132858,102.099640 
	C95.460777,96.549156 99.326508,94.606636 104.611832,93.998695 
	C107.265915,97.158813 109.520493,100.320030 111.914276,104.097313 
	C112.409462,105.124657 112.765450,105.535919 113.121429,105.947182 
	C113.121437,105.947182 113.057587,105.954895 113.075333,105.928070 
z"/>
<path fill="#ECCF72" opacity="1.000000" stroke="none" 
	d="
M141.942688,94.046600 
	C139.277466,91.267303 133.984818,90.701561 134.532700,84.866409 
	C134.550308,84.502655 134.564896,84.503525 134.756775,84.448700 
	C135.199112,84.214951 135.277908,83.978645 135.184998,83.684959 
	C135.184998,83.684959 135.184265,83.394951 135.616364,83.305389 
	C136.376816,82.516724 136.705154,81.817612 137.033478,81.118500 
	C137.033478,81.118500 137.011612,81.036613 137.369202,80.902496 
	C138.083618,79.989471 138.440460,79.210564 138.797318,78.431656 
	C140.488434,76.161865 142.179565,73.892075 144.340744,71.253777 
	C146.200897,69.914131 147.590988,68.942993 149.277374,68.122116 
	C150.732605,69.525177 151.891571,70.777969 152.890625,72.376236 
	C152.664536,73.949776 152.598358,75.177834 152.532196,76.405899 
	C152.532181,76.405899 152.518387,76.458649 152.138779,76.447220 
	C148.487000,82.306053 145.214844,88.176331 141.942688,94.046600 
z"/>
<path fill="#DCC06B" opacity="1.000000" stroke="none" 
	d="
M138.153320,165.993698 
	C137.933243,162.701279 138.665085,158.937271 137.312012,156.206161 
	C133.475357,148.461975 128.647461,141.255676 120.934120,136.498169 
	C123.310036,133.149017 125.619057,129.894165 127.984100,126.560333 
	C131.753845,132.431717 135.854187,138.817978 139.656937,145.574493 
	C135.656647,146.007477 134.525467,147.530365 136.448410,150.924866 
	C137.663376,153.069595 138.923920,155.213058 139.869064,157.480072 
	C141.175598,160.613922 142.191650,163.860977 138.153320,165.993698 
z"/>
<path fill="#E8CF7A" opacity="1.000000" stroke="none" 
	d="
M75.015648,61.011139 
	C76.622498,64.013054 78.353432,66.956551 79.802025,70.032990 
	C81.312912,73.241737 82.551697,76.578613 83.951843,80.205139 
	C82.685974,78.896423 81.040550,77.409050 80.124649,75.560280 
	C74.568130,64.344215 69.134117,53.066460 63.786938,41.748951 
	C63.107231,40.310329 63.172298,38.519825 62.892326,36.892342 
	C63.420197,36.638927 63.948067,36.385517 64.475937,36.132103 
	C70.314392,44.157955 76.152855,52.183804 82.084305,60.543137 
	C81.324791,60.679459 80.472267,60.482292 79.309845,60.142593 
	C78.999939,60.000057 78.985832,59.987194 78.985832,59.987194 
	C77.856239,58.140648 76.726646,56.294098 75.597054,54.447552 
	C75.037117,54.569321 74.477180,54.691093 73.917244,54.812862 
	C74.116791,56.719685 74.316330,58.626511 74.758026,60.766529 
	C75.000183,60.999725 75.015648,61.011139 75.015648,61.011139 
z"/>
<path fill="#D1AF58" opacity="1.000000" stroke="none" 
	d="
M150.984985,197.862289 
	C139.106079,192.869675 134.799377,185.017365 136.906906,172.278442 
	C137.038040,171.485916 136.858536,170.641998 137.293243,169.345734 
	C139.262756,168.791061 141.103180,165.645584 142.203766,169.770508 
	C142.148331,174.194168 141.299194,178.384842 142.171234,182.180038 
	C143.539658,188.135452 148.613419,191.034271 153.736618,193.378265 
	C152.645859,195.013702 151.815430,196.438004 150.984985,197.862289 
z"/>
<path fill="#DDBB61" opacity="1.000000" stroke="none" 
	d="
M142.181793,169.360168 
	C141.103180,165.645584 139.262756,168.791061 137.436142,168.929169 
	C137.349792,168.187302 137.590225,167.385757 137.992004,166.288956 
	C142.191650,163.860977 141.175598,160.613922 139.869064,157.480072 
	C138.923920,155.213058 137.663376,153.069595 136.448410,150.924866 
	C134.525467,147.530365 135.656647,146.007477 139.741440,145.910065 
	C140.123520,145.875381 140.066101,145.895645 140.080719,146.232498 
	C140.789612,147.356705 141.483887,148.144073 142.178162,148.931427 
	C142.419113,149.150818 142.660080,149.370193 142.961243,150.179794 
	C143.722168,151.488739 144.422928,152.207474 145.123672,152.926193 
	C145.123672,152.926193 145.048233,152.951813 145.103241,153.258835 
	C147.450333,154.392990 149.742401,155.220123 152.161804,156.333618 
	C152.539398,157.415619 152.789642,158.211273 152.737549,159.157272 
	C151.287201,160.189423 150.139191,161.071259 148.763657,162.197983 
	C146.418030,164.748642 144.299911,167.054413 142.181793,169.360168 
z"/>
<path fill="#BF9A42" opacity="1.000000" stroke="none" 
	d="
M151.255432,197.946198 
	C151.815430,196.438004 152.645859,195.013702 154.147018,193.362732 
	C161.416809,195.290024 166.357025,192.297485 171.145355,188.114532 
	C172.299744,188.866760 173.173660,189.468109 174.209167,190.261353 
	C174.645340,190.643616 174.919937,190.833969 175.194534,191.024323 
	C175.072922,191.268326 174.951324,191.512314 174.448792,192.157410 
	C173.970963,192.744232 173.869888,192.927643 173.593246,193.332733 
	C173.656235,194.356583 173.890564,195.156433 174.438477,195.880554 
	C174.957825,195.742218 175.163574,195.679581 175.369324,195.616928 
	C175.369324,195.616928 175.311508,195.684280 175.341248,195.981384 
	C175.984604,197.159882 176.598251,198.041260 177.211899,198.922623 
	C177.536499,198.928604 177.785278,199.068970 178.236282,199.820541 
	C179.389465,200.496597 180.264603,200.695801 181.139755,200.894989 
	C181.139755,200.894989 181.063675,200.927490 181.249588,201.123886 
	C182.006699,201.510529 182.577911,201.700760 183.149109,201.891006 
	C183.149109,201.891006 183.063675,201.947220 182.967056,202.235336 
	C180.820709,202.780060 178.770966,203.036667 176.721237,203.293289 
	C176.721237,203.293289 176.841461,203.263702 176.685959,203.013519 
	C175.299408,202.218231 174.068375,201.673126 172.837326,201.128021 
	C172.837326,201.128021 172.915329,201.107758 172.797852,200.925629 
	C172.254410,200.495377 171.828415,200.247253 171.402435,199.999130 
	C171.402435,199.999130 171.030243,199.863495 170.910568,199.299103 
	C169.474762,197.917557 168.058563,196.287521 166.861191,196.434952 
	C163.202820,196.885376 159.628632,198.019623 156.021698,198.887817 
	C155.148163,198.770462 154.274612,198.653122 152.928070,198.293121 
	C152.455078,198.050446 152.090683,197.988861 152.090683,197.988861 
	C151.902405,198.002625 151.714142,198.016373 151.255432,197.946198 
z"/>
<path fill="#DABE65" opacity="1.000000" stroke="none" 
	d="
M87.994202,153.158432 
	C91.247948,148.304611 94.501694,143.450790 98.249893,138.195953 
	C99.036842,137.078705 99.329346,136.362473 99.621841,135.646225 
	C99.621841,135.646225 99.653275,135.738846 99.970139,135.648193 
	C103.288383,135.299728 106.289764,135.041901 110.187485,134.707062 
	C109.034668,137.148514 108.554588,138.165222 108.074516,139.181931 
	C108.074516,139.181931 108.081062,139.096756 107.823959,139.154053 
	C107.244514,139.661850 106.922180,140.112366 106.599838,140.562866 
	C106.599838,140.562866 106.557098,140.585220 106.313217,140.634323 
	C105.759987,140.858521 105.634514,141.121521 105.692902,141.472427 
	C105.692902,141.472427 105.673424,141.572601 105.328339,141.628784 
	C104.685875,142.168976 104.388512,142.652985 104.091148,143.136993 
	C104.091148,143.136993 104.060120,143.060501 103.773697,143.139069 
	C103.078529,143.914230 102.669792,144.610809 102.261047,145.307388 
	C102.261040,145.307388 102.237030,145.177414 102.062592,145.324554 
	C101.740128,145.807922 101.592102,146.144180 101.444077,146.480423 
	C101.444069,146.480423 101.427925,146.363892 101.156311,146.463470 
	C100.424156,147.538055 99.963608,148.513062 99.503052,149.488068 
	C99.503052,149.488068 99.566292,149.199036 99.224762,149.353546 
	C97.923233,150.343094 96.963234,151.178162 95.868980,151.784241 
	C95.423058,150.489731 95.111397,149.424210 94.770668,148.259293 
	C92.160126,150.475128 90.083809,152.237518 88.004654,153.789520 
	C88.001823,153.579147 87.994209,153.158432 87.994202,153.158432 
z"/>
<path fill="#E8CF7A" opacity="1.000000" stroke="none" 
	d="
M168.249008,43.677826 
	C168.249008,43.677830 168.300674,43.906441 167.890900,44.135689 
	C166.766312,46.345894 166.051483,48.326851 165.336670,50.307808 
	C165.336670,50.307812 165.302917,50.223648 165.074280,50.389557 
	C164.679230,51.140469 164.512833,51.725475 164.346420,52.310482 
	C164.346420,52.310482 164.318420,52.227642 164.086258,52.393181 
	C163.708557,53.151176 163.563019,53.743629 163.417496,54.336086 
	C163.417496,54.336086 163.284348,54.190399 163.030029,54.391804 
	C162.259155,55.949379 161.742599,57.305553 161.226059,58.661724 
	C161.226059,58.661724 161.287720,58.897167 160.997925,59.142227 
	C160.626099,59.725174 160.544037,60.063061 160.461975,60.400948 
	C160.461975,60.400948 160.283661,60.158360 160.065247,60.366852 
	C158.238281,63.062492 156.629745,65.549637 154.714966,67.817123 
	C153.926361,65.394958 153.444000,63.192444 153.116608,60.680420 
	C154.409912,57.815342 155.548233,55.259769 156.686554,52.704201 
	C156.686539,52.704197 156.761414,52.812317 156.911469,52.662010 
	C157.308716,52.259956 157.404373,51.959881 157.348526,51.611477 
	C157.348526,51.611477 157.343353,51.480946 157.723618,51.403378 
	C158.733444,50.218304 159.363007,49.110794 159.992554,48.003281 
	C159.992554,48.003281 159.997559,47.998123 160.324860,47.908028 
	C161.403519,46.504284 162.154861,45.190632 162.906219,43.876984 
	C162.906219,43.876984 162.937881,43.944130 163.107132,43.781895 
	C163.421997,43.304710 163.567612,42.989765 163.713242,42.674820 
	C163.713242,42.674820 163.734955,42.771915 163.956192,42.634026 
	C164.430145,41.967068 164.682846,41.438004 164.935547,40.908936 
	C164.935547,40.908936 164.994141,40.974735 165.349731,41.003342 
	C166.553223,41.913906 167.401123,42.795864 168.249008,43.677826 
z"/>
<path fill="#C8A450" opacity="1.000000" stroke="none" 
	d="
M97.038078,173.983795 
	C98.367096,182.361679 95.039497,188.850861 88.323990,193.977036 
	C86.138817,193.093887 84.476982,192.411896 83.023315,191.469482 
	C89.154785,187.861664 91.666542,182.532593 92.408592,175.922348 
	C94.173302,175.236084 95.605690,174.609940 97.038078,173.983795 
z"/>
<path fill="#B99844" opacity="1.000000" stroke="none" 
	d="
M82.815155,191.729904 
	C84.476982,192.411896 86.138817,193.093887 88.006454,194.116211 
	C80.705948,200.196777 72.700516,200.529999 64.385437,196.209198 
	C66.637779,194.921295 68.812050,194.087387 71.441788,193.235321 
	C74.923981,193.099777 77.950714,192.982422 81.047318,193.151718 
	C81.449379,193.694397 81.781563,193.950424 82.113747,194.206451 
	C82.345047,193.387207 82.576340,192.567947 82.831161,191.751236 
	C82.854683,191.753769 82.815155,191.729904 82.815155,191.729904 
z"/>
<path fill="#C8A450" opacity="1.000000" stroke="none" 
	d="
M70.986328,193.253494 
	C68.812050,194.087387 66.637779,194.921295 64.147995,195.931046 
	C61.188393,193.520523 58.544285,190.934158 55.908646,187.579086 
	C55.256424,184.195023 54.595741,181.579651 53.954796,178.640106 
	C53.998730,177.883438 54.022923,177.450958 54.317032,177.149628 
	C55.466911,177.636017 56.346874,177.991226 57.372055,178.405075 
	C57.793083,177.104324 58.136272,176.044067 58.494644,175.435303 
	C57.689320,184.637161 63.323723,191.188248 70.986328,193.253494 
z"/>
<path fill="#C8A450" opacity="1.000000" stroke="none" 
	d="
M174.047592,190.069443 
	C173.173660,189.468109 172.299744,188.866760 171.266174,187.777802 
	C173.825928,183.642715 175.652069,179.719040 175.276550,175.017853 
	C177.082047,175.352325 178.517960,175.669220 179.953888,175.986099 
	C179.180923,179.857590 178.407959,183.729065 177.120407,187.973633 
	C176.308624,189.038528 176.011429,189.730362 175.714218,190.422195 
	C175.714218,190.422195 175.666275,190.693710 175.205261,190.551056 
	C174.512009,190.295410 174.279800,190.182419 174.047592,190.069443 
z"/>
<path fill="#D1AF58" opacity="1.000000" stroke="none" 
	d="
M58.479458,174.983795 
	C58.136272,176.044067 57.793083,177.104324 57.372055,178.405075 
	C56.346874,177.991226 55.466911,177.636017 54.327499,176.739365 
	C54.297539,173.702484 54.527027,171.207016 54.756516,168.711563 
	C54.756519,168.711563 54.817654,168.890793 54.997959,168.706650 
	C55.319122,167.889175 55.459984,167.255844 55.600845,166.622513 
	C55.600845,166.622513 55.597633,166.746567 55.910847,166.652466 
	C56.791893,165.287277 57.359722,164.016190 57.927551,162.745087 
	C57.922905,162.433914 58.046795,162.187332 58.889694,161.936859 
	C60.983467,161.582214 62.486763,161.296036 63.992523,161.366638 
	C64.028633,162.198105 64.062294,162.672791 64.076210,163.097626 
	C64.056473,163.047760 64.157928,163.012985 63.935123,163.168396 
	C63.490406,163.606781 63.268490,163.889755 62.931419,164.459457 
	C61.370659,168.158707 59.925060,171.571259 58.479458,174.983795 
z"/>
<path fill="#D7BD6C" opacity="1.000000" stroke="none" 
	d="
M64.912277,156.904602 
	C69.571587,153.788162 74.707008,153.524612 80.041840,154.328720 
	C81.639053,154.569458 83.260681,154.648239 85.365219,154.832550 
	C85.859322,154.863892 86.025673,155.041901 85.775986,155.286377 
	C81.013748,155.859085 76.501205,156.187302 71.881889,156.523285 
	C75.512436,158.096725 78.741447,159.496155 81.561691,160.852737 
	C76.782532,160.888870 72.412140,160.967850 68.016624,161.020630 
	C67.991493,160.994431 67.940643,160.942627 67.936218,160.573059 
	C66.965195,159.152435 65.998611,158.101379 65.002228,157.013794 
	C64.972435,156.977249 64.912277,156.904602 64.912277,156.904602 
z"/>
<path fill="#DABE65" opacity="1.000000" stroke="none" 
	d="
M169.756638,157.994492 
	C172.212357,160.446518 174.668076,162.898544 176.886078,165.690521 
	C175.472122,167.017578 174.295868,168.004700 172.910477,168.728577 
	C170.803711,166.282639 168.906097,164.099960 166.916397,161.632568 
	C166.200348,160.574615 165.576385,159.801361 165.164093,158.827972 
	C165.577072,158.091721 165.778397,157.555573 166.281509,157.150330 
	C167.641083,157.518982 168.698853,157.756729 169.756638,157.994492 
z"/>
<path fill="#D1AF58" opacity="1.000000" stroke="none" 
	d="
M97.090317,173.608582 
	C95.605690,174.609940 94.173302,175.236084 92.320175,175.553284 
	C91.212227,172.853210 90.525017,170.462036 90.083023,167.812271 
	C91.226685,165.673141 92.125137,163.792633 93.207901,161.924255 
	C93.392220,161.936401 93.757706,161.990265 93.757706,161.990265 
	C94.885994,165.737961 96.014275,169.485672 97.090317,173.608582 
z"/>
<path fill="#D7BD6C" opacity="1.000000" stroke="none" 
	d="
M108.394989,139.092987 
	C108.554588,138.165222 109.034668,137.148514 110.187485,134.707062 
	C106.289764,135.041901 103.288383,135.299728 99.922958,135.635315 
	C101.152626,133.033035 102.746330,130.352982 104.155838,127.982681 
	C106.917404,130.897903 109.563431,133.691162 112.406868,136.692810 
	C111.584778,137.207535 110.150116,138.105789 108.394989,139.092987 
z"/>
<path fill="#D1AF58" opacity="1.000000" stroke="none" 
	d="
M173.119629,168.991837 
	C174.295868,168.004700 175.472122,167.017578 176.941956,165.988419 
	C178.191681,169.058289 179.147827,172.170212 180.028931,175.634109 
	C178.517960,175.669220 177.082047,175.352325 175.113571,174.709625 
	C174.093887,172.586487 173.606750,170.789169 173.119629,168.991837 
z"/>
<path fill="#D7BD6C" opacity="1.000000" stroke="none" 
	d="
M169.653595,157.670700 
	C168.698853,157.756729 167.641083,157.518982 165.904480,156.981689 
	C160.828598,156.470520 156.431549,156.258896 152.034485,156.047272 
	C149.742401,155.220123 147.450333,154.392990 145.116882,153.221405 
	C147.842590,153.374298 150.700241,154.570587 153.358200,154.226089 
	C159.216354,153.466843 164.552765,154.217087 169.653595,157.670700 
z"/>
<path fill="#DFC87B" opacity="1.000000" stroke="none" 
	d="
M156.406403,52.887081 
	C155.548233,55.259769 154.409912,57.815342 152.836853,60.864868 
	C151.261780,63.563171 150.121429,65.767509 148.981094,67.971855 
	C147.590988,68.942993 146.200897,69.914131 144.490540,70.950363 
	C148.155624,65.033623 152.140945,59.051792 156.406403,52.887081 
z"/>
<path fill="#DFC87B" opacity="1.000000" stroke="none" 
	d="
M141.963730,94.389832 
	C145.214844,88.176331 148.487000,82.306053 152.117249,76.463943 
	C149.187210,82.891579 145.899109,89.291061 142.341583,95.898895 
	C142.043030,95.649178 142.013901,95.191109 141.963730,94.389832 
z"/>
<path fill="#DFC87B" opacity="1.000000" stroke="none" 
	d="
M168.502014,43.447701 
	C167.401123,42.795864 166.553223,41.913906 165.309235,40.986000 
	C166.533020,38.855747 166.711349,35.018353 171.030396,35.893185 
	C170.236938,38.447319 169.495972,40.832447 168.502014,43.447701 
M168.469315,38.496872 
	C168.469315,38.496872 168.512939,38.479893 168.469315,38.496872 
z"/>
<path fill="#E8CF7A" opacity="1.000000" stroke="none" 
	d="
M95.950104,80.646950 
	C91.923004,80.138237 89.341690,78.120537 90.319527,73.025497 
	C92.236412,75.173553 94.057457,77.738571 95.950104,80.646950 
z"/>
<path fill="#B99844" opacity="1.000000" stroke="none" 
	d="
M156.456146,198.982758 
	C159.628632,198.019623 163.202820,196.885376 166.861191,196.434952 
	C168.058563,196.287521 169.474762,197.917557 170.810638,199.128113 
	C168.610062,199.105225 166.397385,198.408936 164.167404,198.348343 
	C161.750198,198.282684 159.316879,198.809326 156.456146,198.982758 
z"/>
<path fill="#DFC87B" opacity="1.000000" stroke="none" 
	d="
M126.746056,115.489525 
	C128.708817,114.227394 130.713501,113.310837 133.047211,112.292572 
	C131.931244,114.896080 130.486221,117.601288 128.670288,121.000862 
	C127.844048,118.733360 127.316002,117.284233 126.746056,115.489525 
z"/>
<path fill="#DFC87B" opacity="1.000000" stroke="none" 
	d="
M155.021225,68.036781 
	C156.629745,65.549637 158.238281,63.062492 160.173920,60.471024 
	C158.738770,64.004868 156.976547,67.643036 154.984344,71.524323 
	C154.754364,71.767441 154.709686,71.726669 154.782898,71.364059 
	C154.911148,70.013229 154.966187,69.025002 155.021225,68.036781 
z"/>
<path fill="#DFC87B" opacity="1.000000" stroke="none" 
	d="
M133.548431,112.091248 
	C135.090439,108.678017 136.892456,105.047531 139.033020,101.307114 
	C137.517212,104.756126 135.662842,108.315063 133.548431,112.091248 
z"/>
<path fill="#D7BD6C" opacity="1.000000" stroke="none" 
	d="
M63.990059,161.009857 
	C62.486763,161.296036 60.983467,161.582214 59.096970,161.884064 
	C60.546043,160.237305 62.378323,158.574905 64.561440,156.908539 
	C64.912277,156.904602 64.972435,156.977249 64.867828,157.328873 
	C64.514366,158.781464 64.265511,159.882431 64.010353,160.989685 
	C64.004051,160.995972 63.990059,161.009857 63.990059,161.009857 
z"/>
<path fill="#B99844" opacity="1.000000" stroke="none" 
	d="
M176.979477,203.558655 
	C178.770966,203.036667 180.820709,202.780060 182.987732,202.188568 
	C183.775482,202.415787 184.445923,202.977859 185.116379,203.539932 
	C184.415192,204.073410 183.668015,205.106369 183.021454,205.046844 
	C181.072540,204.867310 179.162750,204.262817 176.979477,203.558655 
z"/>
<path fill="#E8CF7A" opacity="1.000000" stroke="none" 
	d="
M89.057007,70.586548 
	C85.323929,71.184349 84.877968,68.728432 85.001740,65.405930 
	C86.326950,66.754066 87.652512,68.506935 89.057007,70.586548 
z"/>
<path fill="#D1AF58" opacity="1.000000" stroke="none" 
	d="
M53.935059,178.964279 
	C54.595741,181.579651 55.256424,184.195023 55.873474,187.257904 
	C54.914417,185.059143 53.998997,182.412872 53.320518,179.371033 
	C53.557465,178.975449 53.935059,178.964279 53.935059,178.964279 
z"/>
<path fill="#D7BD6C" opacity="1.000000" stroke="none" 
	d="
M53.954796,178.640106 
	C53.935059,178.964279 53.557465,178.975449 53.368835,178.985016 
	C53.215862,176.888504 53.251518,174.782425 53.589165,172.132874 
	C53.985161,171.379456 54.013214,171.161026 53.975323,170.934128 
	C54.075230,170.326202 54.175137,169.718262 54.515778,168.910950 
	C54.527027,171.207016 54.297539,173.702484 54.057587,176.608200 
	C54.022923,177.450958 53.998730,177.883438 53.954796,178.640106 
z"/>
<path fill="#DFC87B" opacity="1.000000" stroke="none" 
	d="
M119.727402,106.183060 
	C120.817108,107.301132 121.643639,108.594025 122.562576,110.212311 
	C121.617844,109.124260 116.671204,110.695183 119.727402,106.183060 
z"/>
<path fill="#DFC87B" opacity="1.000000" stroke="none" 
	d="
M165.591705,50.077316 
	C166.051483,48.326851 166.766312,46.345894 167.781647,44.178085 
	C167.337021,45.943096 166.591873,47.894962 165.591705,50.077316 
z"/>
<path fill="#DFC87B" opacity="1.000000" stroke="none" 
	d="
M152.751099,76.171227 
	C152.598358,75.177834 152.664536,73.949776 153.170792,72.346207 
	C153.977142,71.889359 154.343414,71.808014 154.709686,71.726669 
	C154.709686,71.726669 154.754364,71.767441 154.776505,71.788063 
	C154.189087,73.184639 153.579544,74.560593 152.751099,76.171227 
z"/>
<path fill="#D7BD6C" opacity="1.000000" stroke="none" 
	d="
M96.003235,152.013214 
	C96.963234,151.178162 97.923233,150.343094 99.209717,149.500977 
	C98.514557,151.176544 97.492920,152.859177 96.207062,154.747284 
	C95.942856,154.952774 95.889709,154.909012 95.920097,154.547455 
	C95.968071,153.461685 95.985649,152.737442 96.003235,152.013214 
z"/>
<path fill="#DABE65" opacity="1.000000" stroke="none" 
	d="
M93.863586,161.636505 
	C93.757706,161.990265 93.392220,161.936401 93.200653,161.554077 
	C93.329514,159.779785 93.649948,158.387817 94.229660,156.999252 
	C94.661804,157.003738 94.834671,157.004822 95.007538,157.005920 
	C94.661522,158.431534 94.315498,159.857147 93.863586,161.636505 
z"/>
<path fill="#DFC87B" opacity="1.000000" stroke="none" 
	d="
M122.726692,110.642052 
	C123.940102,111.775101 125.364883,113.162552 126.790833,114.908279 
	C125.507362,113.809845 124.222717,112.353149 122.726692,110.642052 
z"/>
<path fill="#DFC87B" opacity="1.000000" stroke="none" 
	d="
M162.631042,44.043224 
	C162.154861,45.190632 161.403519,46.504284 160.326187,47.904556 
	C160.785431,46.730606 161.570648,45.470036 162.631042,44.043224 
z"/>
<path fill="#D7BD6C" opacity="1.000000" stroke="none" 
	d="
M57.628479,162.910126 
	C57.359722,164.016190 56.791893,165.287277 55.851170,166.635468 
	C56.095322,165.500122 56.712364,164.287643 57.628479,162.910126 
z"/>
<path fill="#E8CF7A" opacity="1.000000" stroke="none" 
	d="
M98.410492,84.121262 
	C97.706383,83.499825 96.875122,82.598404 96.028259,81.335678 
	C96.769547,81.930023 97.526451,82.885651 98.410492,84.121262 
z"/>
<path fill="#B99844" opacity="1.000000" stroke="none" 
	d="
M173.036133,201.397614 
	C174.068375,201.673126 175.299408,202.218231 176.690109,203.075287 
	C175.644821,202.813889 174.439865,202.240555 173.036133,201.397614 
z"/>
<path fill="#DFC87B" opacity="1.000000" stroke="none" 
	d="
M159.724030,48.157166 
	C159.363007,49.110794 158.733444,50.218304 157.781281,51.372681 
	C158.124283,50.383381 158.789886,49.347214 159.724030,48.157166 
z"/>
<path fill="#DCC06B" opacity="1.000000" stroke="none" 
	d="
M142.100754,148.624481 
	C141.483887,148.144073 140.789612,147.356705 140.100510,146.209595 
	C140.744904,146.672394 141.384125,147.494965 142.100754,148.624481 
z"/>
<path fill="#D7BD6C" opacity="1.000000" stroke="none" 
	d="
M145.030365,152.637772 
	C144.422928,152.207474 143.722168,151.488739 142.993271,150.431641 
	C143.622437,150.845276 144.279755,151.597321 145.030365,152.637772 
z"/>
<path fill="#DFC87B" opacity="1.000000" stroke="none" 
	d="
M161.497589,58.428829 
	C161.742599,57.305553 162.259155,55.949379 163.116333,54.439629 
	C162.894363,55.589344 162.331741,56.892639 161.497589,58.428829 
z"/>
<path fill="#E8CF7A" opacity="1.000000" stroke="none" 
	d="
M84.937546,64.707687 
	C84.441032,64.425362 83.882576,63.852470 83.346848,62.950161 
	C83.871574,63.219532 84.373589,63.818329 84.937546,64.707687 
z"/>
<path fill="#B99844" opacity="1.000000" stroke="none" 
	d="
M180.995667,200.692108 
	C180.264603,200.695801 179.389465,200.496597 178.294205,200.034760 
	C178.999924,200.011169 179.925766,200.250198 180.995667,200.692108 
z"/>
<path fill="#B99844" opacity="1.000000" stroke="none" 
	d="
M177.170364,198.589752 
	C176.598251,198.041260 175.984604,197.159882 175.323303,195.940796 
	C175.893356,196.487686 176.511093,197.372284 177.170364,198.589752 
z"/>
<path fill="#C8A450" opacity="1.000000" stroke="none" 
	d="
M174.124878,195.956268 
	C173.890564,195.156433 173.656235,194.356583 173.675873,193.474213 
	C174.033279,193.587112 174.171051,193.754196 174.343155,193.892960 
	C174.482101,194.058472 174.621048,194.223969 174.685837,194.830368 
	C174.412247,195.473175 174.249985,195.701508 174.124878,195.956268 
z"/>
<path fill="#E8CF7A" opacity="1.000000" stroke="none" 
	d="
M100.149261,86.641815 
	C99.636383,86.360626 99.063263,85.794678 98.563187,84.895493 
	C99.120483,85.160530 99.604744,85.758797 100.149261,86.641815 
z"/>
<path fill="#D7BD6C" opacity="1.000000" stroke="none" 
	d="
M102.529099,145.172638 
	C102.669792,144.610809 103.078529,143.914230 103.813126,143.151276 
	C103.691696,143.735886 103.244415,144.386887 102.529099,145.172638 
z"/>
<path fill="#D7BD6C" opacity="1.000000" stroke="none" 
	d="
M95.215729,156.803192 
	C94.834671,157.004822 94.661804,157.003738 94.303833,156.702484 
	C94.709053,155.904541 95.299377,155.406769 95.889709,154.909012 
	C95.889709,154.909012 95.942856,154.952774 95.969460,154.974609 
	C95.805351,155.531128 95.614639,156.065796 95.215729,156.803192 
z"/>
<path fill="#D7BD6C" opacity="1.000000" stroke="none" 
	d="
M99.727943,149.269958 
	C99.963608,148.513062 100.424156,147.538055 101.213989,146.475037 
	C101.013130,147.275299 100.482979,148.163574 99.727943,149.269958 
z"/>
<path fill="#E5C66D" opacity="1.000000" stroke="none" 
	d="
M138.526154,78.602837 
	C138.440460,79.210564 138.083618,79.989471 137.410385,80.892548 
	C137.480988,80.269142 137.867981,79.521584 138.526154,78.602837 
z"/>
<path fill="#B99844" opacity="1.000000" stroke="none" 
	d="
M175.923660,190.228897 
	C176.011429,189.730362 176.308624,189.038528 176.877014,188.198273 
	C176.809845,188.711761 176.471466,189.373672 175.923660,190.228897 
z"/>
<path fill="#E5C66D" opacity="1.000000" stroke="none" 
	d="
M136.799500,81.260780 
	C136.705154,81.817612 136.376816,82.516724 135.746887,83.242203 
	C135.818695,82.646744 136.192108,82.024902 136.799500,81.260780 
z"/>
<path fill="#D7BD6C" opacity="1.000000" stroke="none" 
	d="
M87.702911,153.153549 
	C87.994209,153.158432 88.001823,153.579147 87.806816,153.998474 
	C87.083099,154.625824 86.554382,154.833862 86.025673,155.041901 
	C86.025673,155.041901 85.859322,154.863892 85.772430,154.778046 
	C86.260902,154.177689 86.836258,153.663177 87.702911,153.153549 
z"/>
<path fill="#D7BD6C" opacity="1.000000" stroke="none" 
	d="
M99.387314,135.814682 
	C99.329346,136.362473 99.036842,137.078705 98.445717,137.902390 
	C98.482315,137.334259 98.817551,136.658707 99.387314,135.814682 
z"/>
<path fill="#DFC87B" opacity="1.000000" stroke="none" 
	d="
M163.637573,54.133972 
	C163.563019,53.743629 163.708557,53.151176 164.129913,52.395699 
	C164.223038,52.799072 164.040344,53.365467 163.637573,54.133972 
z"/>
<path fill="#B99844" opacity="1.000000" stroke="none" 
	d="
M182.953400,201.654907 
	C182.577911,201.700760 182.006699,201.510529 181.236374,201.084686 
	C181.610733,201.039017 182.184219,201.228928 182.953400,201.654907 
z"/>
<path fill="#B99844" opacity="1.000000" stroke="none" 
	d="
M174.368256,193.623016 
	C174.171051,193.754196 174.033279,193.587112 173.847198,193.250214 
	C173.869888,192.927643 173.970963,192.744232 174.139435,192.424805 
	C174.271790,192.645111 174.332565,192.999100 174.368256,193.623016 
z"/>
<path fill="#D7BD6C" opacity="1.000000" stroke="none" 
	d="
M104.346764,143.034119 
	C104.388512,142.652985 104.685875,142.168976 105.281891,141.649902 
	C105.254486,142.053650 104.928436,142.492432 104.346764,143.034119 
z"/>
<path fill="#D7BD6C" opacity="1.000000" stroke="none" 
	d="
M113.076324,105.672554 
	C112.765450,105.535919 112.409462,105.124657 111.999161,104.439659 
	C112.306969,104.576599 112.669090,104.987267 113.076324,105.672554 
z"/>
<path fill="#DFC87B" opacity="1.000000" stroke="none" 
	d="
M139.536072,101.126022 
	C139.476913,100.715538 139.668518,100.127968 140.145325,99.387848 
	C140.215958,99.806511 140.001373,100.377724 139.536072,101.126022 
z"/>
<path fill="#DFC87B" opacity="1.000000" stroke="none" 
	d="
M164.580505,52.121414 
	C164.512833,51.725475 164.679230,51.140469 165.119415,50.394020 
	C165.200317,50.799171 165.007462,51.365761 164.580505,52.121414 
z"/>
<path fill="#B99844" opacity="1.000000" stroke="none" 
	d="
M171.523773,200.223419 
	C171.828415,200.247253 172.254410,200.495377 172.803284,200.965561 
	C172.499161,200.940994 172.072128,200.694351 171.523773,200.223419 
z"/>
<path fill="#DFC87B" opacity="1.000000" stroke="none" 
	d="
M141.267517,97.864243 
	C141.243225,97.506493 141.449463,96.959702 141.883163,96.220749 
	C141.906433,96.577454 141.702255,97.126335 141.267517,97.864243 
z"/>
<path fill="#D7BD6C" opacity="1.000000" stroke="none" 
	d="
M55.368561,166.846985 
	C55.459984,167.255844 55.319122,167.889175 54.906212,168.730072 
	C54.801529,168.315567 54.968903,167.693527 55.368561,166.846985 
z"/>
<path fill="#DFC87B" opacity="1.000000" stroke="none" 
	d="
M164.683273,41.061424 
	C164.682846,41.438004 164.430145,41.967068 163.906464,42.632622 
	C163.900665,42.250706 164.165833,41.732307 164.683273,41.061424 
z"/>
<path fill="#D7BD6C" opacity="1.000000" stroke="none" 
	d="
M106.841629,140.431732 
	C106.922180,140.112366 107.244514,139.661850 107.865974,139.161713 
	C107.804535,139.508240 107.443970,139.904419 106.841629,140.431732 
z"/>
<path fill="#E8CF7A" opacity="1.000000" stroke="none" 
	d="
M83.350609,62.431526 
	C83.036240,62.289448 82.621964,61.865391 82.168930,61.130249 
	C82.503685,61.262619 82.877197,61.706081 83.350609,62.431526 
z"/>
<path fill="#E8CF7A" opacity="1.000000" stroke="none" 
	d="
M90.369980,72.395363 
	C90.045044,72.271698 89.620087,71.869263 89.143784,71.161057 
	C89.484947,71.275726 89.877449,71.696159 90.369980,72.395363 
z"/>
<path fill="#DFC87B" opacity="1.000000" stroke="none" 
	d="
M163.474518,42.808525 
	C163.567612,42.989765 163.421997,43.304710 163.070099,43.784286 
	C162.987793,43.613354 163.111786,43.277790 163.474518,42.808525 
z"/>
<path fill="#B99844" opacity="1.000000" stroke="none" 
	d="
M152.157501,198.085022 
	C152.090683,197.988861 152.455078,198.050446 152.543823,198.071136 
	C152.632553,198.091827 152.224335,198.181183 152.157501,198.085022 
z"/>
<path fill="#B99844" opacity="1.000000" stroke="none" 
	d="
M174.438477,195.880554 
	C174.249985,195.701508 174.412247,195.473175 174.778931,195.140869 
	C174.946167,195.010483 175.266388,195.238052 175.317856,195.427490 
	C175.163574,195.679581 174.957825,195.742218 174.438477,195.880554 
z"/>
<path fill="#B99844" opacity="1.000000" stroke="none" 
	d="
M174.209167,190.261353 
	C174.279800,190.182419 174.512009,190.295410 175.078247,190.604691 
	C175.412277,190.800964 175.391388,190.998291 175.292969,191.011307 
	C174.919937,190.833969 174.645340,190.643616 174.209167,190.261353 
z"/>
<path fill="#DFC87B" opacity="1.000000" stroke="none" 
	d="
M157.163727,51.756008 
	C157.404373,51.959881 157.308716,52.259956 156.850937,52.636337 
	C156.650070,52.433575 156.762939,52.146763 157.163727,51.756008 
z"/>
<path fill="#D1AF58" opacity="1.000000" stroke="none" 
	d="
M53.832790,171.053406 
	C54.013214,171.161026 53.985161,171.379456 53.798256,171.727814 
	C53.527122,171.638855 53.522087,171.407669 53.832790,171.053406 
z"/>
<path fill="#DFC87B" opacity="1.000000" stroke="none" 
	d="
M160.664490,60.221561 
	C160.544037,60.063061 160.626099,59.725174 160.887390,59.193085 
	C161.000076,59.346649 160.933548,59.694412 160.664490,60.221561 
z"/>
<path fill="#E5C66D" opacity="1.000000" stroke="none" 
	d="
M135.021866,83.765015 
	C135.277908,83.978645 135.199112,84.214951 134.754440,84.439552 
	C134.556732,84.223816 134.656235,84.010422 135.021866,83.765015 
z"/>
<path fill="#D7BD6C" opacity="1.000000" stroke="none" 
	d="
M101.669891,146.320908 
	C101.592102,146.144180 101.740128,145.807922 102.128662,145.322906 
	C102.211342,145.503220 102.053520,145.832306 101.669891,146.320908 
z"/>
<path fill="#D7BD6C" opacity="1.000000" stroke="none" 
	d="
M105.876892,141.380173 
	C105.634514,141.121521 105.759987,140.858521 106.300323,140.654709 
	C106.448158,140.898987 106.291351,141.119629 105.876892,141.380173 
z"/>
<path fill="#DFC87B" opacity="1.000000" stroke="none" 
	d="
M140.536957,99.217957 
	C140.429977,99.045166 140.552322,98.719978 140.861572,98.210144 
	C140.954422,98.372177 140.860352,98.718872 140.536957,99.217957 
z"/>
<path fill="#E8CF7A" opacity="1.000000" stroke="none" 
	d="
M79.580444,64.958832 
	C79.842247,64.777420 80.100052,64.767509 80.357849,64.757599 
	C80.354233,64.903107 80.350624,65.048622 80.347015,65.194130 
	C80.090157,65.172859 79.833298,65.151588 79.580444,64.958832 
z"/>
<path fill="#E8CF7A" opacity="1.000000" stroke="none" 
	d="
M79.006386,60.007099 
	C78.673576,60.453159 78.334328,60.892178 77.995071,61.331196 
	C77.884964,61.230915 77.774857,61.130634 77.664749,61.030357 
	C77.947540,60.720142 78.230331,60.409924 78.749481,60.043449 
	C78.985832,59.987194 78.999939,60.000057 79.006386,60.007099 
z"/>
<path fill="#E8CF7A" opacity="1.000000" stroke="none" 
	d="
M74.994431,60.992016 
	C74.988678,60.984306 75.177116,60.712440 75.177116,60.712440 
	C75.177116,60.712440 75.168663,60.924198 75.092155,60.967667 
	C75.015648,61.011139 75.000183,60.999725 74.994431,60.992016 
z"/>
<path fill="#110C04" opacity="1.000000" stroke="none" 
	d="
M120.603554,124.514633 
	C118.277428,125.464928 116.082054,126.557823 113.997475,126.376572 
	C113.254341,126.311958 111.845612,122.706039 112.416191,121.528412 
	C113.149399,120.015152 115.557350,118.473541 117.266548,118.447739 
	C120.827393,118.393997 120.940208,121.397034 120.603554,124.514633 
z"/>
<path fill="#E8CC71" opacity="1.000000" stroke="none" 
	d="
M154.782898,71.364059 
	C154.343414,71.808014 153.977142,71.889359 153.330688,72.000732 
	C151.891571,70.777969 150.732605,69.525177 149.277374,68.122116 
	C150.121429,65.767509 151.261780,63.563171 152.681870,61.174377 
	C153.444000,63.192444 153.926361,65.394958 154.714966,67.817123 
	C154.966187,69.025002 154.911148,70.013229 154.782898,71.364059 
z"/>
<path fill="#050301" opacity="1.000000" stroke="none" 
	d="
M172.910477,168.728577 
	C173.606750,170.789169 174.093887,172.586487 174.744003,174.692047 
	C175.652069,179.719040 173.825928,183.642715 170.985718,187.626907 
	C166.357025,192.297485 161.416809,195.290024 154.407349,193.151581 
	C148.613419,191.034271 143.539658,188.135452 142.171234,182.180038 
	C141.299194,178.384842 142.148331,174.194168 142.203766,169.770493 
	C144.299911,167.054413 146.418030,164.748642 149.144775,162.127686 
	C155.525391,158.506058 161.270615,159.605850 167.008484,161.917267 
	C168.906097,164.099960 170.803711,166.282639 172.910477,168.728577 
z"/>
<path fill="#DAB95E" opacity="1.000000" stroke="none" 
	d="
M152.161804,156.333618 
	C156.431549,156.258896 160.828598,156.470520 165.602692,156.850784 
	C165.778397,157.555573 165.577072,158.091721 164.755249,158.822983 
	C160.436462,159.014389 156.738174,159.010666 153.039886,159.006927 
	C152.789642,158.211273 152.539398,157.415619 152.161804,156.333618 
z"/>
<path fill="#D1AF58" opacity="1.000000" stroke="none" 
	d="
M152.737549,159.157257 
	C156.738174,159.010666 160.436462,159.014389 164.543594,159.023102 
	C165.576385,159.801361 166.200348,160.574615 166.916397,161.632568 
	C161.270615,159.605850 155.525391,158.506058 149.372299,161.882797 
	C150.139191,161.071259 151.287201,160.189423 152.737549,159.157257 
z"/>
<path fill="#DAB95E" opacity="1.000000" stroke="none" 
	d="
M85.775986,155.286377 
	C86.554382,154.833862 87.083099,154.625824 87.809647,154.208847 
	C90.083809,152.237518 92.160126,150.475128 94.770668,148.259293 
	C95.111397,149.424210 95.423058,150.489731 95.868980,151.784241 
	C95.985649,152.737442 95.968071,153.461685 95.920097,154.547455 
	C95.299377,155.406769 94.709053,155.904541 94.044556,156.699066 
	C93.649948,158.387817 93.329514,159.779785 93.016327,161.541931 
	C92.125137,163.792633 91.226685,165.673141 89.787369,167.650116 
	C86.821152,165.462906 84.395813,163.179230 81.970467,160.895569 
	C78.741447,159.496155 75.512436,158.096725 71.881889,156.523285 
	C76.501205,156.187302 81.013748,155.859085 85.775986,155.286377 
z"/>
<path fill="#040300" opacity="1.000000" stroke="none" 
	d="
M81.561691,160.852737 
	C84.395813,163.179230 86.821152,165.462906 89.542152,167.908722 
	C90.525017,170.462036 91.212227,172.853210 91.987854,175.613434 
	C91.666542,182.532593 89.154785,187.861664 83.023315,191.469482 
	C82.815155,191.729904 82.854683,191.753769 82.576782,191.841370 
	C81.858398,192.240997 81.417923,192.553040 80.977448,192.865082 
	C77.950714,192.982422 74.923981,193.099777 71.441788,193.235321 
	C63.323723,191.188248 57.689320,184.637161 58.494644,175.435303 
	C59.925060,171.571259 61.370659,168.158707 63.192730,164.350372 
	C63.765442,163.640717 63.961681,163.326843 64.157928,163.012985 
	C64.157928,163.012985 64.056473,163.047760 64.401253,163.033112 
	C65.844612,162.361237 66.943184,161.704025 68.041756,161.046814 
	C72.412140,160.967850 76.782532,160.888870 81.561691,160.852737 
z"/>
<path fill="#C8A450" opacity="1.000000" stroke="none" 
	d="
M81.047318,193.151733 
	C81.417923,192.553040 81.858398,192.240997 82.553253,191.838837 
	C82.576340,192.567947 82.345047,193.387207 82.113747,194.206451 
	C81.781563,193.950424 81.449379,193.694397 81.047318,193.151733 
z"/>
<path fill="#D7BD6C" opacity="1.000000" stroke="none" 
	d="
M68.016624,161.020630 
	C66.943184,161.704025 65.844612,162.361237 64.420990,163.082962 
	C64.062294,162.672791 64.028633,162.198105 63.992523,161.366638 
	C63.990059,161.009857 64.004051,160.995972 64.402405,160.985046 
	C65.847389,160.963608 66.894020,160.953125 67.940643,160.942627 
	C67.940643,160.942627 67.991493,160.994431 68.016624,161.020630 
z"/>
<path fill="#D7BD6C" opacity="1.000000" stroke="none" 
	d="
M63.935123,163.168396 
	C63.961681,163.326843 63.765442,163.640717 63.307888,164.063660 
	C63.268490,163.889755 63.490406,163.606781 63.935123,163.168396 
z"/>
<path fill="#D1AF58" opacity="1.000000" stroke="none" 
	d="
M67.936218,160.573059 
	C66.894020,160.953125 65.847389,160.963608 64.408707,160.978760 
	C64.265511,159.882431 64.514366,158.781464 64.897621,157.365417 
	C65.998611,158.101379 66.965195,159.152435 67.936218,160.573059 
z"/>
<path fill="#E8CF7A" opacity="1.000000" stroke="none" 
	d="
M168.491119,38.488380 
	C168.512939,38.479893 168.469315,38.496872 168.491119,38.488380 
z"/>
</svg>