<svg version="1.1" id="Layer_1" xmlns="http://www.w3.org/2000/svg" xmlns:xlink="http://www.w3.org/1999/xlink" x="0px" y="0px"
	 width="100%" viewBox="0 0 245 227" enable-background="new 0 0 245 227" xml:space="preserve">
<path fill="#000000" opacity="1.000000" stroke="none" 
	d="
M164.000000,228.000000 
	C109.333336,228.000000 55.166672,228.000000 1.000007,228.000000 
	C1.000005,152.333344 1.000005,76.666679 1.000002,1.000017 
	C82.666656,1.000012 164.333313,1.000012 245.999969,1.000006 
	C245.999985,76.666649 245.999985,152.333298 246.000000,227.999969 
	C218.833328,228.000000 191.666672,228.000000 164.000000,228.000000 
M192.942352,80.458389 
	C192.628357,80.262924 192.314362,80.067459 192.010559,79.988022 
	C192.010559,79.988022 192.126495,79.976707 191.934601,79.461700 
	C191.618195,79.362312 191.301773,79.262917 190.473404,78.946541 
	C190.035309,78.624649 189.597214,78.302765 188.895142,77.360695 
	C187.947769,76.864792 187.000412,76.368889 186.037521,75.965019 
	C186.037521,75.965019 186.130081,75.976967 185.939636,75.452797 
	C185.618164,75.353928 185.296692,75.255058 184.463745,74.937378 
	C184.026825,74.615479 183.589905,74.293579 182.812195,73.319740 
	C173.945801,70.248230 165.264771,66.261467 156.150162,64.415573 
	C149.692368,63.107731 142.648499,64.693848 135.036591,65.006500 
	C123.684799,67.390884 112.333015,69.775276 100.198555,72.017975 
	C97.461296,72.739059 94.724030,73.460152 91.489059,74.087204 
	C91.317574,74.360970 91.146088,74.634743 90.179245,74.999405 
	C82.431541,77.967346 74.683830,80.935287 66.224396,83.988060 
	C58.364006,88.818649 52.688183,95.535942 48.391388,104.183846 
	C48.327499,104.785866 48.263611,105.387886 48.008011,106.432426 
	C47.676239,107.264496 47.344467,108.096565 46.494606,109.076775 
	C46.406380,109.384476 46.318157,109.692177 46.081497,110.642853 
	C46.031364,111.079697 45.981232,111.516541 45.286987,112.260719 
	C44.918221,113.718216 44.549454,115.175720 44.180687,116.633217 
	C44.538509,116.775475 44.896336,116.917732 45.254158,117.059990 
	C46.187702,115.381996 47.121243,113.703995 48.624298,111.800568 
	C53.767792,101.823868 59.948959,92.747559 71.067329,87.420433 
	C69.015808,89.937225 66.964287,92.454025 64.289513,95.235420 
	C60.765575,99.246277 57.156841,103.209839 55.968594,108.523323 
	C56.560833,108.944336 57.153072,109.365356 57.745312,109.786369 
	C60.843906,105.559189 63.942501,101.332008 67.675941,96.827820 
	C71.138069,93.905258 74.600189,90.982689 78.771034,87.968475 
	C80.535683,86.332581 82.300323,84.696686 84.730621,82.997795 
	C85.876335,82.989311 87.022057,82.980835 88.098915,83.548157 
	C88.049080,84.324699 87.999245,85.101250 87.238846,85.994431 
	C81.017151,90.219757 74.629005,94.277046 71.537811,101.677612 
	C77.727310,96.800575 83.916801,91.923546 90.832153,86.975838 
	C95.550240,83.596939 100.268333,80.218040 105.859596,76.975197 
	C110.577415,75.926697 115.295235,74.878197 120.846535,73.974091 
	C123.930618,73.324341 127.014702,72.674599 130.558548,71.960289 
	C130.558548,71.960289 130.997177,71.808090 131.864166,71.968002 
	C143.624466,70.529991 155.359818,70.111618 167.654160,73.135101 
	C171.088165,74.455688 174.522186,75.776276 178.280716,77.740799 
	C187.288254,81.928886 195.362396,87.403877 201.179382,95.005051 
	C200.210037,94.898163 199.156219,95.001457 198.284683,94.651192 
	C191.192505,91.800941 184.134445,88.865822 176.672012,85.258522 
	C174.159225,84.705803 171.660980,83.781586 169.130432,83.682526 
	C164.710236,83.509491 160.270172,83.843979 155.408951,83.993881 
	C155.408951,83.993881 155.005493,84.143814 154.137421,84.015541 
	C149.235931,85.006035 144.241959,85.675217 139.452286,87.054138 
	C129.578018,89.896866 119.812828,93.118416 109.267754,96.241837 
	C104.590439,95.404190 100.770271,97.390892 96.800667,99.242203 
	C94.599945,99.255669 91.920212,98.466316 90.291336,99.438194 
	C85.985687,102.007202 82.099976,105.293678 78.116173,108.383621 
	C75.477364,110.430359 72.957703,112.630730 70.384697,114.762321 
	C70.873436,115.480545 71.362175,116.198761 71.850914,116.916977 
	C78.251625,114.290565 84.652344,111.664154 91.766106,108.972633 
	C93.263321,108.084824 94.678230,106.994804 96.272652,106.345856 
	C101.814079,104.090370 107.417763,101.987869 113.808655,99.966225 
	C117.899391,98.792778 122.030380,97.740837 126.066879,96.403656 
	C128.812561,95.494095 131.425919,94.185043 134.888901,93.006561 
	C139.939667,92.047394 144.990417,91.088226 150.913254,90.004173 
	C158.286560,89.941093 165.659866,89.878014 173.648529,89.976730 
	C174.071182,90.009872 174.493820,90.043022 175.272552,90.754311 
	C177.206161,91.115372 179.139786,91.476433 181.674988,91.990326 
	C182.087296,92.023438 182.499603,92.056549 183.252899,92.739029 
	C185.513474,93.435143 187.774033,94.131248 190.431488,94.985001 
	C190.431488,94.985001 190.856888,95.022522 191.072784,95.529556 
	C191.391312,95.621498 191.709839,95.713440 192.441681,95.962280 
	C192.441681,95.962280 192.880539,96.015694 193.190552,96.664108 
	C195.115646,97.473961 197.040741,98.283813 198.974136,99.022026 
	C198.974136,99.022026 198.902267,99.016090 199.084839,99.530472 
	C199.400238,99.627426 199.715622,99.724373 200.429123,99.985527 
	C200.429123,99.985527 200.858063,100.023529 201.062637,100.535645 
	C201.380890,100.631828 201.699158,100.728004 202.434708,100.975990 
	C202.434708,100.975990 202.876801,101.017624 203.159927,101.658241 
	C204.759949,102.472786 206.359970,103.287331 207.980423,104.019501 
	C207.980423,104.019501 207.897629,104.000916 208.069839,104.531372 
	C208.379730,104.715126 208.689606,104.898880 208.981094,105.018417 
	C208.981094,105.018417 208.928818,105.059990 209.227432,105.695625 
	C209.808548,105.959793 210.399429,106.204552 210.969009,106.491623 
	C212.971664,107.501038 214.966980,108.524994 216.965088,109.543427 
	C216.236557,107.182121 215.521835,104.816277 214.750473,102.469055 
	C214.695160,102.300735 214.225876,102.268456 213.320282,101.854668 
	C211.583710,99.887360 209.847137,97.920052 207.851700,95.329124 
	C204.508804,91.892471 201.165894,88.455826 197.911911,84.473763 
	C197.611603,84.281883 197.311279,84.090004 197.022797,83.968285 
	C197.022797,83.968285 197.091553,83.950096 196.838165,83.341331 
	C195.910385,82.851562 194.982620,82.361794 194.038406,81.973122 
	C194.038406,81.973122 194.139984,81.986252 193.940689,81.454300 
	C193.627884,81.256432 193.315063,81.058563 193.003662,80.994736 
	C193.003662,80.994736 193.137695,80.992874 192.942352,80.458389 
M47.035881,100.031494 
	C47.035881,100.031494 47.062878,100.104301 47.694580,99.790070 
	C49.973217,96.105385 52.251858,92.420708 54.530495,88.736023 
	C53.932018,88.313042 53.333542,87.890053 52.735065,87.467072 
	C50.462219,90.279106 48.189373,93.091133 45.296547,96.212189 
	C40.409161,102.552147 37.694481,109.567848 37.184196,117.269150 
	C37.661797,117.418182 38.139397,117.567215 38.616997,117.716248 
	C41.354137,112.148743 44.091274,106.581238 46.983799,100.541550 
	C46.983799,100.541550 47.108021,100.060226 47.035881,100.031494 
M35.022568,109.857674 
	C34.978317,109.051796 34.934067,108.245918 34.882145,107.300278 
	C29.951750,112.800468 28.468641,121.269302 32.183125,126.482399 
	C33.212097,120.749847 34.114662,115.721512 35.022568,109.857674 
M71.508148,106.998421 
	C70.945099,108.124733 70.382050,109.251038 69.819000,110.377350 
	C70.135361,110.598000 70.451721,110.818649 70.768082,111.039299 
	C74.973007,107.421082 79.177925,103.802864 83.382851,100.184647 
	C83.066254,99.761307 82.749649,99.337967 82.433052,98.914627 
	C77.747955,99.519890 75.068100,103.288864 71.508148,106.998421 
M86.059761,94.453384 
	C85.328835,95.390373 84.597916,96.327370 83.866997,97.264359 
	C84.202469,97.672928 84.537949,98.081490 84.873428,98.490051 
	C88.219460,96.242752 91.565483,93.995453 94.911514,91.748154 
	C94.689171,91.335464 94.466827,90.922775 94.244476,90.510086 
	C91.727783,91.691299 89.211090,92.872520 86.059761,94.453384 
z"/>
<path fill="#E7C666" opacity="1.000000" stroke="none" 
	d="
M200.858063,100.023529 
	C200.858063,100.023529 200.429123,99.985527 200.065308,99.738281 
	C199.453857,99.301117 199.187454,99.142799 198.902267,99.016090 
	C198.902267,99.016090 198.974136,99.022026 198.881592,98.705498 
	C196.819550,97.597878 194.850052,96.806786 192.880539,96.015694 
	C192.880539,96.015694 192.441681,95.962280 192.063644,95.719604 
	C191.428848,95.289925 191.152603,95.138458 190.856888,95.022522 
	C190.856888,95.022522 190.431488,94.985001 190.118210,94.592087 
	C187.507263,93.496010 185.209579,92.792831 182.911911,92.089653 
	C182.499603,92.056549 182.087296,92.023438 181.250916,91.594254 
	C178.856735,90.824181 176.886597,90.450172 174.916473,90.076164 
	C174.493820,90.043022 174.071182,90.009872 173.178360,89.558182 
	C165.575577,86.119850 158.298538,87.928307 151.069016,88.570122 
	C150.683319,88.604362 150.381851,89.587601 150.041168,90.129059 
	C144.990417,91.088226 139.939667,92.047394 134.087799,93.021835 
	C130.499344,93.506943 127.711967,93.976776 124.924591,94.446602 
	C124.797020,93.895920 124.669441,93.345238 124.541870,92.794556 
	C133.081421,90.534164 141.628784,88.302498 150.153809,85.988609 
	C151.815536,85.537582 153.390503,84.767006 155.005493,84.143814 
	C155.005493,84.143814 155.408951,83.993881 156.059540,83.999336 
	C163.495422,84.655373 170.280701,85.305962 177.065994,85.956543 
	C184.134445,88.865822 191.192505,91.800941 198.284683,94.651192 
	C199.156219,95.001457 200.210037,94.898163 201.657288,95.281380 
	C203.912888,98.928024 206.020096,97.313805 208.110565,95.952744 
	C209.847137,97.920052 211.583710,99.887360 213.608459,102.381058 
	C212.240692,103.624969 210.584747,104.342484 208.928818,105.059990 
	C208.928818,105.059990 208.981094,105.018417 208.836243,104.841316 
	C208.426804,104.443115 208.162216,104.222015 207.897629,104.000916 
	C207.897629,104.000916 207.980423,104.019501 207.893509,103.712868 
	C206.163330,102.610031 204.520065,101.813828 202.876801,101.017624 
	C202.876801,101.017624 202.434708,100.975990 202.057663,100.732994 
	C201.425064,100.301666 201.150879,100.146179 200.858063,100.023529 
z"/>
<path fill="#EACF73" opacity="1.000000" stroke="none" 
	d="
M100.981216,72.159668 
	C112.333015,69.775276 123.684799,67.390884 135.839905,65.154984 
	C140.110413,65.559990 143.577606,65.816513 147.032867,66.458679 
	C147.030029,67.876083 147.039154,68.907852 146.582657,69.952049 
	C141.077087,70.579010 136.037125,71.193558 130.997177,71.808090 
	C130.997177,71.808090 130.558548,71.960289 129.982422,71.842499 
	C126.275223,72.426376 123.144142,73.128036 120.013054,73.829704 
	C115.295235,74.878197 110.577415,75.926697 105.319839,76.604752 
	C103.857086,75.835373 102.934097,75.436432 101.796066,74.805733 
	C101.381096,73.769203 101.181160,72.964432 100.981216,72.159668 
z"/>
<path fill="#E0C773" opacity="1.000000" stroke="none" 
	d="
M91.053062,109.037743 
	C84.652344,111.664154 78.251625,114.290565 71.850914,116.916977 
	C71.362175,116.198761 70.873436,115.480545 70.384697,114.762321 
	C72.957703,112.630730 75.477364,110.430359 78.116173,108.383621 
	C82.099976,105.293678 85.985687,102.007202 90.291336,99.438194 
	C91.920212,98.466316 94.599945,99.255669 96.630936,99.726501 
	C94.658356,102.788307 92.855515,105.365829 90.976486,107.689255 
	C90.261353,107.619469 89.622406,107.803772 88.904449,108.030777 
	C88.825455,108.073486 88.816200,108.291718 88.816200,108.291718 
	C88.816200,108.291718 89.011749,108.016266 89.333595,108.018867 
	C90.083588,108.035255 90.511726,108.049042 90.961563,108.307312 
	C90.983253,108.551811 91.053062,109.037743 91.053062,109.037743 
M94.514435,99.095406 
	C94.442970,99.288063 94.371513,99.480721 94.300056,99.673378 
	C94.501289,99.613739 94.702530,99.554108 94.514435,99.095406 
z"/>
<path fill="#E8CA70" opacity="1.000000" stroke="none" 
	d="
M207.981140,95.640930 
	C206.020096,97.313805 203.912888,98.928024 202.047363,95.236488 
	C195.362396,87.403877 187.288254,81.928886 178.205154,77.155716 
	C177.754593,75.363945 177.379593,74.157249 177.385315,73.030670 
	C179.561691,73.397751 181.357330,73.684723 183.152985,73.971687 
	C183.589905,74.293579 184.026825,74.615479 184.884247,75.219482 
	C185.561371,75.692139 185.836487,75.850594 186.130081,75.976967 
	C186.130081,75.976967 186.037521,75.965019 186.117828,76.265518 
	C187.185135,77.037643 188.172134,77.509262 189.159119,77.980881 
	C189.597214,78.302765 190.035309,78.624649 190.895248,79.222023 
	C191.573578,79.679733 191.843384,79.839462 192.126495,79.976707 
	C192.126495,79.976707 192.010559,79.988022 192.166962,80.144501 
	C192.594803,80.531609 192.866257,80.762238 193.137695,80.992874 
	C193.137695,80.992874 193.003662,80.994736 193.163605,81.143845 
	C193.595688,81.524055 193.867844,81.755157 194.139984,81.986252 
	C194.139984,81.986252 194.038406,81.973122 194.124359,82.259621 
	C195.170731,83.014107 196.131134,83.482101 197.091553,83.950096 
	C197.091553,83.950096 197.022797,83.968285 197.125504,84.139397 
	C197.376053,84.589050 197.574326,84.825272 197.822998,85.019173 
	C201.165894,88.455826 204.508804,91.892471 207.981140,95.640930 
z"/>
<path fill="#E7D07E" opacity="1.000000" stroke="none" 
	d="
M154.571457,84.079681 
	C153.390503,84.767006 151.815536,85.537582 150.153809,85.988609 
	C141.628784,88.302498 133.081421,90.534164 124.541870,92.794556 
	C124.669441,93.345238 124.797020,93.895920 124.924591,94.446602 
	C127.711967,93.976776 130.499344,93.506943 133.692581,93.045876 
	C131.425919,94.185043 128.812561,95.494095 126.066879,96.403656 
	C122.030380,97.740837 117.899391,98.792778 113.384491,99.572525 
	C111.974464,98.180588 110.988609,97.182343 110.002754,96.184097 
	C119.812828,93.118416 129.578018,89.896866 139.452286,87.054138 
	C144.241959,85.675217 149.235931,85.006035 154.571457,84.079681 
z"/>
<path fill="#E4CA78" opacity="1.000000" stroke="none" 
	d="
M45.931095,111.953384 
	C45.981232,111.516541 46.031364,111.079697 46.321766,110.170364 
	C46.771027,109.475899 46.921246,109.219482 47.012695,108.928635 
	C47.344467,108.096565 47.676239,107.264496 48.280899,105.994194 
	C48.696228,105.021828 48.838673,104.487701 48.981117,103.953568 
	C52.688183,95.535942 58.364006,88.818649 66.790184,84.186012 
	C68.326225,85.219658 69.296471,86.055351 70.222740,86.946106 
	C70.178764,87.001167 70.067627,87.087830 70.067627,87.087830 
	C59.948959,92.747559 53.767792,101.823868 47.985619,111.898026 
	C46.874992,111.981453 46.403042,111.967415 45.931095,111.953384 
z"/>
<path fill="#E2C360" opacity="1.000000" stroke="none" 
	d="
M109.635254,96.212967 
	C110.988609,97.182343 111.974464,98.180588 112.979050,99.503014 
	C107.417763,101.987869 101.814079,104.090370 96.272652,106.345856 
	C94.678230,106.994804 93.263321,108.084824 91.409584,109.005188 
	C91.053062,109.037743 90.983253,108.551811 90.989853,108.277527 
	C90.996445,108.003235 91.052673,107.943352 91.052673,107.943352 
	C92.855515,105.365829 94.658356,102.788307 96.789360,100.070007 
	C100.770271,97.390892 104.590439,95.404190 109.635254,96.212967 
z"/>
<path fill="#EBD68C" opacity="1.000000" stroke="none" 
	d="
M182.982590,73.645714 
	C181.357330,73.684723 179.561691,73.397751 177.146606,72.783577 
	C170.355209,70.630234 164.183258,68.804092 157.633835,66.819183 
	C153.852509,66.464622 150.448669,66.268837 147.044815,66.073044 
	C143.577606,65.816513 140.110413,65.559990 136.254730,65.145813 
	C142.648499,64.693848 149.692368,63.107731 156.150162,64.415573 
	C165.264771,66.261467 173.945801,70.248230 182.982590,73.645714 
z"/>
<path fill="#DCCA84" opacity="1.000000" stroke="none" 
	d="
M102.011101,75.037498 
	C102.934097,75.436432 103.857086,75.835373 104.883255,76.536728 
	C100.268333,80.218040 95.550240,83.596939 90.159294,86.948257 
	C88.974091,86.573051 88.461754,86.225426 87.949417,85.877792 
	C87.999245,85.101250 88.049080,84.324699 88.425217,83.105301 
	C90.842819,81.108078 92.934128,79.553711 95.341278,77.849487 
	C97.775124,76.812248 99.893112,75.924873 102.011101,75.037498 
z"/>
<path fill="#DCC375" opacity="1.000000" stroke="none" 
	d="
M46.828415,101.013733 
	C44.091274,106.581238 41.354137,112.148743 38.616997,117.716248 
	C38.139397,117.567215 37.661797,117.418182 37.184196,117.269150 
	C37.694481,109.567848 40.409161,102.552147 45.758698,96.390350 
	C46.501530,97.747108 46.782204,98.925705 47.062878,100.104301 
	C47.062878,100.104301 47.035881,100.031494 46.871559,100.060303 
	C46.496052,100.247498 46.284859,100.405876 46.073669,100.564255 
	C46.325256,100.714081 46.576836,100.863907 46.828415,101.013733 
z"/>
<path fill="#EACF73" opacity="1.000000" stroke="none" 
	d="
M158.011307,66.977951 
	C164.183258,68.804092 170.355209,70.630234 176.765869,72.703461 
	C177.379593,74.157249 177.754593,75.363945 178.042892,76.833755 
	C174.522186,75.776276 171.088165,74.455688 167.213531,72.651077 
	C163.845657,71.110100 160.918442,70.053146 157.995987,68.660004 
	C158.004272,67.875191 158.007797,67.426567 158.011307,66.977951 
z"/>
<path fill="#E8CA70" opacity="1.000000" stroke="none" 
	d="
M95.025429,77.999352 
	C92.934128,79.553711 90.842819,81.108078 88.459641,82.817398 
	C87.022057,82.980835 85.876335,82.989311 83.993988,83.016403 
	C81.492035,82.680267 79.726730,82.325516 78.286720,81.825722 
	C82.732887,79.423286 86.853745,77.165901 90.974609,74.908516 
	C91.146088,74.634743 91.317574,74.360970 91.843597,74.433746 
	C93.140564,75.853310 94.082993,76.926331 95.025429,77.999352 
z"/>
<path fill="#D3C884" opacity="1.000000" stroke="none" 
	d="
M87.594131,85.936111 
	C88.461754,86.225426 88.974091,86.573051 89.796371,86.983597 
	C83.916801,91.923546 77.727310,96.800575 71.537811,101.677612 
	C74.629005,94.277046 81.017151,90.219757 87.594131,85.936111 
z"/>
<path fill="#E4CA78" opacity="1.000000" stroke="none" 
	d="
M67.041092,97.104820 
	C63.942501,101.332008 60.843906,105.559189 57.745312,109.786369 
	C57.153072,109.365356 56.560833,108.944336 55.968594,108.523323 
	C57.156841,103.209839 60.765575,99.246277 64.916649,95.188576 
	C66.042885,95.796097 66.541985,96.450455 67.041092,97.104820 
z"/>
<path fill="#EBD68C" opacity="1.000000" stroke="none" 
	d="
M90.576927,74.953964 
	C86.853745,77.165901 82.732887,79.423286 78.045807,81.734390 
	C76.653923,81.870331 75.828255,81.952545 74.656509,82.044548 
	C73.862946,83.407043 73.415443,84.759743 72.609642,86.057014 
	C71.641716,86.328072 71.032089,86.654564 70.391258,86.945175 
	C70.360062,86.909279 70.266716,86.891045 70.266716,86.891045 
	C69.296471,86.055351 68.326225,85.219658 67.146042,84.143600 
	C74.683830,80.935287 82.431541,77.967346 90.576927,74.953964 
z"/>
<path fill="#D1BC71" opacity="1.000000" stroke="none" 
	d="
M35.019897,110.275421 
	C34.114662,115.721512 33.212097,120.749847 32.183125,126.482399 
	C28.468641,121.269302 29.951750,112.800468 34.882145,107.300278 
	C34.934067,108.245918 34.978317,109.051796 35.019897,110.275421 
z"/>
<path fill="#E7D07E" opacity="1.000000" stroke="none" 
	d="
M70.222740,86.946106 
	C70.266716,86.891045 70.360062,86.909279 70.680786,87.427338 
	C71.655510,87.587929 72.309509,87.230469 73.239151,87.118492 
	C74.967476,87.539154 76.420158,87.714333 77.920258,87.932114 
	C77.967682,87.974701 78.062309,88.060120 78.062309,88.060120 
	C74.600189,90.982689 71.138069,93.905258 67.358521,96.966324 
	C66.541985,96.450455 66.042885,95.796097 65.228271,95.056274 
	C66.964287,92.454025 69.015808,89.937225 70.567474,87.254135 
	C70.067627,87.087830 70.178764,87.001167 70.222740,86.946106 
M71.466171,91.493477 
	C71.466171,91.493477 71.511734,91.474777 71.466171,91.493477 
z"/>
<path fill="#D4C27D" opacity="1.000000" stroke="none" 
	d="
M71.766449,106.741386 
	C75.068100,103.288864 77.747955,99.519890 82.433052,98.914627 
	C82.749649,99.337967 83.066254,99.761307 83.382851,100.184647 
	C79.177925,103.802864 74.973007,107.421082 70.768082,111.039299 
	C70.451721,110.818649 70.135361,110.598000 69.819000,110.377350 
	C70.382050,109.251038 70.945099,108.124733 71.766449,106.741386 
z"/>
<path fill="#E7D07E" opacity="1.000000" stroke="none" 
	d="
M157.991211,68.996193 
	C160.918442,70.053146 163.845657,71.110100 166.895660,72.497704 
	C155.359818,70.111618 143.624466,70.529991 131.430664,71.888046 
	C136.037125,71.193558 141.077087,70.579010 147.005005,69.963356 
	C149.593094,69.966103 151.293213,69.969963 153.352020,69.978210 
	C154.810745,69.660500 155.910797,69.338409 157.255981,69.013443 
	C157.501114,69.010582 157.991211,68.996193 157.991211,68.996193 
z"/>
<path fill="#DCCA84" opacity="1.000000" stroke="none" 
	d="
M47.378731,99.947189 
	C46.782204,98.925705 46.501530,97.747108 46.068687,96.235840 
	C48.189373,93.091133 50.462219,90.279106 52.735065,87.467072 
	C53.333542,87.890053 53.932018,88.313042 54.530495,88.736023 
	C52.251858,92.420708 49.973217,96.105385 47.378731,99.947189 
z"/>
<path fill="#E7D07E" opacity="1.000000" stroke="none" 
	d="
M150.477203,90.066620 
	C150.381851,89.587601 150.683319,88.604362 151.069016,88.570122 
	C158.298538,87.928307 165.575577,86.119850 172.870682,89.477280 
	C165.659866,89.878014 158.286560,89.941093 150.477203,90.066620 
z"/>
<path fill="#E7D07E" opacity="1.000000" stroke="none" 
	d="
M95.341278,77.849487 
	C94.082993,76.926331 93.140564,75.853310 92.092453,74.480759 
	C94.724030,73.460152 97.461296,72.739059 100.589890,72.088821 
	C101.181160,72.964432 101.381096,73.769203 101.796066,74.805733 
	C99.893112,75.924873 97.775124,76.812248 95.341278,77.849487 
z"/>
<path fill="#E7D07E" opacity="1.000000" stroke="none" 
	d="
M176.869003,85.607536 
	C170.280701,85.305962 163.495422,84.655373 156.274277,83.985291 
	C160.270172,83.843979 164.710236,83.509491 169.130432,83.682526 
	C171.660980,83.781586 174.159225,84.705803 176.869003,85.607536 
z"/>
<path fill="#E0C773" opacity="1.000000" stroke="none" 
	d="
M209.078125,105.377808 
	C210.584747,104.342484 212.240692,103.624969 213.922852,102.540192 
	C214.225876,102.268456 214.695160,102.300735 214.750473,102.469055 
	C215.521835,104.816277 216.236557,107.182121 216.965088,109.543427 
	C214.966980,108.524994 212.971664,107.501038 210.969009,106.491623 
	C210.399429,106.204552 209.808548,105.959793 209.078125,105.377808 
z"/>
<path fill="#D3C884" opacity="1.000000" stroke="none" 
	d="
M86.377075,94.253555 
	C89.211090,92.872520 91.727783,91.691299 94.244476,90.510086 
	C94.466827,90.922775 94.689171,91.335464 94.911514,91.748154 
	C91.565483,93.995453 88.219460,96.242752 84.873428,98.490051 
	C84.537949,98.081490 84.202469,97.672928 83.866997,97.264359 
	C84.597916,96.327370 85.328835,95.390373 86.377075,94.253555 
z"/>
<path fill="#E7D07E" opacity="1.000000" stroke="none" 
	d="
M75.002579,82.034760 
	C75.828255,81.952545 76.653923,81.870331 77.720505,81.879440 
	C79.726730,82.325516 81.492035,82.680267 83.661156,83.047897 
	C82.300323,84.696686 80.535683,86.332581 78.416672,88.014297 
	C78.062309,88.060120 77.967682,87.974701 77.889336,87.660973 
	C76.874855,85.576416 75.938713,83.805588 75.002579,82.034760 
z"/>
<path fill="#E7D07E" opacity="1.000000" stroke="none" 
	d="
M120.429794,73.901901 
	C123.144142,73.128036 126.275223,72.426376 129.752548,71.874779 
	C127.014702,72.674599 123.930618,73.324341 120.429794,73.901901 
z"/>
<path fill="#E7D07E" opacity="1.000000" stroke="none" 
	d="
M183.082397,92.414337 
	C185.209579,92.792831 187.507263,93.496010 189.919769,94.513268 
	C187.774033,94.131248 185.513474,93.435143 183.082397,92.414337 
z"/>
<path fill="#D4C27D" opacity="1.000000" stroke="none" 
	d="
M45.609039,112.107056 
	C46.403042,111.967415 46.874992,111.981453 47.700863,112.010742 
	C47.121243,113.703995 46.187702,115.381996 45.254158,117.059990 
	C44.896336,116.917732 44.538509,116.775475 44.180687,116.633217 
	C44.549454,115.175720 44.918221,113.718216 45.609039,112.107056 
z"/>
<path fill="#E7D07E" opacity="1.000000" stroke="none" 
	d="
M175.094513,90.415237 
	C176.886597,90.450172 178.856735,90.824181 180.950134,91.517845 
	C179.139786,91.476433 177.206161,91.115372 175.094513,90.415237 
z"/>
<path fill="#E7D07E" opacity="1.000000" stroke="none" 
	d="
M193.035553,96.339905 
	C194.850052,96.806786 196.819550,97.597878 198.877441,98.741318 
	C197.040741,98.283813 195.115646,97.473961 193.035553,96.339905 
z"/>
<path fill="#E7D07E" opacity="1.000000" stroke="none" 
	d="
M203.018372,101.337936 
	C204.520065,101.813828 206.163330,102.610031 207.883301,103.754059 
	C206.359970,103.287331 204.759949,102.472786 203.018372,101.337936 
z"/>
<path fill="#EBD68C" opacity="1.000000" stroke="none" 
	d="
M189.027130,77.670792 
	C188.172134,77.509262 187.185135,77.037643 186.125595,76.219513 
	C187.000412,76.368889 187.947769,76.864792 189.027130,77.670792 
z"/>
<path fill="#EBD68C" opacity="1.000000" stroke="none" 
	d="
M196.964859,83.645714 
	C196.131134,83.482101 195.170731,83.014107 194.132568,82.209076 
	C194.982620,82.361794 195.910385,82.851562 196.964859,83.645714 
z"/>
<path fill="#DCCA84" opacity="1.000000" stroke="none" 
	d="
M46.906109,100.777641 
	C46.576836,100.863907 46.325256,100.714081 46.073669,100.564255 
	C46.284859,100.405876 46.496052,100.247498 46.907631,100.074677 
	C47.108021,100.060226 46.983799,100.541550 46.906109,100.777641 
z"/>
<path fill="#D4C27D" opacity="1.000000" stroke="none" 
	d="
M48.686253,104.068710 
	C48.838673,104.487701 48.696228,105.021828 48.376755,105.772934 
	C48.263611,105.387886 48.327499,104.785866 48.686253,104.068710 
z"/>
<path fill="#E7D07E" opacity="1.000000" stroke="none" 
	d="
M200.960358,100.279587 
	C201.150879,100.146179 201.425064,100.301666 201.849014,100.657089 
	C201.699158,100.728004 201.380890,100.631828 200.960358,100.279587 
z"/>
<path fill="#EBD68C" opacity="1.000000" stroke="none" 
	d="
M197.867462,84.746468 
	C197.574326,84.825272 197.376053,84.589050 197.119598,84.104324 
	C197.311279,84.090004 197.611603,84.281883 197.867462,84.746468 
z"/>
<path fill="#D4C27D" opacity="1.000000" stroke="none" 
	d="
M46.753654,109.002701 
	C46.921246,109.219482 46.771027,109.475899 46.395981,109.848877 
	C46.318157,109.692177 46.406380,109.384476 46.753654,109.002701 
z"/>
<path fill="#E7D07E" opacity="1.000000" stroke="none" 
	d="
M207.983734,104.266144 
	C208.162216,104.222015 208.426804,104.443115 208.845444,104.873428 
	C208.689606,104.898880 208.379730,104.715126 207.983734,104.266144 
z"/>
<path fill="#EBD68C" opacity="1.000000" stroke="none" 
	d="
M192.030548,79.719208 
	C191.843384,79.839462 191.573578,79.679733 191.151230,79.330513 
	C191.301773,79.262917 191.618195,79.362312 192.030548,79.719208 
z"/>
<path fill="#E7D07E" opacity="1.000000" stroke="none" 
	d="
M198.993561,99.273285 
	C199.187454,99.142799 199.453857,99.301117 199.866241,99.656181 
	C199.715622,99.724373 199.400238,99.627426 198.993561,99.273285 
z"/>
<path fill="#EBD68C" opacity="1.000000" stroke="none" 
	d="
M194.040344,81.720276 
	C193.867844,81.755157 193.595688,81.524055 193.162903,81.076828 
	C193.315063,81.058563 193.627884,81.256432 194.040344,81.720276 
z"/>
<path fill="#EBD68C" opacity="1.000000" stroke="none" 
	d="
M193.040024,80.725632 
	C192.866257,80.762238 192.594803,80.531609 192.161865,80.086487 
	C192.314362,80.067459 192.628357,80.262924 193.040024,80.725632 
z"/>
<path fill="#EBD68C" opacity="1.000000" stroke="none" 
	d="
M186.034851,75.714882 
	C185.836487,75.850594 185.561371,75.692139 185.139984,75.328888 
	C185.296692,75.255058 185.618164,75.353928 186.034851,75.714882 
z"/>
<path fill="#E7D07E" opacity="1.000000" stroke="none" 
	d="
M190.964844,95.276039 
	C191.152603,95.138458 191.428848,95.289925 191.856995,95.641159 
	C191.709839,95.713440 191.391312,95.621498 190.964844,95.276039 
z"/>
<path fill="#E7C666" opacity="1.000000" stroke="none" 
	d="
M157.995987,68.660004 
	C157.991211,68.996193 157.501114,69.010582 156.896835,69.008865 
	C155.192825,69.329376 154.093079,69.651596 152.993347,69.973824 
	C151.293213,69.969963 149.593094,69.966103 147.470612,69.950935 
	C147.039154,68.907852 147.030029,67.876083 147.032867,66.458679 
	C150.448669,66.268837 153.852509,66.464622 157.633835,66.819183 
	C158.007797,67.426567 158.004272,67.875191 157.995987,68.660004 
z"/>
<path fill="#E2C360" opacity="1.000000" stroke="none" 
	d="
M90.968155,108.033028 
	C90.511726,108.049042 90.083588,108.035255 89.327560,108.010826 
	C88.999680,108.000183 88.983452,107.988075 88.983452,107.988075 
	C89.622406,107.803772 90.261353,107.619469 90.976486,107.689255 
	C91.052673,107.943352 90.996445,108.003235 90.968155,108.033028 
z"/>
<path fill="#E2C360" opacity="1.000000" stroke="none" 
	d="
M89.005714,108.008224 
	C89.011749,108.016266 88.816200,108.291718 88.816200,108.291718 
	C88.816200,108.291718 88.825455,108.073486 88.904449,108.030777 
	C88.983452,107.988075 88.999680,108.000183 89.005714,108.008224 
z"/>
<path fill="#000000" opacity="1.000000" stroke="none" 
	d="
M94.709099,99.294937 
	C94.702530,99.554108 94.501289,99.613739 94.300049,99.673378 
	C94.371513,99.480721 94.442970,99.288063 94.709099,99.294937 
z"/>
<path fill="#E8CA70" opacity="1.000000" stroke="none" 
	d="
M74.656509,82.044556 
	C75.938713,83.805588 76.874855,85.576416 77.841911,87.618378 
	C76.420158,87.714333 74.967476,87.539154 73.249031,86.928452 
	C72.983261,86.492935 72.967941,86.112450 72.967941,86.112450 
	C73.415443,84.759743 73.862946,83.407043 74.656509,82.044556 
z"/>
<path fill="#000000" opacity="1.000000" stroke="none" 
	d="
M72.609650,86.057014 
	C72.967941,86.112450 72.983261,86.492935 72.973389,86.682976 
	C72.309509,87.230469 71.655510,87.587929 70.711975,87.463226 
	C71.032089,86.654564 71.641716,86.328072 72.609650,86.057014 
z"/>
<path fill="#E8CA70" opacity="1.000000" stroke="none" 
	d="
M71.488953,91.484131 
	C71.511734,91.474777 71.466171,91.493477 71.488953,91.484131 
z"/>
<path fill="#EACF73" opacity="1.000000" stroke="none" 
	d="
M153.352020,69.978210 
	C154.093079,69.651596 155.192825,69.329376 156.651703,69.011734 
	C155.910797,69.338409 154.810745,69.660500 153.352020,69.978210 
z"/>
</svg>